<svg width="80" height="80" viewBox="0 0 80 80" xmlns="http://www.w3.org/2000/svg"><g fill="none"><path d="M0 4.102v71.796c0 1.426.149 1.943.427 2.465.28.521.689.93 1.21 1.21.522.278 1.039.427 2.465.427h71.796c1.426 0 1.943-.149 2.465-.427.521-.28.93-.689 1.21-1.21.278-.522.427-1.039.427-2.465V4.102c0-1.426-.149-1.943-.427-2.465a2.908 2.908 0 00-1.21-1.21C77.841.15 77.324 0 75.898 0H4.102C2.676 0 2.16.149 1.637.427c-.521.28-.93.689-1.21 1.21C.15 2.159 0 2.676 0 4.102z" fill="#EDF4FF"/><path d="M49.787 42.5l1.14-7.236h-7.021V30.56c0-1.979.98-3.912 4.115-3.912h3.237v-6.162c-1.885-.3-3.79-.463-5.7-.486-5.778 0-9.551 3.47-9.551 9.746v5.517H29.6V42.5h6.406V60h7.899V42.5h5.881z" fill="#337FFF"/></g></svg>