<svg width="80" height="80" viewBox="0 0 80 80" xmlns="http://www.w3.org/2000/svg" xmlns:xlink="http://www.w3.org/1999/xlink"><defs><path id="a" d="M0 0h51.629v24H0z"/></defs><g fill="none" fill-rule="evenodd"><path d="M0 4.102v71.796c0 1.426.149 1.943.427 2.465.28.521.689.93 1.21 1.21.522.278 1.039.427 2.465.427h71.796c1.426 0 1.943-.149 2.465-.427.521-.28.93-.689 1.21-1.21.278-.522.427-1.039.427-2.465V4.102c0-1.426-.149-1.943-.427-2.465a2.908 2.908 0 00-1.21-1.21C77.841.15 77.324 0 75.898 0H4.102C2.676 0 2.16.149 1.637.427c-.521.28-.93.689-1.21 1.21C.15 2.159 0 2.676 0 4.102z" fill="#F9F9F9" fill-rule="nonzero"/><g transform="translate(14.4 28)"><mask id="b" fill="#fff"><use xlink:href="#a"/></mask><path d="M27.676 12c0 6.625 5.362 11.997 11.977 11.997 6.613 0 11.975-5.372 11.975-11.998 0-6.625-5.362-11.996-11.975-11.996-6.615 0-11.977 5.37-11.977 11.996z" fill="#FF0084" fill-rule="nonzero" mask="url(#b)"/><path d="M0 12c0 6.625 5.361 11.997 11.976 11.997 6.614 0 11.976-5.372 11.976-11.998C23.952 5.374 18.59.003 11.976.003 5.36.003 0 5.373 0 11.999z" fill="#0063DC" fill-rule="nonzero" mask="url(#b)"/></g></g></svg>