<svg width="80" height="80" viewBox="0 0 80 80" xmlns="http://www.w3.org/2000/svg"><defs><radialGradient cx="13.286%" cy="100.472%" fx="13.286%" fy="100.472%" r="130.62%" gradientTransform="scale(.9994)" id="a"><stop stop-color="#FA8F21" offset="0%"/><stop stop-color="#FA8F21" offset="9%"/><stop stop-color="#D82D7E" offset="78%"/><stop stop-color="#D82D7E" offset="100%"/></radialGradient><radialGradient cx="60.648%" cy="104.952%" fx="60.648%" fy="104.952%" r="102.947%" gradientTransform="scale(.9994)" id="b"><stop stop-color="#8C3AAA" stop-opacity="0" offset="0%"/><stop stop-color="#8C3AAA" stop-opacity="0" offset="64%"/><stop stop-color="#8C3AAA" offset="100%"/></radialGradient></defs><g fill="none"><path d="M0 4.102v71.796c0 1.426.149 1.943.427 2.465.28.521.689.93 1.21 1.21.522.278 1.039.427 2.465.427h71.796c1.426 0 1.943-.149 2.465-.427.521-.28.93-.689 1.21-1.21.278-.522.427-1.039.427-2.465V4.102c0-1.426-.149-1.943-.427-2.465a2.908 2.908 0 00-1.21-1.21C77.841.15 77.324 0 75.898 0H4.102C2.676 0 2.16.149 1.637.427c-.521.28-.93.689-1.21 1.21C.15 2.159 0 2.676 0 4.102z" fill="#FAF5FC"/><path d="M14.572 21.843a7.283 7.283 0 017.284-7.281 7.284 7.284 0 017.286 7.281 7.284 7.284 0 01-7.286 7.282 7.283 7.283 0 01-7.284-7.282zm-3.939 0c0 6.195 5.025 11.216 11.223 11.216 6.199 0 11.223-5.021 11.223-11.216 0-6.195-5.024-11.216-11.223-11.216-6.198 0-11.223 5.021-11.223 11.216zm20.268-11.66a2.62 2.62 0 003.133 2.571 2.623 2.623 0 001.913-3.573 2.622 2.622 0 00-2.422-1.619h-.001a2.625 2.625 0 00-2.623 2.62zm-17.875 29.44c-2.13-.097-3.289-.452-4.058-.751-1.02-.397-1.749-.87-2.514-1.634-.766-.764-1.24-1.491-1.635-2.511-.3-.769-.655-1.927-.752-4.056-.106-2.303-.127-2.994-.127-8.828 0-5.833.023-6.523.127-8.827.097-2.13.454-3.285.752-4.056.397-1.02.87-1.748 1.635-2.513.764-.765 1.491-1.238 2.514-1.634.769-.3 1.927-.654 4.058-.751 2.304-.106 2.996-.127 8.83-.127s6.527.023 8.833.127c2.13.097 3.287.454 4.059.751 1.02.396 1.748.87 2.514 1.634.765.764 1.237 1.493 1.634 2.513.3.769.655 1.926.752 4.056.106 2.304.127 2.994.127 8.827 0 5.834-.02 6.523-.127 8.828-.097 2.13-.453 3.287-.752 4.056-.397 1.02-.87 1.747-1.634 2.51-.765.764-1.494 1.238-2.514 1.635-.77.3-1.928.654-4.06.751-2.303.106-2.995.127-8.832.127-5.836 0-6.527-.021-8.83-.127zm-.18-39.49C10.518.237 8.928.606 7.54 1.146a10.72 10.72 0 00-3.871 2.52C2.452 4.88 1.705 6.098 1.148 7.535c-.54 1.388-.91 2.976-1.016 5.302C.025 15.167 0 15.91 0 21.843s.025 6.677.132 9.006c.106 2.325.475 3.913 1.016 5.302.557 1.436 1.304 2.656 2.52 3.869a10.747 10.747 0 003.872 2.52c1.391.54 2.979.908 5.305 1.014 2.332.106 3.076.132 9.011.132 5.936 0 6.68-.024 9.011-.132 2.327-.106 3.916-.475 5.305-1.015 1.437-.559 2.656-1.305 3.872-2.519 1.216-1.214 1.961-2.433 2.521-3.87.54-1.388.911-2.976 1.015-5.301.106-2.331.13-3.074.13-9.006s-.024-6.676-.13-9.005c-.106-2.326-.475-3.915-1.015-5.302-.56-1.437-1.306-2.654-2.521-3.87-1.214-1.215-2.435-1.962-3.87-2.52-1.391-.54-2.98-.91-5.305-1.014C28.539.026 27.793 0 21.858 0c-5.935 0-6.681.025-9.013.132z" fill="url(#a)" transform="translate(18.348 18.348)"/><path d="M14.572 21.843a7.283 7.283 0 017.284-7.281 7.284 7.284 0 017.286 7.281 7.284 7.284 0 01-7.286 7.282 7.283 7.283 0 01-7.284-7.282zm-3.939 0c0 6.195 5.025 11.216 11.223 11.216 6.199 0 11.223-5.021 11.223-11.216 0-6.195-5.024-11.216-11.223-11.216-6.198 0-11.223 5.021-11.223 11.216zm20.268-11.66a2.62 2.62 0 003.133 2.571 2.623 2.623 0 001.913-3.573 2.622 2.622 0 00-2.422-1.619h-.001a2.625 2.625 0 00-2.623 2.62zm-17.875 29.44c-2.13-.097-3.289-.452-4.058-.751-1.02-.397-1.749-.87-2.514-1.634-.766-.764-1.24-1.491-1.635-2.511-.3-.769-.655-1.927-.752-4.056-.106-2.303-.127-2.994-.127-8.828 0-5.833.023-6.523.127-8.827.097-2.13.454-3.285.752-4.056.397-1.02.87-1.748 1.635-2.513.764-.765 1.491-1.238 2.514-1.634.769-.3 1.927-.654 4.058-.751 2.304-.106 2.996-.127 8.83-.127s6.527.023 8.833.127c2.13.097 3.287.454 4.059.751 1.02.396 1.748.87 2.514 1.634.765.764 1.237 1.493 1.634 2.513.3.769.655 1.926.752 4.056.106 2.304.127 2.994.127 8.827 0 5.834-.02 6.523-.127 8.828-.097 2.13-.453 3.287-.752 4.056-.397 1.02-.87 1.747-1.634 2.51-.765.764-1.494 1.238-2.514 1.635-.77.3-1.928.654-4.06.751-2.303.106-2.995.127-8.832.127-5.836 0-6.527-.021-8.83-.127zm-.18-39.49C10.518.237 8.928.606 7.54 1.146a10.72 10.72 0 00-3.871 2.52C2.452 4.88 1.705 6.098 1.148 7.535c-.54 1.388-.91 2.976-1.016 5.302C.025 15.167 0 15.91 0 21.843s.025 6.677.132 9.006c.106 2.325.475 3.913 1.016 5.302.557 1.436 1.304 2.656 2.52 3.869a10.747 10.747 0 003.872 2.52c1.391.54 2.979.908 5.305 1.014 2.332.106 3.076.132 9.011.132 5.936 0 6.68-.024 9.011-.132 2.327-.106 3.916-.475 5.305-1.015 1.437-.559 2.656-1.305 3.872-2.519 1.216-1.214 1.961-2.433 2.521-3.87.54-1.388.911-2.976 1.015-5.301.106-2.331.13-3.074.13-9.006s-.024-6.676-.13-9.005c-.106-2.326-.475-3.915-1.015-5.302-.56-1.437-1.306-2.654-2.521-3.87-1.214-1.215-2.435-1.962-3.87-2.52-1.391-.54-2.98-.91-5.305-1.014C28.539.026 27.793 0 21.858 0c-5.935 0-6.681.025-9.013.132z" fill="url(#b)" transform="translate(18.348 18.348)"/></g></svg>