<svg width="80" height="80" viewBox="0 0 80 80" xmlns="http://www.w3.org/2000/svg"><defs><linearGradient x1="50%" y1="0%" x2="50%" y2="100%" id="a"><stop stop-color="#F452FF" offset="0%"/><stop stop-color="#832BC1" offset="100%"/></linearGradient><linearGradient x1="50%" y1="0%" x2="50%" y2="100%" id="b"><stop stop-color="#F452FF" offset="0%"/><stop stop-color="#832BC1" offset="100%"/></linearGradient><linearGradient x1="50%" y1="0%" x2="50%" y2="100%" id="c"><stop stop-color="#F452FF" offset="0%"/><stop stop-color="#832BC1" offset="100%"/></linearGradient><linearGradient x1="50%" y1="0%" x2="50%" y2="100%" id="d"><stop stop-color="#F452FF" offset="0%"/><stop stop-color="#832BC1" offset="100%"/></linearGradient></defs><g fill-rule="nonzero" fill="none"><path d="M0 4.102v71.796c0 1.426.149 1.943.427 2.465.28.521.689.93 1.21 1.21.522.278 1.039.427 2.465.427h71.796c1.426 0 1.943-.149 2.465-.427.521-.28.93-.689 1.21-1.21.278-.522.427-1.039.427-2.465V4.102c0-1.426-.149-1.943-.427-2.465a2.908 2.908 0 0 0-1.21-1.21C77.841.15 77.324 0 75.898 0H4.102C2.676 0 2.16.149 1.637.427c-.521.28-.93.689-1.21 1.21C.15 2.159 0 2.676 0 4.102Z" fill="#FCEDFF"/><path d="M25.542 28.792c-.078-.701-.311-1.207-.778-1.674-.876-.915-2.414-1.519-4.225-1.519-1.81 0-3.348.584-4.224 1.519-.448.486-.7.973-.779 1.674-.155 1.362-.058 2.53.098 4.419.155 1.79.447 4.185.817 6.599.273 1.732.487 2.667.682 3.329.33 1.09 1.518 2.024 3.406 2.024 1.889 0 3.095-.954 3.407-2.024.195-.662.409-1.597.681-3.33.37-2.432.662-4.807.818-6.598.175-1.889.253-3.057.097-4.42Z" fill="url(#a)" transform="translate(19.201 17.6)"/><path d="M25.325 18.863a4.785 4.785 0 0 1-4.789 4.789 4.785 4.785 0 0 1-4.788-4.789 4.785 4.785 0 0 1 4.788-4.789 4.798 4.798 0 0 1 4.79 4.79Z" fill="url(#b)" transform="translate(19.201 17.6)"/><path d="M20.48 0C9.308.039.158 9.11.003 20.284c-.117 9.052 5.665 16.8 13.743 19.642.195.078.39-.097.37-.292-.097-.7-.214-1.401-.292-2.102a.772.772 0 0 0-.409-.565C7.03 34.183 2.571 27.78 2.65 20.362c.098-9.733 8.04-17.656 17.754-17.734 9.947-.078 18.065 7.981 18.065 17.91 0 7.338-4.439 13.645-10.765 16.43a.661.661 0 0 0-.409.564l-.292 2.102c-.039.214.175.37.37.292 8-2.803 13.743-10.434 13.743-19.389C41.076 9.207 31.83-.019 20.481 0Z" fill="url(#c)" transform="translate(19.201 17.6)"/><path d="M20.01 6.813c-7.28.273-13.12 6.288-13.217 13.568-.058 4.79 2.336 9.033 6.015 11.544.175.117.428-.02.428-.233a19.109 19.109 0 0 1-.02-2.356.793.793 0 0 0-.272-.662 11.131 11.131 0 0 1-3.523-8.41c.156-5.84 4.847-10.59 10.687-10.823 6.346-.253 11.563 4.847 11.563 11.116 0 3.192-1.362 6.073-3.523 8.117a.927.927 0 0 0-.273.662c.04.76.02 1.5-.02 2.336-.019.214.234.37.43.234 3.62-2.473 6.014-6.658 6.014-11.369.02-7.748-6.463-14.035-14.288-13.724Z" fill="url(#d)" transform="translate(19.201 17.6)"/></g></svg>