<svg width="80" height="80" viewBox="0 0 80 80" xmlns="http://www.w3.org/2000/svg"><g fill="none" fill-rule="evenodd"><path d="M0 4.102v71.796c0 1.426.149 1.943.427 2.465.28.521.689.93 1.21 1.21.522.278 1.039.427 2.465.427h71.796c1.426 0 1.943-.149 2.465-.427.521-.28.93-.689 1.21-1.21.278-.522.427-1.039.427-2.465V4.102c0-1.426-.149-1.943-.427-2.465a2.908 2.908 0 0 0-1.21-1.21C77.841.15 77.324 0 75.898 0H4.102C2.676 0 2.16.149 1.637.427c-.521.28-.93.689-1.21 1.21C.15 2.159 0 2.676 0 4.102Z" fill="#F6F6F6" fill-rule="nonzero"/><path d="M48.64 34.465a15.734 15.734 0 0 0 9.176 2.91V30.86a8.828 8.828 0 0 1-1.922-.206v5.19a15.723 15.723 0 0 1-9.186-2.943v13.4a12.183 12.183 0 0 1-18.916 10.11 12.183 12.183 0 0 0 20.849-8.514V34.465Zm2.379-6.645a9.11 9.11 0 0 1-2.378-5.365v-.846h-1.825a9.208 9.208 0 0 0 4.203 6.21ZM32.016 51.252a5.56 5.56 0 0 1 4.463-8.936c.575 0 1.146.088 1.694.26v-6.732a12.824 12.824 0 0 0-1.933-.108v5.233a5.57 5.57 0 0 0-4.191 10.283h-.033Z" fill="#EE1D52"/><path d="M46.707 32.858a15.723 15.723 0 0 0 9.186 2.943v-5.19a9.165 9.165 0 0 1-4.875-2.791 9.208 9.208 0 0 1-4.203-6.211h-4.8v26.288a5.57 5.57 0 0 1-10 3.355 5.57 5.57 0 0 1 4.192-10.283v-5.233A12.172 12.172 0 0 0 27.79 56.41 12.183 12.183 0 0 0 46.74 46.3l-.032-13.442Z" fill="#000" fill-rule="nonzero"/><path d="M55.894 30.61v-1.4a9.11 9.11 0 0 1-4.876-1.39 9.089 9.089 0 0 0 4.876 2.79Zm-9.078-9.002c0-.25-.076-.51-.109-.76v-.847h-6.623v26.3a5.56 5.56 0 0 1-5.57 5.537 5.494 5.494 0 0 1-2.498-.586 5.57 5.57 0 0 0 10-3.355V21.608h4.8ZM36.207 35.724v-1.487a12.172 12.172 0 0 0-8.415 22.173 12.172 12.172 0 0 1 8.448-20.631l-.033-.055Z" fill="#69C9D0"/></g></svg>