<svg xmlns="http://www.w3.org/2000/svg" width="80" height="80"><g fill="none" fill-rule="nonzero"><path fill="#F2F4F8" d="M0 4.102v71.796c0 1.426.149 1.943.427 2.465.28.521.689.93 1.21 1.21.522.278 1.039.427 2.465.427h71.796c1.426 0 1.943-.149 2.465-.427.521-.28.93-.689 1.21-1.21.278-.522.427-1.039.427-2.465V4.102c0-1.426-.149-1.943-.427-2.465a2.908 2.908 0 0 0-1.21-1.21C77.841.15 77.324 0 75.898 0H4.102C2.676 0 2.16.149 1.637.427c-.521.28-.93.689-1.21 1.21C.15 2.159 0 2.676 0 4.102Z"/><path fill="#121619" d="M53.053 20H59.8L45.06 36.944 62.4 60H48.822L38.188 46.016 26.02 60h-6.751l15.766-18.123L18.4 20h13.922l9.613 12.782L53.053 20Zm-2.368 35.938h3.738l-24.132-32.09h-4.012l24.406 32.09Z"/></g></svg>