<svg width="80" height="80" viewBox="0 0 80 80" xmlns="http://www.w3.org/2000/svg"><g fill-rule="nonzero" fill="none"><path d="M0 4.102v71.796c0 1.426.149 1.943.427 2.465.28.521.689.93 1.21 1.21.522.278 1.039.427 2.465.427h71.796c1.426 0 1.943-.149 2.465-.427.521-.28.93-.689 1.21-1.21.278-.522.427-1.039.427-2.465V4.102c0-1.426-.149-1.943-.427-2.465a2.908 2.908 0 0 0-1.21-1.21C77.841.15 77.324 0 75.898 0H4.102C2.676 0 2.16.149 1.637.427c-.521.28-.93.689-1.21 1.21C.15 2.159 0 2.676 0 4.102Z" fill="#FFECE8"/><path d="M62.25 28.997a5.727 5.727 0 0 0-4.033-4.044C55.847 24.318 49.91 24 40.401 24c-9.503 0-15.442.318-17.817.953a5.727 5.727 0 0 0-4.033 4.044c-.633 2.375-.95 6.043-.95 11.003s.317 8.628.95 11.004a5.727 5.727 0 0 0 4.033 4.043c2.375.636 8.314.953 17.817.953 9.508 0 15.446-.317 17.816-.953a5.727 5.727 0 0 0 4.034-4.043c.633-2.376.95-6.044.95-11.004s-.317-8.628-.95-11.003Z" fill="#FF3000"/><path fill="#FFF" d="M35.845 46.858 47.69 40l-11.846-6.858z"/></g></svg>