<svg width="36" height="16" viewBox="0 0 36 16" xmlns="http://www.w3.org/2000/svg"><g id="Symbols" stroke="none" stroke-width="1" fill="none" fill-rule="evenodd"><g id="topNavbar" transform="translate(-158 -20)" fill="#121619" fill-rule="nonzero"><g id="logoUEFA" transform="translate(158 20)"><path d="M7.581 11.248c-.336.272-.737.416-1.122.384-.448-.048-.737-.24-1.154-.768l-2.18-2.688-.977.8 2.388 2.928c.497.608 1.074.944 1.731.992.753.064 1.41-.16 2.084-.688.657-.528 1.01-1.136 1.106-1.888.064-.656-.128-1.28-.625-1.888L6.443 5.488l-.961.784 2.18 2.688c.432.528.545.832.513 1.296-.033.352-.257.72-.594.992M30.23 14.08l1.811-6.288c.064-.224.096-.448-.208-.672l-.24-.192c-.29-.224-.514-.144-.706-.016l-5.482 3.552 1.154.656 3.96-2.56-.626 2.16-.513-.4-1.042.688 1.219.928-.353 1.216 1.026.928zM18 .976c6.78 0 12.919 2.784 17.295 7.28L36 7.568A25.098 25.098 0 0018 0 25.098 25.098 0 000 7.568l.69.688A24.129 24.129 0 0118 .976m0 10.304c4.151 0 7.886 1.824 10.435 4.72l.737-.64c-2.725-3.088-6.716-5.056-11.156-5.056S9.585 12.256 6.86 15.36l.738.64A13.747 13.747 0 0118 11.28m5.321-6.928l2.244.592.289-1.136-2.292-.592c-1.074-.272-2.068-.016-2.42 1.296l-1.026 3.904c-.064.288.08.496.336.576l.754.192.673-2.528 2.789.736.288-1.12-2.789-.736.16-.592c.145-.624.417-.736.994-.592m-7.677-1.824l-3.863.784c-.273.048-.417.272-.369.56l.818 3.952c.272 1.344 1.25 1.664 2.34 1.44l2.356-.48-.24-1.152-2.276.464c-.593.128-.85 0-.994-.656l-.112-.576 2.837-.576-.24-1.136-2.838.576-.272-1.408 3.093-.64-.24-1.152z" id="Shape"/></g></g></g></svg>