<svg width="37" height="12" viewBox="0 0 37 12" xmlns="http://www.w3.org/2000/svg"><g id="Symbols" stroke="none" stroke-width="1" fill="none" fill-rule="evenodd"><g id="topNavbar" transform="translate(-210 -22)" fill="#121619" fill-rule="nonzero"><g id="Group-12" transform="translate(158 20)"><g id="logoFIFA" transform="translate(52 2)"><path d="M0 .01V12h3.749V7.673h2.6l1.009-2.628H3.749V2.619h4.399L9.108.01H0zm10.247 0L10.237 12h3.709V.01h-3.699zm18.225 8.077l1.43-4.994 1.48 4.995h-2.91zm3.41-8.076h-3.84L23.784 12h3.58l.46-1.607h4.168l.48 1.607h3.69L31.88.01zm-15.386 0V12h3.749V7.673h2.599l1.02-2.628h-3.62V2.618h4.4L25.612.01h-9.117zM35.37 1.283h.26c.04 0 .08 0 .12-.01.04 0 .07-.02.1-.03a.217.217 0 00.1-.192.183.183 0 00-.03-.112.134.134 0 00-.07-.06.192.192 0 00-.1-.031c-.04 0-.07-.01-.11-.01h-.26v.445h-.01zm-.3-.677h.59c.19 0 .34.03.43.1.1.071.15.193.15.365 0 .131-.03.232-.11.303a.454.454 0 01-.3.121l.42.698h-.3l-.41-.688h-.17v.688h-.3V.606zm.54 1.93a.98.98 0 00.74-.313c.09-.101.17-.223.23-.354.05-.142.08-.293.08-.455 0-.162-.03-.313-.08-.455a1.087 1.087 0 00-.23-.354.94.94 0 00-.33-.232 1.09 1.09 0 00-.82 0 .972.972 0 00-.33.232c-.09.101-.17.223-.22.354-.052.146-.079.3-.08.455 0 .162.03.313.08.455.06.141.13.253.22.354.1.1.21.182.33.232.12.05.26.081.41.081zm0 .273c-.185 0-.369-.039-.54-.111a1.365 1.365 0 01-.73-.748 1.437 1.437 0 01-.11-.546c.002-.37.145-.724.4-.991a1.53 1.53 0 01.44-.303c.17-.08.351-.111.54-.111.19 0 .37.03.54.111.17.071.31.172.44.303.12.132.23.273.3.445.07.172.11.354.11.546 0 .192-.04.374-.11.546a1.34 1.34 0 01-.3.445 1.23 1.23 0 01-.44.303c-.17.073-.354.11-.54.112z" id="Shape"/></g></g></g></g></svg>