<svg width="176" height="240" viewBox="0 0 176 240" xmlns="http://www.w3.org/2000/svg"><g id="Symbols" stroke="none" stroke-width="1" fill="none" fill-rule="evenodd"><g id="logo_facr_color"><path d="M175.312 68.536c-.03-.383-.07-.765-.102-1.149-.687-8.236-1.783-16.442-3.182-24.576a305.104 305.104 0 00-10.992-1.835 195.253 195.253 0 00-.998-5.925c-2.303-.403-4.63-.768-6.962-1.126l-.355-.461c-1.007-7.826-2.44-18.405-3.743-25.9C148.244 3.34 144.525 0 140.281 0H35.718c-4.243 0-7.962 3.339-8.697 7.565-1.302 7.494-2.735 18.072-3.742 25.899l-.355.46c-2.333.36-4.66.724-6.962 1.127a198.676 198.676 0 00-.999 5.925c-3.762.563-7.44 1.17-10.992 1.835C2.573 50.945 1.477 59.151.79 67.387c-.031.384-.072.766-.102 1.15C.6 69.643.535 70.751.463 71.858c-.04.622-.09 1.245-.125 1.867-.056.999-.092 1.997-.135 2.996-.031.73-.073 1.462-.097 2.193-.029.916-.039 1.83-.056 2.746-.016.816-.043 1.634-.05 2.451-.005.823.01 1.645.014 2.467.004.91-.002 1.82.016 2.73.013.751.048 1.5.07 2.252.03.98.052 1.962.098 2.942.03.685.083 1.369.122 2.053.06 1.047.113 2.093.192 3.14.048.63.115 1.26.17 1.89.095 1.097.183 2.194.3 3.29.064.61.15 1.217.22 1.826.13 1.115.255 2.23.41 3.344.08.585.181 1.169.269 1.754.169 1.136.333 2.272.528 3.405.097.566.214 1.129.318 1.693.21 1.152.418 2.303.654 3.452.115.55.25 1.099.37 1.648.253 1.16.503 2.322.785 3.48.13.534.282 1.067.418 1.601.3 1.17.596 2.342.925 3.508.147.52.316 1.038.469 1.557.346 1.177.691 2.356 1.07 3.529.166.514.354 1.027.526 1.54.395 1.176.786 2.352 1.215 3.524.185.507.393 1.012.585 1.52.444 1.172.886 2.346 1.365 3.515.208.507.44 1.012.653 1.52.494 1.162.985 2.327 1.513 3.486.232.507.487 1.01.725 1.517.544 1.156 1.085 2.31 1.665 3.46.254.501.531.999.79 1.499.598 1.149 1.195 2.298 1.83 3.442.282.507.588 1.01.878 1.515.647 1.132 1.293 2.264 1.977 3.39.312.51.649 1.015.967 1.524.7 1.116 1.397 2.233 2.135 3.343.34.511.705 1.016 1.052 1.524.754 1.103 1.506 2.207 2.3 3.304.37.512.77 1.02 1.15 1.532.807 1.086 1.61 2.173 2.46 3.252.404.516.838 1.027 1.254 1.542.86 1.067 1.717 2.135 2.617 3.194.445.524.919 1.04 1.374 1.562.91 1.045 1.819 2.09 2.77 3.128.485.526.998 1.049 1.493 1.573.965 1.025 1.926 2.05 2.931 3.067.523.528 1.076 1.05 1.61 1.576 1.02 1.007 2.037 2.014 3.1 3.013.565.53 1.162 1.055 1.739 1.584.953.873 1.886 1.751 2.872 2.618a35.61 35.61 0 00-.08 2.256c0 19.225 15.58 34.807 34.798 34.807.106 0 .212-.006.318-.008.107.002.212.008.319.008 19.218 0 34.797-15.582 34.797-34.807 0-.758-.033-1.509-.081-2.256.987-.868 1.923-1.747 2.877-2.621.576-.528 1.171-1.052 1.734-1.581 1.065-1.001 2.084-2.01 3.108-3.018.53-.524 1.08-1.044 1.6-1.57 1.01-1.02 1.975-2.049 2.943-3.078.491-.52 1.002-1.039 1.482-1.562.956-1.042 1.867-2.09 2.782-3.14.451-.517.92-1.03 1.362-1.55.905-1.064 1.766-2.136 2.63-3.208.41-.51.841-1.017 1.243-1.528.852-1.085 1.66-2.176 2.47-3.267.377-.506.772-1.009 1.14-1.517.795-1.099 1.547-2.205 2.303-3.31.346-.507.71-1.01 1.048-1.517.74-1.115 1.44-2.235 2.143-3.355.315-.504.65-1.007.958-1.513.687-1.128 1.334-2.262 1.982-3.395.289-.504.594-1.006.875-1.511.633-1.14 1.227-2.285 1.822-3.43.263-.505.543-1.006.798-1.513.58-1.147 1.12-2.299 1.662-3.451.24-.509.496-1.015.728-1.524.528-1.16 1.019-2.322 1.512-3.486.214-.507.446-1.012.655-1.52.475-1.163.916-2.332 1.357-3.5.195-.512.405-1.024.592-1.537.427-1.168.818-2.34 1.212-3.512.173-.516.363-1.032.53-1.55.376-1.167.719-2.338 1.063-3.508.155-.527.327-1.052.475-1.58.33-1.17.628-2.344.927-3.518.136-.53.287-1.057.416-1.587.285-1.172.538-2.346.794-3.52.118-.536.249-1.071.36-1.608.24-1.164.45-2.33.663-3.497.1-.55.214-1.097.31-1.647.196-1.15.364-2.303.535-3.456.085-.568.183-1.135.262-1.704.156-1.131.284-2.266.417-3.4.069-.59.15-1.18.213-1.77.115-1.091.203-2.183.298-3.275.055-.637.124-1.272.171-1.91.08-1.05.133-2.101.193-3.151.039-.679.092-1.357.123-2.036.046-1.009.069-2.018.099-3.026.021-.723.055-1.444.069-2.167.017-.943.012-1.886.016-2.828.003-.79.017-1.58.013-2.37-.008-.856-.035-1.712-.053-2.568-.017-.876-.025-1.752-.054-2.627-.024-.76-.068-1.518-.1-2.276-.042-.972-.076-1.945-.13-2.918-.036-.622-.086-1.245-.126-1.867-.071-1.107-.138-2.215-.225-3.323" id="Fill-411" fill="#FFF"/><path d="M112.005 179.693c44.477-39.353 50.298-92.33 42.546-138.01-42.926-7.58-90.696-8.041-133.102 0-7.773 45.799-1.9 98.93 42.892 138.313 6.242-5.95 14.687-9.61 23.99-9.61 9.146 0 17.463 3.535 23.674 9.307" id="Fill-413" fill="#E92B1E"/><path d="M72.406 189.15c-2.82 4.186-5.059 8.959-6.83 14.196 2.523 4.26 6.277 8.28 10.83 12.137 6.01-3.206 11.73-6.265 15.2-9.062L88.67 189.58c-4.719-.966-10.533-1.143-16.263-.43" id="Fill-415" fill="#00257A"/><path d="M113.561 183.845a32.892 32.892 0 00-19.738-11.315c2.4 2.374 5.032 6.497 5.72 8.687 5.054 1.662 9.474 3.962 12.936 7.22 1.198-1.75 1.082-4.592 1.082-4.592" id="Fill-417" fill="#00257A"/><path d="M116.371 204.261c-2.527 3.718-5.847 6.742-9.884 9.118a48.69 48.69 0 01-.564 13.715c2.872-.508 6.538-1.432 8.713-2.314a32.79 32.79 0 005.86-12.784c-.696-2.773-2.388-5.963-4.125-7.735" id="Fill-419" fill="#00257A"/><path d="M66.827 229.915c5.875 5.076 13.551 8.111 21.924 8.004.055 0 .11-.005.165-.006.842-.876 1.64-2.436 2.004-3.64-5.511-1.218-9.821-3.092-13.81-5.896-2.643.77-7.036 1.414-10.283 1.538" id="Fill-421" fill="#00257A"/><path d="M55.9 199.374a33.063 33.063 0 00-.484 6.039 32.796 32.796 0 003.395 14.165s-.794-6.082 1.409-13.905c-1.653-.807-3.97-3.575-4.32-6.299" id="Fill-423" fill="#00257A"/><path d="M70.647 183.197c2.533-5.912 8.945-9.957 8.945-9.957a32.898 32.898 0 00-15.923 9.943c2.443-1.105 5.179-.72 6.978.014" id="Fill-425" fill="#00257A"/><path d="M95.356 6.413l-2.87-2.187 2.406-2.658 4.072 2.592 3.81-2.592 2.493 2.658-2.927 2.106a17.636 17.636 0 00-3.36-.33c-1.25 0-2.46.15-3.624.411zm3.636.257c6.534 0 11.561 3.535 12.948 9.967h-6.552c-1.04-2.957-3.324-4.674-6.396-4.674-3.942 0-6.998 2.988-6.998 7.706 0 4.572 3.056 7.704 6.998 7.704 3.225 0 5.84-1.952 6.535-4.962h6.65c-1.183 6.417-6.502 10.258-13.185 10.258-7.39 0-13.561-5.067-13.561-13 0-7.8 6.17-13 13.56-13zm-37.455.894v5.352h-18.47v5.196h14.676v5.228H43.067v8.396h-6.473V7.564h24.943zm14.94.001l10.498 24.17h-7.272l-1.609-4.053H65.498l-1.608 4.053h-7.045l10.627-24.17h9.004zm-4.574 4.23h-.214l-4.082 10.659h8.378l-4.082-10.66zm69.687 4.551c0-5.527-4.62-8.78-9.979-8.78h-16.328v24.17h6.473v-6.612h6.612l4.716 6.612h7.9l-5.603-7.243c3.623-1.102 6.209-4.071 6.209-8.147zm-10.528 3.427h-9.306v-6.857h9.11c2.346 0 4.167 1.221 4.167 3.43 0 2.079-1.538 3.427-3.971 3.427z" id="Shape" fill="#00257A"/><path d="M14.789 47.398c-1.864.299-3.722.608-5.57.933C.33 96.972 6.522 153.14 54.792 195.925c1.134-4.115 3-7.924 5.456-11.277-43.68-39.657-51.232-90.32-45.46-137.25" id="Fill-436" fill="#00257A"/><path d="M166.78 48.331a468.533 468.533 0 00-5.562-.873c5.742 46.769-1.758 97.24-45.068 136.827a34.672 34.672 0 015.587 11.169c47.787-42.727 53.902-98.66 45.043-147.123" id="Fill-438" fill="#00257A"/><path d="M132.005 71.784c-1.26-2.97-1.68-8.228 3.243-8.136-1.244-2.715-6.062-2.388-7.265.293-2.156-4.318-5.65-6.73-8.641-6.702-.09 1.43.523 4.106 2.388 6.665-3.26.023-5.858 2.184-5.1 5.315 7.181-4.286 13.053 3.147 13.053 10.27 0 3.47-1.15 6.75-2.833 9.9.102-4.797-6.425-4.812-6.618-.324 2.584-1.162 5.587.856 4.324 4.13-1.149 1.739-2.389 3.443-3.605 5.12-2.259-3.09-4.615-6.24-6.37-9.474-2.765-5.517 1.56-7.418 4.212-5.185 1.004-3.925-2.442-5.65-5.03-4.641 2.717-3.22 7.763-3.614 10.117-1.313.264-5.063-5.79-7.138-9.837-4.407 1.808-3.292-.201-5.079-.201-5.079-2.35 1.534-5.13 6.01-5.13 11.272 0 5.127 2.166 9.892 4.882 14.314-2.794-2.023-6.54-1.97-8.938-.28 0 0 .942 3.035 7.036 3.33-1.543 1.356-1.642 4.233 1.19 6.001.297-2.72 3.343-4.29 5.514-1.936.118.166.23.33.346.496-2.786 4.024-5.01 7.935-5.01 11.885 0 3.388 1.208 6.462 3.17 8.738-.068.002-.136.005-.205.005-4.357 0-7.836-4.065-8.679-9.095-6.492-4.604-10.865-10.887-8.5-20.293a4.984 4.984 0 002.878-6.082 5.217 5.217 0 001.49-6.817 5.254 5.254 0 00-.03-7.008 5.113 5.113 0 00-1.622-6.63c-.034-.023-.07-.042-.103-.063a4.843 4.843 0 00-1.261-4.525 16.1 16.1 0 00.615-2.918s-1.28-.627-2.893-.945l2.62-5.97s-2.685-.722-2.964 1.513a2.436 2.436 0 00-.413-.067c-1.032-.072-1.913.541-1.97 1.367-.027.39.135.754.418 1.04.377-.048.826.057 1 .317-.336.431-1.774.76-3.053.495-.782-.154-1.436-.562-1.802-.969.274-.243.834-.186 1.176.006.68-.198 1.183-.727 1.228-1.38.06-.878-.726-1.647-1.756-1.718a2.234 2.234 0 00-.56.033c.906-2.352-1.393-3.112-1.393-3.112s-2.382.436-1.808 2.89a2.218 2.218 0 00-.55-.109c-1.03-.071-1.915.583-1.975 1.46-.045.653.38 1.246 1.026 1.535.365-.142.927-.121 1.166.157-.419.353-1.123.666-1.919.711-1.302.086-2.683-.437-2.956-.91.209-.235.667-.275 1.033-.175.321-.246.531-.585.558-.974.057-.826-.73-1.554-1.762-1.625a2.35 2.35 0 00-.42.01c.032-2.254-2.727-1.908-2.727-1.908l2.061 7.287c-.74.425-1.766 1.069-2.557 1.792l-6.515 3.352v.001c.003.27.209 1.375.941 1.514-.173 1.35.08 2.957 1.285 3.538.385 1.096 1.005 2.04 1.33 2.342a91.064 91.064 0 00-4.102.55c-2.574.406-4.77-.4-5.662-2.495-1.13 2.366.09 9.469 9.694 4.65.784 1.587.577 3.59.577 3.59s.168.07.283.099c5.704-3.854 8.747-.98 8.018.615-4.265 1.223-7.593 3.013-9.863 4.824-8.584-4.012-13.492-7.364-16.478-10.406-1.928-2.964.887-6.27 2.528-10.137a2.11 2.11 0 00-.424-.392c.33-2.973-2.47-3.99-4.356-3.165v.045c.551.092 1.683.582 1.591 2.056-2-.106-3.917 1.154-3.874 4.27-.577-1.617-1.009-3.232-1.646-4.912a2.979 2.979 0 00-.817-.06c-1.926-2.27-5.113-1.076-5.51.616l.03.035c.506-.298 2.063-.404 2.839.734-1.347 1.582-1.423 4.807 1.635 6.95-1.434-.442-3.567-.935-4.594-1.07a4.46 4.46 0 00-.865 1.075c-2.612.216-4.024 2.493-2.846 4.647l.045.001c.163-.662 1.302-1.75 2.446-1.747.567 1.767 2.136 3.101 6.414 2.864-.985.842-1.864 1.868-2.189 2.587-.466 1.034-.575 2.254-.013 3.193-.823.13-1.71-.092-2.071-.415l-.037.027c-.053 2.652 3.333 3.725 5.825 1.82.693-.092 1.124-.318 1.124-.318.257-.563.803-2.035 1.283-3.376.944 1.538 3.89 5.728 4.476 6.508-1.146.225-1.932.731-2.289.953.039 1.467.997 2.911 3.44 3.18-1.615 1.253-1.56 3.73-.867 4.724 1.283-.287 3.397-1.189 5.217-2.051a61.296 61.296 0 002.345 2.53c-3.01 2.258-6.253 4.528-8.641 5.77-3.03 1.225-3.07-6.4-3.364-7.74a3.068 3.068 0 00-.728-.118c-1.466-1.958-4.371-1.772-5.26.443l.026.034c.525-.252 1.704-.37 2.445.416-1.657 1.224-2.557 3.621-.177 6.263l-.125.161c-2.222-1.472-5.111-4.452-5.111-4.452-.248.1-.478.23-.693.382-3.024-.422-4.594 2.25-3.877 3.848l.045.01c.205-.506 1.05-1.456 2.23-1.263-.396 2.2 1.025 4.831 5.303 4.854l.12.186c-1.578.182-3.81.541-4.86.885a4.63 4.63 0 00-.39 1.114 2.44 2.44 0 00-.172.09c-2.747 1.59-2.809 5.283-.361 6.467l.038-.026c-.268-.673.11-2.788 1.178-3.456 1.355 1.637 4.4 1.92 8.346-1.678l.053.017c-1.202 2.881-1.786 4.899-1.786 4.899.125.958.62 1.876 1.441 2.46-.61.765-1.753 1.14-2.329 1.02l-.018.042c1.412 1.824 4.627 1.293 5.74-.673 1.31-.564 1.831-1.83 1.831-1.83s.181-2.439.031-4.953c0 0 1.016-.25 6.722-1.143-.171.578-.327 1.675-.303 2.055 1.035.62 2.726.603 4.223-.961.144.674.356 1.335.625 1.958 2.946-.435 4.777-2.025 5.388-4.591 2.942 3.063 6.93 5.302 10.112 7.359-6.93-.474-18.725 3.408-18.725 3.408s.843 2.486 4.064 1.684c-.664 3.27 2.382 10.173 3.506 12.285-8.152 1.847-7.99-7.92-7.99-7.92a4.03 4.03 0 00-1.715.08c-1.935-1.398-4.385-.294-4.98 1.446l.034.031c.419-.327 1.64-.74 2.688.145-.999 1.49-1.016 3.693.86 5.671-2.663-1.237-4.261-2.583-4.884-2.92a4.5 4.5 0 00-.75.445c-2.93-.426-4.803 2.048-4.085 3.916l.044.01c.183-.484 1.35-1.198 2.45-1.137-.115 2.003 1.628 4.011 5.784 3.95l.05.058c-1.844.736-3.418 1.59-4.464 2.518a4.406 4.406 0 00-.01 1.517c-1.866 2.013-.933 5.195 1.613 5.889l.034-.03c-.36-.649-.647-2.648.362-3.349 3.07 1.22 5.598-1.472 6.865-3.321-.298 1.694-.253 3.262-.043 4.1.386 1.55 1.451 2.715 2.683 2.853.063.988-.962 1.85-1.568 2.078l.007.043c2.089 1.144 4.603-.7 4.595-3.084a5.878 5.878 0 001.03-1.036c-1.31-2.246-1.66-3.939-1.742-4.885.538-1.404 2.124-2.232 5.537-2.842 2.671 2.685 5.65 1.728 6.286 1.483.16-.971-.242-2.036-1.644-2.61 1.63-.93 2.285-3.178 1.92-3.994-.544.02-1.979.155-3.207.935-.875-6.248.166-6.74 8.034-4.901-2.036 4.7-3.069 7.843-2.677 10.186-.08 4.195.14 6.85.14 6.85 2.345.834 3.521-1.328 2.892-2.864 2.345 1.45 5.806 2.837 10.85 4.212-.534.672-4.444 5.66-8.918 5.184-2.09-.477-4.138-4.063-4.138-4.063a3.68 3.68 0 00-.83.012c-2.444-1.217-4.812.389-4.88 2.28l.038.022c.266-.32 1.117-.675 2.084-.45-.585 1.15-.383 2.626 1.267 3.838-1.503-.15-2.961-.373-4.398-.48a3.377 3.377 0 00-.879.729c-3.589-.103-4.997 3.418-3.796 5.463l.052.003c.142-.71 1.324-2.476 3.07-2.002.748 2.221 3.834 3.712 9.686.254l.356.204c-1.463 1.341-2.895 2.974-3.627 4.543.062.562.2 1.07.397 1.518-1.255 2.733 1.003 5.41 3.621 5.037l.02-.04c-.52-.4-1.31-1.615-1.01-2.885v-.002c2.267.285 4.006-1.806 6.248-7.06.239 1.33.57 2.468.57 2.468.457 1.003 1.733 1.807 3.06 1.831-.133.893-.87 1.637-1.37 1.883l.012.045c2.334.997 4.388-1.518 4.194-3.62.596-.705.764-2.144.764-2.144-2.065-2.116-1.992-3.766-1.992-3.766s1.857-3.79 5.72-7.531c4.111.823 8.709-.853 9.368-2.772-.938-1.212-3.026-1.802-5.032-1.517 2.676-2.444 1.754-6.636.37-7.39-2.357.26-5.063 3.011-5.513 5.985l-6.83-6.024c3.545-2.138 7.474-5.396 9.426-9.45 2.312 2.612 5.621 4.424 9.4 4.424 6.349 0 11.494-5.68 11.494-12.685 0-3.854-2.174-7.76-4.935-11.761 4.623-6.46 10.411-13.786 10.411-22.049 0-3.527-.921-5.959-1.662-7.704zm-45.856-2.098c-1.489-.129-4.747-.02-8.615.4.094-.308.486-1.531 1.054-2.675 2.306-.553 5.277-1.483 5.277-1.483 1.324.746 2.462 2.88 2.284 3.758zm-2.095-8.516c-.858-.821-1.705-.996-1.705-.996.268-.524.714-.882.714-.882s1.505-.324 4.845.641l-3.854 1.237zm40.25 52.128c0 3.063-1.293 5.737-3.339 7.297-2.047-1.559-3.344-4.232-3.344-7.297 0-2.633 1.407-5.466 3.389-8.505 1.924 3.039 3.293 5.872 3.293 8.505z" id="Fill-440" fill="#FFF"/><path d="M94.239 150.784s.05 1.454.31 2.778c-2.24 5.255-3.98 7.345-6.247 7.06.051-.223.133-.447.26-.67.14-.245.166-.805-.04-1.093 2.029-1.004 4.666-5.532 5.717-8.075zm3.632-19.776l8.744 7.713c-.028-1.78.377-5.285 3.599-7.673 1.384.754 2.306 4.946-.37 7.39 2.006-.285 4.094.304 5.032 1.517-.66 1.92-5.256 3.596-9.369 2.772-3.862 3.74-5.72 7.53-5.72 7.53v.04c.005.265.115 1.804 1.993 3.727 0 0-.168 1.439-.764 2.144 0 0-.03-.184-.105-.416-.153-.477-1.136-1.007-1.87-.53l.006-.04.006-.07c.005-.061.01-.145.012-.253v-.18c-.013-.882-.235-2.804-1.63-5.472 2.744-.857 5.97-5.942 6.85-8.363-4.116-1.552-12.186-5.161-10.841-7.626 1.849-.735 4.427-2.21 4.427-2.21zm-7.91 19.984l.23.353c-.42.336-.855.71-1.287 1.106l-.359-.205c-5.852 3.457-8.935 1.966-9.684-.252.665.222 1.038-.157 1.322-.7 1.383.927 5.522 1.235 9.778-.302zm-6.418-6.551c.643 1.758 3.305 3.352 6.516 3.79-1.83.287-3.565.215-5.244.048-1.65-1.211-1.857-2.688-1.272-3.838zm5.317-32.128c2.208 1.73 3.416 3.461 2.436 5.607a313.731 313.731 0 00-2.317 5.151c-7.866-1.837-8.905-1.345-8.03 4.902.112.737.294 1.49.294 1.49 1.13-1.574 2.404-2.407 2.91-2.424.368.814-.287 3.063-1.917 3.993 1.402.574 1.802 1.64 1.643 2.611-.636.245-3.615 1.202-6.287-1.484-3.412.61-5 1.438-5.536 2.841.08.948.432 2.64 1.742 4.885l-.045.06c-.118.15-.465.567-.985.978.007 2.383-2.507 4.228-4.595 3.084l-.007-.044c.607-.227 1.63-1.089 1.567-2.079-1.232-.138-2.295-1.302-2.683-2.852-.209-.839-.255-2.407.044-4.1-1.268 1.848-3.795 4.54-6.865 3.32 0 0 .06-.051.192-.111.792-.365-.045-2.224-.909-2.798a2.41 2.41 0 01.262-.492c.87-.98 2.745-2.222 4.269-2.943 0 0-.617-.182-1.35-.201l-.05-.056c-1.283.018-2.336-.162-3.176-.476-1.878-1.113-1.866-3.727-.661-5.29 2.2 1.527 4.968 2.388 7.25 2.749-2.976-2.452-2.33-7.833 1.14-8.62v.102c.007.686.154 4.645 2.628 6.937 1.557 1.793 3.567 2.98 7.538 2.699-5.728-12.173-2.11-13.845 2.536-13.985l.285-.007.294-.003h.483l.323.004.486.01.822.02.542.012c.207.005.412.008.614.009h.401c2.784-.019 5.006-.483 4.712-3.499zm-2.555 20.945c.273 1.632 1.237 2.875 3.032 3.986.629 1.536-.546 3.698-2.893 2.863 0 0-.218-2.654-.139-6.85zm22.228-16.54c1.269 4.164 5.252 7.927 10.166 7.927 2.634 0 5.016-1.188 6.73-3.104-2.107 2.717-5.236 4.442-8.732 4.442-3.78 0-7.088-1.812-9.4-4.423.727-1.51 1.18-3.13 1.236-4.843zm11.195-13.824c.11.147.845 1.226 1.28 1.9-1.98 3.038-3.387 5.87-3.387 8.504 0 3.064 1.296 5.736 3.343 7.295a6.966 6.966 0 01-4.065 1.44 12.968 12.968 0 01-2.485-4.427c-.19-.812-.29-1.724-.29-2.803 0-4.509 2.801-8.374 5.604-11.909zm-52.11 11.071c1.161.968 3.755.518 4.818.27-.175.2-.329.407-.46.619a2.455 2.455 0 00-.3.832l.006-.037c-3.22.8-4.064-1.684-4.064-1.684zm33.866-55.356l-.003.032a16.131 16.131 0 01-.61 2.888 4.837 4.837 0 011.259 4.523c.034.023.07.04.103.064a5.11 5.11 0 011.624 6.63 5.252 5.252 0 01.03 7.008 5.215 5.215 0 01-1.492 6.816 4.98 4.98 0 01-2.877 6.082c-2.365 9.407 2.008 15.691 8.5 20.293-3.743-2.171-18.538-10.882-17.832-15.792 1.846.205 5.395-.774 5.47-3.299-3.652.396-8.546-.39-14.27-2.928 8.953 2.52 17.327 1.454 17.42-2.76-2.232.496-5.025.509-8.243-.122 5.974.234 11.113-2.18 10.748-6.193a12.154 12.154 0 01-5.304 1.408c4.002-.797 7.59-4.254 6.372-7.938-.772.896-1.762 1.78-2.998 2.617 3.197-3.56 3.7-7.626 2.164-9.204-.666 1.86-1.525 3.275-1.525 3.275s1.617-5.058-.197-7.965c-1.156.615-2.934.684-4.12.11 3.817-.202 5.54-4.842 5.757-5.474l.021-.063zm-33.478 43.137c-.803.738-1.381 1.779-1.707 2.99-5.69.89-6.722 1.144-6.722 1.144.145 3.433-.031 4.95-.031 4.95s-.523 1.269-1.83 1.832l.1-.196c.096-.2.17-.415.22-.641.118-.555-.11-1.717-1.638-1.79 0 0 .843-1.626 1.767-6.787 0 0 1.414.098 2.618 1.16 2.733-1.643 7.223-2.662 7.223-2.662zm14.429 2.552s-3.048.637-5.384-.294a21.516 21.516 0 01-.82-.807c-.61 2.566-2.442 4.156-5.388 4.59 0 0 3.22-1.592 4.185-7.657 4.94-.394 6.664 2.132 7.407 4.168zm-27.13-.81c-.235.44-.64 1.426-.64 1.426l-.052-.017c-3.946 3.597-6.99 3.315-8.345 1.68.09-.06.185-.109.286-.143.347-.116 1.003-.433 1.003-1.345 1.801.838 5.414-.244 7.748-1.602zm14.771-.656c-.13.978-.068 2.004.142 2.997-1.499 1.568-3.187 1.582-4.224.962 0 0 2.078-.892 4.082-3.96zm47.24-3.456c.364.519.726 1.032 1.081 1.54-2.173-2.354-5.219-.782-5.516 1.937-2.064-3.465 2.12-6.497 4.435-3.477zm12.691-7.851c-1.997 3.546-4.511 6.882-6.753 10.014a90.77 90.77 0 00-.774-1.108c2.49-2.862 5.31-5.85 7.527-8.906zm-83.61 2.901c.027.762.473 4.078 6.038 6.9-.438.042-1.283.138-1.601.175l-.12-.186c-4.278-.022-5.699-2.654-5.303-4.854a4.116 4.116 0 01.986-2.035zm6.723-2.914c-.453 2.274 1.468 6.384 3 7.849-1.407-.442-2.489-.92-3.303-1.425l.125-.16c-2.38-2.644-1.48-5.04.178-6.264zm61.459 4.691l-.232-.046c-1.072-.183-1.996.114-2.655.694-6.095-.295-7.037-3.329-7.037-3.329 3.705-.283 7.231.943 9.924 2.681zm10.42-3.684c-.146.226-.294.451-.442.676 1.262-3.273-1.74-5.292-4.325-4.13 1.961-3.37 7.216-.805 4.766 3.454zM53.56 59.289l.06.01c1.099 2.899 1.592 5.599 3.262 8.458l.023-.01c-1.154-6.297 3.685-8.518 5.424-6.35-1.64 3.867-4.452 7.171-2.528 10.134 1.217 1.861 1.86 3.519 1.556 5.707 2.347-.798 13.806 5.637 13.806 5.637-.509.428-1.109.97-1.699 1.596l.157.566c5.76-3.268 12.913-.94 16.884-1.11-5.744 1.065-15.192-1.386-19.863 5.306l.152.472c2.508-.935 5.472-.555 7.406.23-4.404-.695-7.246 1.098-9.56 2.773a63.615 63.615 0 01-2.633-2.862c-2.019-2.085-2.426.898-4.928 2.382-.693-.995-.748-3.47.867-4.725-2.443-.267-3.4-1.712-3.44-3.18.356-.221 1.141-.726 2.289-.951a140.2 140.2 0 01-2.104-2.97l-.372-.54c-.806-1.169-1.59-2.334-1.999-3l-.09.252-.185.509c-.4 1.1-.8 2.158-1.008 2.616 0 0-.431.226-1.125.317-1.39 1.065-3.062 1.2-4.256.65 1.555.446 3.237-1.118 3.784-2.495-.195-.42-1.165-.719-1.626-.528-.677-1.156 1.08-3.677 2.102-4.982-.463.06-.97.114-1.518.144-4.28.238-5.847-1.097-6.415-2.863.173 0 .346.024.516.08.787.258 1.507-1.39 1.437-2.51 0 0 3.245 1.143 6.58 1.295l-.023-.093s-.54-.714-1.655-1.318c-3.738-4.134-1.622-8.069.722-8.647zm73.729 29.308l-.307.54.222-.43c1.488-2.94 2.48-5.999 2.48-9.218 0-7.122-5.873-14.556-13.053-10.27 5.053-8.108 20.671 1.336 10.658 19.378zm-8.497-4.94c-2.645-2.23-6.957-.341-4.227 5.15-.129-.238-.618-1.052-1.131-2.53-1.985-5.976 4.374-6.476 5.358-2.62zm5.088-5.955c-2.354-2.301-7.4-1.906-10.117 1.312a3.883 3.883 0 00-1.649 1.224l.054-.28c1.49-7.194 10.29-7.225 11.712-2.256zm-10.039-9.486l.028.026c.229.225 1.86 1.985.174 5.052-1.41.953-2.577 2.487-3.146 4.683-.079-4.648 1.899-8.463 2.944-9.76zm-24.286-.876c5.04 4.754 3.02 7.047-.14 8.526l-.287.13a22.42 22.42 0 01-1.186.483l-.302.112c-.151.056-.303.11-.454.164l-.301.106-.743.256c.676-1.48-1.894-4.055-6.823-1.346l-.073.037.325-.187c6.366-3.593 8.95-1.837 9.589-1.007 0 0 1.262-1.703-.538-3.008 1.798-.888 1.56-2.799.933-4.266zm-10.967.07a19.2 19.2 0 00-1.054 2.676c3.868-.421 7.126-.529 8.615-.4l-.022.084a.406.406 0 01-.34.293c-.923.14-3.26.482-6.044 1.594-1.133-.447-1.978-1.22-2.136-1.37l-.027-.026a.581.581 0 00-.144.029c-.227 1.235-.171 2.523-.171 2.523-8.49 4.26-10.429-.796-9.983-3.662-.077 1.907 1.598 2.159 5.95 1.507a91.064 91.064 0 014.103-.55c-.325-.303-.945-1.247-1.33-2.342.275.134 1.331-.055 2.583-.355zm11.674-3.671c.943.806 3.283 4.181 4.134 6.088-3.647-3.413-6.08-5.381-6.08-5.381 1.02-.38 1.946-.707 1.946-.707zm37.721.202c1.169-2.605 5.748-2.987 7.149-.518-1.324-1.533-5.256-1.067-6.346 2.39a17.992 17.992 0 00-.81-1.886zm-8.641-6.702c2.159 3.4 3.8 5.626 5.804 7.413a8.102 8.102 0 00-3.416-.748c-1.865-2.56-2.478-5.235-2.388-6.665zm-45.563 5.475c.578.873 3.377.241 3.835.098l.046.099c-.226.19-2.147 1.468-2.941 1.317-.731-.139-.937-1.244-.94-1.514zm26.415-3.506a84.443 84.443 0 01-4.855 2.464c-.73-2.715 3.353-2.815 4.855-2.464zm-9.071-9.988l.024.008c.243.09 2.22.895 1.369 3.104.179-.034.366-.046.56-.033 1.03.072 1.816.84 1.756 1.718-.045.652-.548 1.181-1.228 1.38-.342-.191-.902-.248-1.176-.006.366.407 1.02.814 1.802.968 1.279.266 2.717-.062 3.053-.494-.174-.26-.623-.364-1-.316-.283-.287-.445-.652-.419-1.04.058-.827.94-1.439 1.97-1.368.144.01.282.033.414.068.279-2.237 2.963-1.514 2.963-1.514l-2.62 5.97c-1.547-.305-3.4-.321-4.723.773 0 0-3.24-.871-7.405-.932v-.091c2.03-.41 5.95-2.76 4.66-8.195z" id="Combined-Shape" fill="#FFF"/></g></g></svg>