<svg width="557" height="317" viewBox="0 0 557 317" xmlns="http://www.w3.org/2000/svg"><g id="Soutěže-rozcestník" stroke="none" stroke-width="1" fill="none" fill-rule="evenodd"><g transform="translate(.318 .791)" fill-rule="nonzero" id="mapa_cesko_velka"><g id="ulk" transform="translate(73.56)"><path d="M109.757 0l2.337.765.157.143.32.52.104.15.56.73c.145.187.324.343.53.459l.898.505c.262.148.557.225.858.225h.898l.181-.01a1.75 1.75 0 00.523-.138l1.917-.843 2.613.146h.19c.253-.013.5-.082.726-.2l.317-.169.036.052.785 1.067c.108.147.237.275.384.381l1.01.73.14.091c.143.085.299.148.46.189l1.886.471.564.439.806.986.404.661.161.745-.125 1.507-.482 1.23-.958 1.76a1.75 1.75 0 00-.15.372l-.45 1.629a1.75 1.75 0 00.624 1.854l.954.73.127.09a1.75 1.75 0 001.607.137l3.367-1.398-.146.567-1.351 3.194-.057.154a1.75 1.75 0 00-.07.321l-.267 2.249-.173.692-.047.066-1.917.175a1.75 1.75 0 00-.962.399l-.337.28a1.75 1.75 0 00-.364.418l-.28.449a1.75 1.75 0 00-.214.503l-.168.674-.029.138-.01.07-.166 1.967-.142.602-.279.525-.263.351-3.839-3.993a1.75 1.75 0 00-.537-.38l-.617-.28a1.75 1.75 0 00-1.15-.105l-.448.112a1.75 1.75 0 00-1.191 1.025l-.28.674-.046.12a1.75 1.75 0 00-.062.248l-.854 4.823-.647.614a1.75 1.75 0 00-.311.394l-.617 1.067a1.75 1.75 0 00-.183.452l-.169.674-.028.14a1.75 1.75 0 00-.024.284v1.174l-.029.146-1.628 1.58a1.75 1.75 0 00-.182.207l-.336.449-.09.133a1.75 1.75 0 00-.143.287l-1.304 3.383-.678.42a1.75 1.75 0 00-.396.336l-.392.45a1.75 1.75 0 00-.213.302l-.28.505a1.75 1.75 0 00-.187.507l-.112.561c-.04.2-.044.407-.013.609l.112.73c.013.089.034.177.061.262l4.657 14.715.058.157c.11.256.278.483.494.662l5.419 4.494.276 1.327-.057.075-.043.062-.6 1.019a1.75 1.75 0 00-.22.614l-.168 1.067-.016.136-.006.136v.689l-.088.836-.195.706-.029.057-.103.081-.569.332-.124.08-.06.044-2.316 1.937-.51.256-.057-.012-.943-.423a1.75 1.75 0 00-.43-.131l-.674-.112a1.75 1.75 0 00-1.526.489l-.28.28a1.75 1.75 0 00-.471.858l-.112.506a1.75 1.75 0 00.048.932l.168.505.415 1.387v.25l-.054 1.157.002.186c.007.124.028.247.062.367l.418 1.492-.15.207-.087.133a1.75 1.75 0 00-.138.288l-.482 1.301-.322.458-.08.046-.091.017-1.233-.095a1.75 1.75 0 00-.3.003l-2.357.224c-.1.01-.199.028-.295.054l-.617.169a1.75 1.75 0 00-.51.232l-.674.45-.158.118-1.561 1.317-.167.062-2.083-.781-.177-.056a1.75 1.75 0 00-.736-.03l-6.245 1.077-1.24-.166-1.734-.612-.213-.06-2.076-.45a1.75 1.75 0 00-.428-.039l-3.423.113a1.75 1.75 0 00-.41.063l-1.01.28-.206.071-.673.281a1.75 1.75 0 00-.827.715l-.337.562a1.75 1.75 0 00-.176.397l-.168.562a1.75 1.75 0 00-.067.351l-.112 1.292-.007.133c0 .089.005.177.018.265l.065.458-.078.333-.191.016-1.006-.05a1.75 1.75 0 00-.677.1l-.785.281a1.75 1.75 0 00-.34.164l-4.937 3.09-.126.086a1.75 1.75 0 00-.325.319l-.976 1.247-.303.341-.262.201-.139-.112a1.75 1.75 0 00-.42-.249l-.673-.28a1.75 1.75 0 00-.82-.13l-.673.057-.174.023a1.75 1.75 0 00-.494.172l-7.742 4.066-.903.243-.406-.19a1.75 1.75 0 00-.397-.13l-.561-.112a1.75 1.75 0 00-.344-.034h-.897c-.189 0-.376.03-.554.09l-.674.224a1.75 1.75 0 00-.438.219l-.898.617-.127.097-.06.053-.714.71-3.25 2.117-4.729 1.959a1.75 1.75 0 00-.218.109l-.954.561a1.75 1.75 0 00-.479.416l-.449.561-.104.145-1.122 1.74-.08.139a1.75 1.75 0 00-.067.144l-.695 1.688-.481.62-.74.523-.119.091-.056.05-1.969 1.967-.416.195-1.138.297a1.75 1.75 0 00-.408.164l-1.01.562-.13.08a1.75 1.75 0 00-.435.42l-.741 1.019-1.021.758-.335-.017-3.38-.808-.3-.162-.27-.27-.808-1.164-.114-.146-.73-.843a1.75 1.75 0 00-.16-.162l-1.01-.898-.15-.12-1.537-1.092.835-1.062a1.75 1.75 0 00.157-.237l.617-1.124a1.75 1.75 0 00.18-1.203l-.225-1.067a1.75 1.75 0 00-.088-.289l-.56-1.404-.071-.153a1.75 1.75 0 00-.084-.146l-1.683-2.608-.495-1.038-.109-.414.24-.752a1.75 1.75 0 00.076-.385l.056-.673a1.75 1.75 0 000-.29l-.113-1.349-.017-.142-.28-1.685-.146-1.322V98.4l.166-2.758v-.192l-.055-1.123-.12-1.21a1.75 1.75 0 00-.046-.263l-.449-1.74a1.75 1.75 0 00-.108-.303l-.393-.843a1.75 1.75 0 00-.29-.437l-.562-.618a1.75 1.75 0 00-.457-.359l-1.234-.674a1.75 1.75 0 00-.395-.157l-2.357-.618-.12-.027a1.75 1.75 0 00-.246-.028l-2.379-.107-1.539-.332-.528-.411-.375-.478-.48-.963a1.75 1.75 0 00-.132-.221l-.393-.562a1.75 1.75 0 00-.359-.378l-.505-.393-.13-.092a1.75 1.75 0 00-.747-.266l-5.093-.578-.944-.53L0 80.744l.419-.405.122-.132 1.178-1.404a1.75 1.75 0 00.373-.767l.505-2.415.027-.173.434-4.089.1.075c.134.09.279.161.432.212l.155.043.73.169.145.027.786.112c.123.018.248.022.372.013l.786-.056c.12-.008.24-.03.356-.063l.786-.224.12-.04 1.955-.716 4.009.258a1.75 1.75 0 001.163-.347l2.02-1.516a1.75 1.75 0 00.49-.57l1.179-2.191.05-.103.045-.107 2.286-6.041.789.56c.096.067.199.126.307.173l1.402.618a1.75 1.75 0 001.509-.047l1.74-.898.149-.087c.338-.22.591-.55.714-.937l.781-2.449.216-.359 2.799-2.037.107-.085.021-.019.764 1.274.1.15.505.673c.16.212.364.385.599.506l1.852.955a1.75 1.75 0 001.226.142l1.571-.393a1.75 1.75 0 00.761-.41l1.403-1.292.101-.101.048-.054 1.218-1.56.516-.275a1.75 1.75 0 00.53-.436l.506-.618a1.75 1.75 0 00.39-.983l.057-.786.004-.165a1.75 1.75 0 00-.038-.325l-.041-.15.314-.247a1.75 1.75 0 00.28-.28l1.122-1.403c.18-.224.3-.489.353-.77l.337-1.798.022-.158a1.75 1.75 0 00-.168-.928l-.263-.544 1.747-1.079 3.275-.636 7.289.055a1.75 1.75 0 00.38-.039l1.571-.336.126-.032.061-.02 2.984-1.119 1.377-.13 3.634.429c.2.023.402.012.599-.033l1.458-.337.178-.051a1.75 1.75 0 00.335-.157l2.083-1.262.122-.012a1.75 1.75 0 00.36-.08l.505-.168a1.75 1.75 0 00.871-.643l.561-.787a1.75 1.75 0 00.32-.871l.056-.674.005-.183a1.75 1.75 0 00-.046-.363l-.198-.842-.069-.688.14-.513.135.048c.276.099.573.126.863.08l1.066-.168a1.75 1.75 0 00.762-.318l.842-.617.13-.107a1.75 1.75 0 00.229-.247l1.086-1.434.389-.292.955-.198 2.74.356c.116.015.233.018.35.01l1.57-.112a1.75 1.75 0 00.609-.157l12.906-5.953a1.75 1.75 0 00.469-.317l1.01-.955.094-.097a1.75 1.75 0 00.166-.213l1.4-2.13.401-.376 2.244-.509 6.238.54a1.75 1.75 0 001.277-.405l2.47-2.078a1.75 1.75 0 00.607-1.104l.448-3.314a1.75 1.75 0 00-.873-1.759l-2.189-1.235-.108-.056a1.75 1.75 0 00-.226-.09l-2.633-.83-1.108-1.08.012-.008c.197-.178.352-.4.451-.649l.112-.28a1.75 1.75 0 00-.955-2.267l-1.627-.674-.14-.05a1.75 1.75 0 00-.287-.066l-1.406-.198 1.028-3.282 1.272-1.345L109.757 0z" id="id=map-ustecky" fill="#DDE1E6"/><path d="M55.418 66.409h-1.806v6.048c0 2.632 1.54 3.962 4.354 3.962 2.8 0 4.34-1.33 4.34-3.962v-6.048H60.5v5.978c0 1.694-.812 2.422-2.534 2.422-1.722 0-2.548-.728-2.548-2.422v-5.978zm10.724 0h-1.806v9.8h7.028v-1.61h-5.222v-8.19zm8.484 0H72.82v9.8h1.806v-2.702l1.568-1.68h.028l3.192 4.382h2.226l-4.228-5.572 4.116-4.228h-2.492l-4.382 4.634h-.028v-4.634z" id="Combined-Shape" fill="#FFF"/></g><g id="jmk" transform="translate(286.995 182.654)"><path d="M86.536 0l.276.069.839.42c.168.084.349.14.535.167l.786.113.13.013c.086.006.173.006.26-.002L91.97.567l1.693.137 1.643.611 2.463 1.233-.596-.153a1.75 1.75 0 00-1.032.051l-.617.225a1.75 1.75 0 00-1.001.934l-.224.506a1.75 1.75 0 00-.13.976l.111.73c.014.087.034.172.06.256l.28.898c.04.128.094.25.162.365l1.122 1.91.08.124c.057.08.121.156.191.226l2.552 2.554c-.19.202-.33.44-.41.705l-.168.562a1.75 1.75 0 00-.067.647l.056.674c.008.094.023.188.046.28l.225.898.063.201 1.953 5.106.063.413v.381l-.05.277-.134.322-.226.323-.431.48-.133.168-.393.562a1.75 1.75 0 00-.309 1.16l.057.619c.026.29.124.569.286.811l.449.674c.105.158.234.297.384.413l4.489 3.482a1.75 1.75 0 001.072.367h.674c.237 0 .471-.048.69-.141l.785-.337a1.75 1.75 0 00.378-.222l.73-.562a1.75 1.75 0 00.264-.252l1.29-1.516.125-.164 1.01-1.517c.086-.13.154-.27.204-.417l.224-.674a1.75 1.75 0 00.085-.428l.056-.787a1.75 1.75 0 000-.24l-.055-.843a1.75 1.75 0 00-.064-.364l-.224-.786-.042-.127-.56-1.517-.064-.15a1.75 1.75 0 00-.077-.142l-1.345-2.244-.079-.475.075-1.017.025-.056.199.014 2.715 1.124.155.138.799 1.289.659 1.6.473 2.785c.022.13.058.258.11.38l.28.674c.043.104.096.204.159.297l.449.674.07.098c.048.063.1.122.158.178l3.608 3.559.257.515.039.236-.103 2.284c-.01.214.02.428.088.632l.224.674c.067.202.17.39.306.555l.505.617c.132.162.292.299.472.404l1.347.786.117.063c.08.039.163.072.248.098l2.686.83 1.25 1.21 1.38 2.073.846 1.928.068.543v.444l-.103.515-.012.03-1.29 2.315a1.75 1.75 0 00-.188.509l-.169.842a1.75 1.75 0 00-.031.435l.056 1.067c.007.137.03.273.07.404l.729 2.471c.026.088.058.174.098.256l1.122 2.36c.042.088.092.173.149.254l1.066 1.516.09.118c.128.152.28.282.452.383l1.995 1.177.008.008.073.132.113.368.018.235-.012.042-.607.415-2.043.767a1.75 1.75 0 00-.623.402l-.393.393-.106.117a1.75 1.75 0 00-.096.126l-2.009 2.908-1.123.978a1.75 1.75 0 00-.567.977l-.112.562a1.75 1.75 0 00.028.803l.168.618c.063.23.172.445.321.632l.45.562c.076.096.163.183.258.261l.617.506c.12.099.254.181.397.245l1.515.674c.224.1.467.15.712.15h1.459l.146-.006a1.75 1.75 0 00.428-.09l3.051-1.061-.21 3.688c-.01.177.006.353.049.524l.168.674c.049.195.13.38.242.546l.336.506c.086.128.188.245.304.346l.449.393c.127.111.269.204.422.274l3.423 1.572.121.05c.082.031.166.055.252.073l4.61.964.265.912.263 1.68.03.147c.13.533.505.978 1.016 1.194l2.687 1.137 1.118.912.752 1.129c.128.192.293.357.485.485l.505.337c.243.162.522.261.813.287l.617.057c.149.013.299.008.446-.017l.674-.112.146-.031a1.75 1.75 0 00.414-.164l2.125-1.178 1.615.225 1.374.567.247.441.342.897.196 1.174c.028.172.082.338.16.494l.28.562c.118.234.285.438.491.599l.505.393.137.096c.14.09.294.158.454.205l4.2 1.208.367.262.394.46.361.722.714 2.043.28 1.299-7.329 2.879-1.964-.291-2.107-2.25a1.75 1.75 0 00-.553-.396l-1.234-.562a1.75 1.75 0 00-1.206-.09l-1.964.562-.169.058c-.11.044-.216.1-.315.165l-2.853 1.885-.521.1-8.89-4.554a1.75 1.75 0 00-.346-.133l-3.984-1.067a1.75 1.75 0 00-.84-.016l-3.704.842a1.75 1.75 0 00-.648.297l-4.433 3.257a1.75 1.75 0 00-.398.407l-.786 1.123-.08.127c-.1.172-.17.36-.206.557l-.367 1.975-.865 1.06-2.693 2.374a1.75 1.75 0 00-.347.417l-2.076 3.482-.058.106a1.75 1.75 0 00-.094.223l-4.105 11.989-.792 1.447-1.009 1.179-.26-.306-1.107-7.81a1.75 1.75 0 00-.309-.77l-1.963-2.753a1.75 1.75 0 00-1.28-.727l-1.346-.112-.184-.006a1.75 1.75 0 00-.541.098l-3.038 1.066-.961.137-.908-.337-2.857-1.906a1.75 1.75 0 00-.373-.189l-1.234-.449-.169-.052a1.75 1.75 0 00-.523-.05l-2.95.157-.746-.124-.331-.245-.355-.872-.249-1.595a1.75 1.75 0 00-.13-.44l-.673-1.517a1.75 1.75 0 00-.959-.918l-1.57-.618-.146-.05a1.75 1.75 0 00-.302-.06l-1.367-.153-4.603-1.346-1.191-.763a1.75 1.75 0 00-.315-.16l-.73-.28a1.75 1.75 0 00-.876-.1l-.786.112-.14.026a1.75 1.75 0 00-.273.086l-1.252.511-.379.025-2.174-.31a1.75 1.75 0 00-1.206.267l-1.459.955-.132.096a1.75 1.75 0 00-.423.49l-4.079 7.021-.413.388-.216.066-.618-.521-.135-.103a1.75 1.75 0 00-1.272-.287l-1.681.271-11.192-1.678-.124-.014a1.75 1.75 0 00-.25-.001l-7.207.477-3.809-1.662-7.601-5.565.001-.49a1.75 1.75 0 00-.383-1.093l-.449-.561-.102-.118a1.75 1.75 0 00-1.064-.528l-.102-.008-.053-.102a1.75 1.75 0 00-.327-.4l-.617-.563-.132-.108a1.75 1.75 0 00-.446-.24l-.134-.043-.042-.087a1.726 1.726 0 00-1.68-.927l-.281.022-.033-.015-.746-.56-.139-.094a1.75 1.75 0 00-.787-.252l-1.094-.079-.24-1.082a1.75 1.75 0 00-.556-.937l-.449-.393a1.75 1.75 0 00-1.153-.434h-2.525a1.75 1.75 0 00-.515.078l-.73.224-.142.05a1.75 1.75 0 00-.137.064l-2.857 1.456-.953.318h-1.418L9.9 95.11l-6.18-3.472-.103-.054-.107-.046L0 90.14l.095-.219.042-.109.019-.055.27-.973 1.254-3.11.052-.145.347-1.143 1.318 2.12c.185.297.455.532.775.675l.505.224c.29.13.612.178.928.138l.45-.056a1.75 1.75 0 00.935-.42l.449-.393a1.75 1.75 0 00.277-.308l.673-.955.074-.114a1.75 1.75 0 00.121-.245l.119-.3.325-.383.445-.357 2.177 1.883c.173.15.374.264.59.336l.506.168c.24.08.495.108.747.08l.505-.056.156-.025a1.75 1.75 0 00.827-.419l5.805-5.268 1.627-.755 2.387.235c.329.032.66-.03.954-.177l.561-.28c.26-.13.484-.324.651-.563l.393-.561.086-.135c.079-.14.139-.288.178-.444l.383-1.536.059.02.15.043a1.75 1.75 0 001.776-.617l1.32-1.671.415.535c.068.088.145.17.228.243l.45.393c.197.173.43.3.684.37l1.01.28c.178.05.363.071.548.063l2.469-.112c.218-.01.432-.061.631-.15l.505-.224.125-.062a1.75 1.75 0 00.232-.15l1.044-.805 5.175.863c.282.047.571.024.842-.066l.842-.28c.207-.07.4-.177.567-.317l.673-.562.122-.111a1.75 1.75 0 00.209-.255l1.551-2.304 5.453-1.784a1.75 1.75 0 00.81-.554l1.795-2.19a1.75 1.75 0 00.252-.412l.561-1.292.071-.195.169-.562a1.75 1.75 0 00.073-.502v-.618c0-.17-.025-.34-.073-.502l-.169-.562-.059-.166-.576-1.391-.054-.544.038-.14.167-.334 1.046-1.245a1.75 1.75 0 00.172-.244l.392-.674a1.75 1.75 0 00.186-.457l.169-.674a1.75 1.75 0 00.052-.424v-.618c0-.17-.025-.34-.074-.502l-.168-.562a1.75 1.75 0 00-.276-.547l-.337-.45a1.75 1.75 0 00-.26-.278l-.393-.337-.103-.081a1.75 1.75 0 00-.221-.139l-.644-.339-.029-.107-.067-.436.087-1.226.309-1.237.047-.093 1.43-.581a1.75 1.75 0 00.709-.529l.224-.28a1.75 1.75 0 00.316-.613l.112-.393a1.75 1.75 0 00.015-.904l-.224-.899-.04-.134a1.75 1.75 0 00-.11-.256l-.447-.851-.125-.591.032-.438.114-.613.216-.502.669-1.116.769-.769 7.06-4.327a1.75 1.75 0 00.622-.655l.337-.618c.12-.22.191-.463.209-.712l.056-.787a1.75 1.75 0 00-.009-.341l-.112-.899-.026-.152a1.75 1.75 0 00-.04-.15l-1.484-4.787-.127-.673-.219-5.714-.01-.129a1.75 1.75 0 00-.048-.254l-.26-.977 1.52-.276a1.75 1.75 0 001.016-.584l.337-.393a1.75 1.75 0 00.315-.54l.225-.619.06-.204.168-.73a1.75 1.75 0 00.04-.269l.057-.786a1.75 1.75 0 00-.013-.372l-.112-.786-.028-.146-.168-.73a1.75 1.75 0 00-.112-.33l-.28-.618-.074-.145a1.75 1.75 0 00-.297-.384l-1.942-1.9.89-2.276.06-.183.386-1.436.36.03c.105.009.21.008.315-.002l9.82-.955a1.75 1.75 0 00.961-.406l.73-.618a1.75 1.75 0 00.399-.486l.28-.506a1.75 1.75 0 00.205-.618l.112-.842.046-.447h3.672z" id="id=map-jihomoravsky" fill="#DDE1E6"/><path d="M80.266 63.755H78.46v5.95c0 1.582-.672 2.45-1.89 2.45-1.246 0-1.862-.616-2.044-2.086l-1.736.238c.21 2.24 1.526 3.458 3.78 3.458 2.212 0 3.696-1.484 3.696-3.878v-6.132zm4.214 0h-2.184v9.8h1.806v-7.042h.028l3.668 7.042h.728l3.668-7.042h.028v7.042h1.806v-9.8h-2.184l-3.668 7.21h-.028l-3.668-7.21zm13.454 0h-1.806v9.8h1.806v-2.702l1.568-1.68h.028l3.192 4.382h2.226l-4.228-5.572 4.116-4.228h-2.492l-4.382 4.634h-.028v-4.634z" fill="#FFF"/></g><g id="zlk" transform="translate(416.522 196.32)"><path d="M65.258 0l1.644.025.272 1.313c.035.17.095.332.177.483l.337.618c.08.147.18.281.299.4l.448.449c.102.101.215.19.337.263l.562.337c.194.117.41.195.634.23l.73.112.146.016c.098.007.196.005.294-.004l12.456-1.248.189.081 2.311 1.683c.16.116.338.204.527.26l.561.17.17.041c.115.022.232.033.35.032l5.98-.054.662.229 1.633 3.48c.074.158.171.304.289.433l.56.618.11.11c.075.069.156.132.242.187l1.168.748.241.294.205.352.146.549.662 3.584c.02.106.049.21.087.31l.28.73c.052.133.119.26.2.376l.393.561c.106.152.235.286.383.397l.45.337.107.075c.074.047.152.089.232.124l.305.136-.079 2.116-4.158 3.319L86.885 28.5a1.75 1.75 0 00-.591.38l-2.413 2.36a1.71 1.71 0 00-.264.329l-2.02 3.257a1.75 1.75 0 00-.14.277l-1.514 3.819a1.75 1.75 0 00-.07.216l-1.066 4.212a1.75 1.75 0 00-.048.284l-.28 3.37-.006.175.109 6.267-.465 2.275-1.465 2.458-2.023 1.93-2.068.93-3.99-.303a1.75 1.75 0 00-.42.02l-2.02.336a1.75 1.75 0 00-.661.256l-1.74 1.123a1.75 1.75 0 00-.624.705l-1.066 2.19a1.75 1.75 0 00-.102.259l-.56 1.853-.032.117-.023.119-.588 3.743-.467 1.209-.78.751-.741.053-1.597-.25a1.75 1.75 0 00-.558.003l-2.02.337a1.75 1.75 0 00-.833.382l-1.347 1.124-.113.103a1.75 1.75 0 00-.28.364l-2.701 4.662-1.001.809-4.564 1.827-.18-.837-.06-.209-.785-2.247-.086-.204-.505-1.01a1.75 1.75 0 00-.237-.357l-.673-.786a1.75 1.75 0 00-.311-.286l-.786-.561-.125-.082a1.75 1.75 0 00-.409-.176l-4.087-1.177-.17-1.023a1.75 1.75 0 00-.09-.336l-.45-1.179a1.75 1.75 0 00-.11-.235l-.504-.898a1.75 1.75 0 00-.405-.487l-.336-.28a1.75 1.75 0 00-.455-.275l-1.907-.786a1.75 1.75 0 00-.425-.115l-2.413-.337-.161-.015a1.75 1.75 0 00-.929.217l-2.374 1.314-.035.006-.617-.928a1.75 1.75 0 00-.35-.386l-1.516-1.235-.133-.099a1.75 1.75 0 00-.29-.157l-2.022-.856-.13-.835a1.75 1.75 0 00-.049-.22l-.393-1.347a1.75 1.75 0 00-.223-.48l-.337-.506a1.75 1.75 0 00-.439-.454l-.393-.28-.153-.098a1.75 1.75 0 00-.506-.192l-4.914-1.028-3.011-1.383-.084-.073-.04-.06-.031-.122.21-3.665v-.216l-.057-.842a1.75 1.75 0 00-.101-.482l-.225-.617a1.75 1.75 0 00-.594-.802l-.449-.337a1.75 1.75 0 00-.892-.343l-.617-.057-.186-.007a1.75 1.75 0 00-.547.097l-3.762 1.307h-.791l-.96-.427L0 53.239l.514-.445.106-.1c.068-.07.13-.146.185-.226l2.041-2.958.014-.015 1.89-.708a1.75 1.75 0 00.373-.194l1.066-.73a1.75 1.75 0 00.468-.474l.337-.505a1.75 1.75 0 00.232-.51l.168-.618a1.75 1.75 0 00.056-.594l-.056-.73a1.75 1.75 0 00-.072-.38l-.224-.73a1.75 1.75 0 00-.143-.336l-.28-.505a1.75 1.75 0 00-.293-.388l-.336-.337-.109-.1a1.75 1.75 0 00-.24-.17l-1.863-1.1L3.07 39.3l-1-2.102-.632-2.139-.034-.643.071-.358.182-.327.144.05.393.112c.388.11.801.084 1.171-.075l.393-.168a1.75 1.75 0 00.64-.47l.336-.393a1.75 1.75 0 00.316-.541l.224-.618.048-.153a1.75 1.75 0 00.034-.157l.365-2.199 4.806-.1.519.048a1.75 1.75 0 001.13-.287l.336-.225.116-.084a1.75 1.75 0 00.3-.305l1.04-1.355 2.77-2.662.132-.142.28-.337a1.75 1.75 0 00.243-.383l.73-1.573.062-.154a1.75 1.75 0 00-.291-1.685l-.52-.64-.478-1.516.09-1.756.061-.324.165.023.831.326 1.857 1.557c.087.073.182.138.282.193l1.74.955.137.067c.14.062.287.105.438.128l.486.075 3.313 1.526c.124.057.255.1.389.127l.841.168c.3.06.609.04.898-.056l.505-.168a1.75 1.75 0 00.609-.353l.505-.45a1.75 1.75 0 00.328-.39l.448-.73.087-.158.6-1.249.413-.414.769-.446 1.255-.531.259-.071 5.642.108.192-.007.618-.057a1.75 1.75 0 00.552-.143l.505-.225a1.75 1.75 0 00.625-.47l.618-.73a1.75 1.75 0 00.34-.627l.168-.561a1.75 1.75 0 00.074-.503v-.561a1.75 1.75 0 00-.04-.367l-.167-.786-.029-.113a1.75 1.75 0 00-.078-.218l-.207-.477.4-.048.968.044 7.16 1.434c.35.07.715.031 1.043-.112l2.188-.955.133-.065a1.75 1.75 0 00.895-1.815L55.6 7.247v-.938l.114-.628.07-.083.796-.46a1.75 1.75 0 00.499-.434l.617-.786.083-.115a1.75 1.75 0 00.189-.378l.414-1.162.38.434c.167.192.374.344.606.447l.505.225c.164.073.339.12.518.14l1.01.113c.2.022.403.01.599-.037l1.178-.281a1.75 1.75 0 001.229-1.076L65.258 0z" id="id=map-zlinsky" fill="#DDE1E6"/><path d="M46.407 33.09h-8.596v1.596h6.146v.028l-6.356 6.748v1.428h8.638v-1.61h-6.202v-.028l6.37-6.734V33.09zm3.388 0H47.99v9.8h7.028v-1.61h-5.222v-8.19zm8.484 0h-1.806v9.8h1.806v-2.702l1.568-1.68h.028l3.192 4.382h2.226l-4.228-5.572 4.116-4.228H62.69l-4.382 4.634h-.028V33.09z" id="Combined-Shape" fill="#FFF"/></g><g id="olk" transform="translate(384.54 79.56)"><path d="M12.482 0l.924.136 3.232 1.952.146.08c.299.142.633.199.964.16l1.56-.184 7.995 2.263.567.319 1.78 1.52a1.8 1.8 0 00.32.217l1.066.561c.226.12.476.188.732.2l1.179.056h.155a1.75 1.75 0 00.308-.04l1.402-.312.093.464.04.159.505 1.685c.022.073.049.145.08.215l.505 1.123c.07.158.165.304.279.434l.785.9c.11.125.238.235.38.324l2.917 1.854c.142.09.296.159.457.205l1.964.562.175.04c.118.021.237.03.357.027l2.354-.069.03.107c.03.09.069.179.115.266l.505.955.074.128c.08.124.176.238.285.339l.115.105-.056.852a1.75 1.75 0 00.005.29l.168 1.685c.018.18.064.357.136.523l.561 1.292c.121.278.312.52.555.703l1.122.842.118.082a1.751 1.751 0 002.446-.602l.025-.048.724 4.323-.035.198-.135.404-.209.383-.276.379-.051.046-.579-.358a1.75 1.75 0 00-.728-.252l-.505-.056a1.75 1.75 0 00-.808.101l-.45.168a1.75 1.75 0 00-.537.322l-.45.394-.107.102a1.75 1.75 0 00-.187.23l-1.677 2.468-6.32 3.562a1.75 1.75 0 00-.461.377l-1.123 1.292a1.75 1.75 0 00-.244.366l-.393.786a1.75 1.75 0 00-.105.26l-.28.899-.034.122a1.75 1.75 0 00-.04.25l-.156 1.823-.068.275-.695 1.112a1.75 1.75 0 00-.115.217l-.224.505a1.75 1.75 0 00-.142.537l-.056.561-.009.15c-.002.151.016.302.052.448l.902 3.611v.307l-.016.162-.075.151-4.861 6.857-.11.175-.336.618a1.75 1.75 0 00-.136.323l-.224.73a1.75 1.75 0 00-.072.38l-.057.73a1.75 1.75 0 000 .268l.057.73c.007.098.023.195.047.29l.168.674c.03.124.075.244.132.358l.337.674.07.128c.077.125.168.24.273.342l1.744 1.703-1.922 2.567a1.75 1.75 0 00-.244.452l-.225.617-.06.205-.169.73a1.75 1.75 0 00-.038.248l-.393 4.717a1.75 1.75 0 00.003.32l.056.561c.02.212.08.418.175.608l.225.45c.047.094.102.183.165.267l.337.45c.192.256.452.455.75.575l1.122.449.131.046c.089.028.18.048.272.062l2.745.392.097.578c.034.204.104.4.206.58l.225.393c.077.135.172.26.281.37l.337.336c.13.13.28.24.445.323l7.07 3.595c.193.098.403.16.619.18l.561.057.176.009c.292 0 .581-.074.84-.216l1.869-1.025 5.876 6.403c.144.157.315.286.506.381l1.234.618c.215.108.45.17.69.183l4.209.224.155.002a1.75 1.75 0 001.002-.36l1.478-1.132 2.304 1.58c.253.172.546.276.852.3l2.132.169.176.005a1.75 1.75 0 00.516-.09l2.341-.781 1.517.759 1.576 1.345.039.056-.417 3.967c-.01.1-.012.2-.005.3l.056.842c.012.191.056.38.13.556l.28.674c.075.18.18.345.308.49l.449.505c.215.243.494.42.805.514l.561.168c.275.083.566.097.847.04l.561-.112.166-.042c.163-.05.32-.123.462-.218l.732-.49 2.158 4.556c.085.182.202.347.343.489l.562.561.109.1c.113.097.239.178.373.242l2.376 1.137 1.926 1.639.647.849.155.372.323 1.157.153 1.479.02.143a1.75 1.75 0 001.277 1.37l2.009.526.598.466.48.542-.579 1.513-.359-.041-.5-.572a1.75 1.75 0 00-.178-.176l-.393-.337a1.75 1.75 0 00-.524-.31l-.45-.169a1.75 1.75 0 00-.614-.112h-.45a1.75 1.75 0 00-.69.142l-.392.169a1.75 1.75 0 00-.548.371l-.393.393a1.75 1.75 0 00-.263.337l-.336.562-.056.1a1.75 1.75 0 00-.092.212l-.464 1.301-.236.3-.773.45a1.75 1.75 0 00-.468.393l-.56.674a1.75 1.75 0 00-.378.807l-.224 1.236a1.75 1.75 0 00-.028.313v1.235l.005.139.007.069.02.134-.443.193-6.755-1.352a1.75 1.75 0 00-.263-.032l-1.235-.056a1.75 1.75 0 00-.284.01l-.954.112a1.75 1.75 0 00-.43.107l-1.01.393a1.75 1.75 0 00-.486.287l-.337.281a1.75 1.75 0 00-.562.864l-.112.393a1.75 1.75 0 00-.026.86l.113.505.044.161c.017.053.037.106.059.157l.491 1.132.093.433v.099l-.072.085-.157.014-5.787-.11a1.75 1.75 0 00-.494.061l-.617.169a1.75 1.75 0 00-.222.076l-1.459.618-.195.098-1.066.617a1.75 1.75 0 00-.36.278l-.786.786-.1.108a1.75 1.75 0 00-.24.37l-.689 1.433-.213.346-3.353-1.543-.15-.06a1.75 1.75 0 00-.316-.08l-.425-.066-1.316-.722-1.946-1.631a1.75 1.75 0 00-.486-.289l-1.29-.505a1.75 1.75 0 00-.398-.104l-2.02-.28a1.75 1.75 0 00-1.96 1.407l-.393 2.078a1.75 1.75 0 00-.028.236l-.113 2.19c-.01.209.016.417.08.616l.673 2.134.056.155c.064.152.15.294.254.422l.04.05-.174.374-.071.085-2.792 2.687-.09.094-.084.1-.728.946-5.384.112a1.75 1.75 0 00-.425.062l-.617.168a1.75 1.75 0 00-.94.639l-.336.45-.114.172-.81-1.848a1.75 1.75 0 00-.147-.267l-1.571-2.359a1.75 1.75 0 00-.24-.288l-1.683-1.628-.124-.109a1.75 1.75 0 00-.576-.305l-2.895-.897-.901-.525-.101-.123-.02-.062.098-2.146a1.75 1.75 0 00-.022-.367l-.112-.674a1.75 1.75 0 00-.16-.494l-.506-1.011-.07-.126a1.75 1.75 0 00-.267-.338l-3.687-3.637-.256-.385-.14-.335-.47-2.777a1.75 1.75 0 00-.107-.373l-.786-1.91a1.75 1.75 0 00-.13-.256l-1.01-1.63a1.75 1.75 0 00-.317-.377l-.56-.506a1.75 1.75 0 00-.503-.316l-3.254-1.348a1.75 1.75 0 00-.545-.129l-.785-.056a1.75 1.75 0 00-.52.04l-.729.169a1.75 1.75 0 00-.769.398l-.505.449a1.75 1.75 0 00-.445.619l-.337.786a1.75 1.75 0 00-.137.56l-.112 1.516c-.01.139-.004.279.02.417l.167 1.01.035.161c.042.159.106.31.19.452l1.432 2.389.482 1.301.154.542.036.531-.032.451-.082.244-.823 1.236-1.102 1.295-.409.315-.071.031-3.474-2.696.183-.202.133-.167.393-.562a1.75 1.75 0 00.181-.33l.28-.674a1.75 1.75 0 00.107-.36l.112-.618a1.75 1.75 0 00.028-.312v-.674a1.75 1.75 0 00-.02-.266l-.112-.73-.024-.122a1.75 1.75 0 00-.072-.238l-1.984-5.185-.113-.456.03-.013a1.75 1.75 0 00.622-.49l.224-.281a1.75 1.75 0 00.306-1.607l-.225-.73-.058-.16a1.75 1.75 0 00-.376-.563l-3.377-3.38-.592-1.006.726.186c.326.083.669.07.987-.036l.505-.168a1.75 1.75 0 00.755-.498l.449-.506a1.75 1.75 0 00.31-.496l.393-.955.05-.14a1.75 1.75 0 00.04-.146l.239-1.081.492-.562a1.75 1.75 0 00.374-.704l.505-1.91.032-.146c.01-.05.016-.1.02-.15l.212-2.447.081-.322 2.215-2.363a1.75 1.75 0 00.455-1.444l-.617-4.324a1.75 1.75 0 00-.256-.692l-.786-1.236-.093-.132a1.75 1.75 0 00-.768-.567l-.934-.351-.041-.105-.2-1.96a1.75 1.75 0 00-.17-.593l-3.423-6.964-.054-.1-.06-.098L.837 76.45l-.29-.618-.093-.587.054-.487 1.224-2.603a1.75 1.75 0 00.165-.808l-.112-3.09.057-3.39-.004-.152-.057-.787-.017-.15-.013-.075-.608-2.439-.323-2.75a1.75 1.75 0 00-.07-.327l-.393-1.235-.039-.11a1.75 1.75 0 00-.099-.21L0 56.239l1.43-.843.132-.086c.084-.06.164-.13.236-.204l1.635-1.691 2.408-1.766.104-.083.393-.337c.24-.206.42-.474.52-.775l.337-1.01c.084-.251.11-.518.075-.78l-.168-1.292-.02-.124a1.75 1.75 0 00-.069-.242l-.376-1.047.065-.79 2.008-6.786 2.782-7.109.023-.006a1.75 1.75 0 00.766-.416l.786-.73.115-.117.054-.063 1.283-1.745.278-.197 1.147.41c.232.083.478.116.723.097l.73-.056.151-.018a1.75 1.75 0 001.28-.945l.08-.161.255.39c.2.307.49.544.831.676l1.01.393a1.75 1.75 0 002.2-.848l.562-1.124a1.75 1.75 0 00.176-.956l-.169-1.684-.023-.16a1.75 1.75 0 00-.324-.725l-.741-.975-.14-2.664a1.75 1.75 0 00-.104-.509l-.842-2.302a1.75 1.75 0 00-.342-.57l-1.515-1.684-.128-.128a1.75 1.75 0 00-.29-.214l-1.826-1.065-1.106-1.108-.637-2.05-.6-2.68a1.75 1.75 0 00-.08-.26l-.955-2.414-.05-.115a1.75 1.75 0 00-.124-.217L11.605.844V.548L12.482 0z" id="id=map-olomoucky" fill="#DDE1E6"/><path d="M26.98 96.64h.22c2.842.07 4.93 2.257 4.89 5.11l-.002.218c-.067 2.818-2.229 4.933-5.109 4.892l-.22-.001c-2.842-.07-4.93-2.257-4.89-5.11l.001-.217c.068-2.818 2.229-4.933 5.11-4.892zm0 1.596c-1.947 0-3.29 1.428-3.29 3.514 0 2.1 1.343 3.5 3.29 3.5 1.945 0 3.29-1.4 3.29-3.5 0-2.086-1.345-3.514-3.29-3.514zm8.455-1.386H33.63v9.8h7.028v-1.61h-5.222v-8.19zm8.484 0h-1.806v9.8h1.806v-2.702l1.568-1.68h.028l3.192 4.382h2.226l-4.228-5.572 4.116-4.228H48.33l-4.382 4.634h-.028V96.85z" fill="#FFF"/></g><g id="pak" transform="translate(270.348 111.227)"><path d="M121.772 0l-2.16 5.52-.048.142-2.076 7.02a1.75 1.75 0 00-.066.351l-.112 1.348-.006.15c0 .2.035.399.103.588l.44 1.223.092.708-.055.166-2.447 1.797-.115.092a1.75 1.75 0 00-.107.101l-1.576 1.627-1.984 1.172a1.75 1.75 0 00-.726.835l-.28.674a1.75 1.75 0 00-.128.83l.056.618.026.18c.036.18.099.351.187.511l.475.857.291.912.317 2.697.04.22.58 2.32.04.563-.055 3.404.098 2.755-1.166 2.482a1.75 1.75 0 00-.156.551l-.112 1.011a1.75 1.75 0 00.01.466l.17 1.067c.025.163.074.322.144.472l.449.955.06.115.032.056 1.317 1.979 3.235 6.581.193 1.879c.016.154.052.305.107.449l.28.73c.088.229.223.436.396.61l.45.449.11.1c.152.13.325.23.512.301l.798.299.269.424.446 3.12-1.95 2.084a1.75 1.75 0 00-.421.772l-.225.898-.028.136-.01.068-.219 2.498-.362 1.372-3.465-1.732-.173-.076-1.964-.73a1.75 1.75 0 00-.468-.104l-2.077-.168-.142-.006-.07.001-2.626.213-.311-.045-.754-.377a1.75 1.75 0 00-.358-.133l-.674-.168a1.75 1.75 0 00-.425-.053h-4.376a1.75 1.75 0 00-.734.162l-.73.337a1.75 1.75 0 00-.633.496l-.449.561a1.75 1.75 0 00-.373.91l-.112 1.067-.058.427-.038.032-9.12.887-1.661-.138-1.164-.375-3.232-2.068-.11-.065a1.75 1.75 0 00-.232-.104l-2.676-.979-.451-.339-.344-.516-.465-.88a1.75 1.75 0 00-.23-.333l-.785-.898a1.75 1.75 0 00-.19-.187l-1.065-.898-.15-.114-3.087-2.078a1.75 1.75 0 00-.194-.113l-2.47-1.236a1.75 1.75 0 00-.28-.11l-1.682-.506a1.75 1.75 0 00-.412-.072l-2.132-.112-.128-.002-.064.002-1.562.145-.256-.064-.278-.68a1.75 1.75 0 00-.324-.515l-.561-.618a1.75 1.75 0 00-.476-.37l-.954-.505-.15-.07a1.75 1.75 0 00-.316-.098l-1.779-.366-1.02-.371-.923-.461-1.014-.711a1.75 1.75 0 00-.354-.192l-.561-.224a1.75 1.75 0 00-.457-.115l-.505-.056a1.75 1.75 0 00-1.538.62l-.562.673-.086.113a1.75 1.75 0 00-.2.373l-.349.897-.039.071-.584.206a1.75 1.75 0 00-.286.131l-.392.225-.123.077a1.75 1.75 0 00-.323.287l-1.084 1.231-.204.137-.538-.169-1.023-.46a1.75 1.75 0 00-.985-.134l-.73.112-.177.037a1.75 1.75 0 00-.173.055l-.135.058-.722-.19-.938-1.92a1.75 1.75 0 00-.147-.247l-1.123-1.573a1.75 1.75 0 00-.337-.355l-1.347-1.067-.097-.071a1.75 1.75 0 00-.206-.122l-1.8-.901-.11-.85a1.75 1.75 0 00-.142-.497l-.28-.617a1.75 1.75 0 00-.356-.514l-.449-.449a1.75 1.75 0 00-.316-.25l-1.178-.73-.156-.086a1.75 1.75 0 00-.331-.122l-1.829-.47-3.468-2.745a1.75 1.75 0 00-.63-.318l-1.46-.393-.146-.033a1.75 1.75 0 00-.448-.022l-5.706.454-.43-.485-2.052-3.35a1.75 1.75 0 00-.158-.218l-1.57-1.854-.11-.117a1.75 1.75 0 00-.25-.203l-2.692-1.811.258-1.033.376-1.183.051-.2.28-1.46.022-.146.007-.073.056-2.576.028-.248.447-1.34a1.75 1.75 0 00.061-.866l-.112-.617a1.75 1.75 0 00-.37-.8l-.786-.954a1.75 1.75 0 00-.243-.242l-.617-.506a1.75 1.75 0 00-.325-.21l-.561-.282-.117-.053a1.75 1.75 0 00-.242-.08l-.743-.186-.25-.204-2.987-2.878a1.75 1.75 0 00-.274-.216l-.617-.394-.13-.075a1.75 1.75 0 00-.277-.115l-2.564-.822-1.563-1.057-.36-.36L0 18.63l.202-.098 1.239-.33.494.036a1.75 1.75 0 001.867-1.583l.168-1.797.008-.163v-.45l-.004-.12a1.75 1.75 0 00-.033-.24l-.412-1.953v-.138l.062-.144.306-.307 3.485 1.335c.245.095.509.132.771.11l.673-.056.17-.022a1.75 1.75 0 00.894-.457l4.794-4.583 1.093-.529.422-.038 2.809 1.406c.243.122.511.185.783.185h1.235l.164-.007c.109-.01.216-.031.322-.061l1.931-.56 2.935 2.008c.161.11.34.192.528.244l.617.168a1.75 1.75 0 001.014-.028l.505-.169a1.75 1.75 0 00.755-.498l.449-.505.096-.118a1.75 1.75 0 00.271-.54l1.023-3.395.255-.512.056-.074 2.371-.674.548 2.308c.022.092.05.182.087.269l.561 1.348c.07.17.167.326.287.466l.673.786c.206.24.474.421.775.522l.337.112c.44.147.922.113 1.337-.095l.449-.225.16-.091c.104-.066.2-.144.288-.23l5.037-4.99.177-.076 2.85-.092 1.556.493.024.143v2.492c0 .123.013.246.039.366l.168.787c.035.161.092.317.17.462l.393.73c.136.253.331.468.57.627l.673.45.147.087c.15.08.313.139.481.173l4.2.84.4.838c.039.08.083.157.133.23l.842 1.236c.08.119.175.227.283.322l1.01.899c.093.083.195.156.304.217l.898.506.15.075c.1.045.206.08.315.105l.263.06 1.098 1.433c.106.138.23.259.372.36l.392.28.144.093c.147.085.307.148.473.187l.538.126 2.874 2.474.127.1a1.75 1.75 0 002.044-.012l1.051-.765.857-.337 7.166-.705c.213-.021.42-.081.612-.177l1.122-.561a1.75 1.75 0 00.455-.329l.505-.505a1.75 1.75 0 00.196-.234l.392-.562a1.75 1.75 0 00.156-.27l.336-.73.051-.123a1.75 1.75 0 00.074-.255l.263-1.276.065-.093.107-.094 8.369-3.996a1.75 1.75 0 00.661-.55l.45-.618c.12-.166.21-.351.266-.548l.225-.787.03-.12a1.75 1.75 0 00.033-.247l.104-1.613.06-.282 7.231 2.319 2.578 2.378c.11.101.232.188.364.258l3.479 1.854c.297.158.633.227.968.2l3.367-.282.167-.022a1.75 1.75 0 001.104-.694l2.362-3.258 1.628-1.185c.15-.11.282-.242.39-.393l1.01-1.404.078-.117.035-.06.881-1.762 1.315-1.949 1.304-1.107.94-.163z" id="id=map-pardubicky" fill="#DDE1E6"/><path d="M59.325 35.182c2.086 0 3.542 1.232 3.542 3.136 0 1.918-1.428 3.122-3.542 3.122h-3.29v3.542H54.23v-9.8zm-.084 1.596h-3.206v3.052h3.206c1.162 0 1.82-.532 1.82-1.526 0-1.05-.602-1.526-1.82-1.526zm10.01-1.596l4.424 9.8h-1.96l-.728-1.694H65.78l-.728 1.694h-1.96l4.424-9.8h1.736zm-.854 2.086h-.028l-1.904 4.438h3.836l-1.904-4.438zm8.106-2.086h-1.806v9.8h1.806V42.28l1.568-1.68h.028l3.192 4.382h2.226L79.29 39.41l4.116-4.228h-2.492l-4.382 4.634h-.028v-4.634z" fill="#FFF"/></g><g id="kvk" transform="translate(0 78.269)"><path d="M59.007 0l7.515 4.556c.244.148.52.234.805.251l2.861.169.166.001a1.75 1.75 0 00.483-.086l.113-.044 1.625 1.395c.087.075.182.141.283.198l1.403.786.156.078c.16.07.329.115.503.135l4.907.556.124.177.502 1.006c.053.105.116.205.19.298l.616.786c.088.112.19.213.302.3l1.01.787c.207.161.448.274.705.33l2.076.449.145.025c.05.006.098.01.147.013l2.337.103 1.972.517.788.43.184.202.212.455.375 1.455.1.992.044.938-.162 2.714-.003.105v.843l.01.193.17 1.516.282 1.715.093 1.124-.028.331-.332 1.049c-.1.316-.11.654-.025.975l.28 1.067c.028.107.066.21.114.31l.617 1.292.109.194 1.646 2.55.444 1.111.059.282-.235.428-1.147 1.462a1.75 1.75 0 00-.284.528l-.28.842a1.75 1.75 0 00.14 1.42l.225.394c.077.135.171.26.281.37l.618.617.108.1.116.09.928.659-.057.084a1.75 1.75 0 00-.076.137l-.337.674a1.75 1.75 0 00-.18.657l-.056.787a1.75 1.75 0 000 .249l.056.786c.009.12.03.24.063.356l.224.786.067.192.055.132-3.362.744a1.75 1.75 0 00-.86.472l-.337.337a1.75 1.75 0 00-.422.684l-.168.506a1.75 1.75 0 00-.09.553v.673l.005.135.056.73.018.146.013.072.655 2.629-.035-.014-2.643-3a1.75 1.75 0 00-.976-.561L81.29 49.36a1.75 1.75 0 00-.585-.015l-.393.056a1.75 1.75 0 00-.724.277l-.841.562-.114.083a1.75 1.75 0 00-.207.192l-1.597 1.747-7.426 4.016a1.75 1.75 0 00-.32.223l-.45.393a1.75 1.75 0 00-.412.534l-.337.674-.064.144a1.75 1.75 0 00-.088.302l-.87 4.441-.113-.028-2.071-1.037a1.75 1.75 0 00-1.106-.155l-.898.169-.152.035a1.75 1.75 0 00-.558.272l-1.277.932-1.26-1.299a1.75 1.75 0 00-1.225-.531l-6.397-.113a1.75 1.75 0 00-.814.185l-.561.28-.154.088a1.75 1.75 0 00-.397.346l-2.277 2.683-.548.104-.931-.112-2.28-.829a1.75 1.75 0 00-.598-.105h-.449c-.272 0-.54.063-.783.185l-.449.224-.123.068a1.75 1.75 0 00-.332.26l-2.067 2.068-.173.095-.193.041-2.753-.511-.109-.207-.08-.137a1.75 1.75 0 00-.843-.68l-1.035-.395-2.345-1.408.005-.129.489-1.512a1.75 1.75 0 00.077-.695l-.168-1.854a1.75 1.75 0 00-.53-1.103l-1.403-1.348-.125-.109a1.75 1.75 0 00-.898-.369l-2.474-.27-.798-.8-.129-.116a1.75 1.75 0 00-.6-.321l-.073-.018-11.593-6.244v-.769l-.013-.217-.168-1.348a1.75 1.75 0 00-.213-.643l-.73-1.292a1.75 1.75 0 00-.414-.493l-1.235-1.011-.096-.074-.102-.067-1.152-.702-.736-.667-.48-1.294-.042-1.419.576-2.773c.041-.2.047-.407.018-.61l-.281-1.91a1.75 1.75 0 00-.102-.384l-.618-1.573a1.75 1.75 0 00-.164-.318l-.953-1.46a1.75 1.75 0 00-.18-.23l-2.02-2.19-.108-.108a1.75 1.75 0 00-.244-.185L.117 24.508 0 24.298l.233-.363.565-.352a1.75 1.75 0 00.368-.307l.56-.618a1.75 1.75 0 00.452-1.06l.112-1.685a1.75 1.75 0 00-.016-.379l-.28-1.853-.034-.167a1.75 1.75 0 00-.196-.47l-.118-.198 1.477.11.761.544.184.45v1.846c0 .159.022.316.064.468l.28 1.011c.091.327.275.62.528.844l.954.842c.176.156.382.274.605.349l1.178.393.168.047c.113.025.229.04.345.042l.715.017-.037.064a1.75 1.75 0 00-.074.16l-.112.28a1.75 1.75 0 00.124 1.55l.337.562.078.12c.056.076.118.15.185.217l1.336 1.337.14.209.197.493.194 1.212.043.197 1.01 3.595c.048.17.122.333.218.482l.842 1.291c.283.434.743.72 1.258.783l1.402.168a1.75 1.75 0 001.227-.314l1.178-.842a1.75 1.75 0 00.733-1.424v-1.123l-.007-.151a1.75 1.75 0 00-.097-.441l-.446-1.24-.168-1.185.182-1.873.279-.766 1.455-1.858.095-.133a1.75 1.75 0 00.268-.758l.177-1.652.255-.383.69-.486a1.75 1.75 0 00.227-.193l.954-.955.115-.126a1.75 1.75 0 00.19-.285l2.403-4.49.537-.537 2.248-1.227.127-.077a1.75 1.75 0 00.234-.185l.58-.547.115.008a1.75 1.75 0 001.096-.29l.337-.224a1.75 1.75 0 00.668-.842l.168-.45.053-.164a1.75 1.75 0 00.042-.686l-.116-.845.243-.763.079-.173 2.347-2.033 2.772-.846 5.81-.419 4.22.749c.162.028.326.034.49.017l1.065-.112a1.75 1.75 0 001.055-.504l.898-.899.084-.09a1.75 1.75 0 00.147-.196l1.739-2.69.656-.623.789-.295.895-.075 1.256.194c.275.042.556.018.82-.07l.505-.168a1.75 1.75 0 00.417-.205L59.007 0z" id="id=map-karlovarsky" fill="#DDE1E6"/><path d="M62.935 28.14h-1.806v9.8h1.806v-2.702l1.568-1.68h.028l3.192 4.382h2.226l-4.228-5.572 4.116-4.228h-2.492l-4.382 4.634h-.028V28.14zm-20.636 0v4.634h.028l4.382-4.634h2.492l-4.116 4.228 4.228 5.572h-2.226l-3.192-4.382h-.028l-1.568 1.68v2.702h-1.806v-9.8h1.806zm9.016 0l3.346 7.518h.028l3.36-7.518h2.044l-4.494 9.8h-1.834l-4.508-9.8h2.058z" fill="#FFF"/></g><g id="jhc" transform="translate(119.365 185.728)"><path d="M101.017 0l.148.187c.09.115.193.218.308.306l.73.562.13.09c.134.086.279.152.43.198l1.954.591.067.66c.05.502.313.957.723 1.25l.393.28c.233.167.503.274.786.312l.842.112.147.013a1.75 1.75 0 00.44-.034l1.119-.232.262.102.514 1.265c.044.11.1.214.165.312l.336.505c.064.096.138.186.219.267l.842.843c.12.12.257.222.407.303l.73.393.157.075c.16.067.328.11.5.126l.059.003.443.486.101.169-2.46.758a1.75 1.75 0 00-.335.143l-.505.281a1.75 1.75 0 00-.81.977l-.169.505-.046.166a1.75 1.75 0 00.02.85l1.196 4.36.195 1.801-.098 2.048-1.696 6.738a1.75 1.75 0 00-.053.428v.898c0 .163.023.324.067.48l.225.787c.035.124.084.244.146.357l.336.618.094.152c.067.098.144.19.23.272l1.204 1.157.054.1v.127l-.164 2.578c-.01.142 0 .285.024.424l.113.618c.014.082.035.162.061.24l.225.674c.056.17.139.331.244.476l.45.618c.062.087.134.168.212.242l3.086 2.92c.09.086.189.16.294.225l1.571.955c.197.12.415.199.643.234l.73.112c.249.039.504.023.747-.047l.785-.224.162-.055a1.75 1.75 0 00.57-.366l1.104-1.061.757.461 1.711 1.66.116.104.124.092 2.168 1.463 2.012 2.685c.125.166.278.309.452.421l3.31 2.134c.284.182.613.28.949.28h.337c.304 0 .604-.08.869-.232l.392-.224.14-.09a1.75 1.75 0 00.46-.476l1.122-1.729 3.693 1.943.264.176c.174.116.367.2.57.248l.954.224.184.034 3.802.474.014.006.04.052.188.598.153 1.827.011.102.169 1.18c.015.104.039.206.072.306l.28.842c.054.16.13.312.227.45l.392.562c.069.097.147.188.233.27l3.928 3.706c.166.156.36.279.573.36l.73.281.175.058c.238.063.487.076.732.037l1.439-.233 3.63.675c.16.03.323.037.485.022l1.179-.113.166-.024a1.75 1.75 0 00.323-.095l2.683-1.084 2.981 2.984-1.042.066-.108.01-.449.056a1.75 1.75 0 00-1.273.82l-.45.73-.074.134a1.75 1.75 0 00-.173.582l-.154 1.328-.094.346-.232.498-2.543 3.024-.436.558a1.75 1.75 0 00-.326.695l-.337 1.516a1.75 1.75 0 00.017.83l.225.842.047.151c.18.492.572.879 1.067 1.051l.182.053.433.937c.135.293.349.544.618.723l.505.337c.19.127.403.215.627.26l.562.112.191.028 1.174.102.477.106.239.202.047.064v.103l-.292.964-1.264 3.138-.063.186-.251.899-.064.149-3.701-3.196a1.75 1.75 0 00-.229-.168l-1.74-1.067-.115-.065a1.75 1.75 0 00-.246-.103l-3.578-1.194-3.87-1.964a1.75 1.75 0 00-.332-.128l-1.852-.505-.143-.033a1.75 1.75 0 00-.292-.029l-3.143-.045-.063-.098-.435-.626a1.75 1.75 0 00-1.435-.747h-.617a1.75 1.75 0 00-1.5.85l-.337.562-.084.157a1.75 1.75 0 00-.15.511l-.194 1.455-.092.219-.771.927-4.937 1.367.05-1.546a1.75 1.75 0 00-.044-.454l-.393-1.685-.034-.124-.56-1.797-.052-.143a1.75 1.75 0 00-1.483-1.08l-6.224-.488-4.382-1.551a1.75 1.75 0 00-.847-.08l-1.851.28a1.75 1.75 0 00-.789.33l-.224.17a1.75 1.75 0 00-.588.785l-.169.449-.048.15a1.75 1.75 0 00-.056.622l.073.804-.955 2.297a1.75 1.75 0 00-.135.645l-.056 3.594.007.18.329 3.794v3.222l-1.67 7.548-.572 1.512a1.75 1.75 0 00-.08.277l-.168.843a1.75 1.75 0 00.004.71l.169.785c.02.091.046.18.08.268l.393 1.01.082.181.17.324-.209.48-.225.022-3.912-1.627a1.75 1.75 0 00-.446-.12l-4.321-.561a1.75 1.75 0 00-.824.09l-1.235.45a1.75 1.75 0 00-1.021.982l-.505 1.236-.05.14a1.75 1.75 0 00-.039.143l-.285 1.282-.67 1.244-.077.164a1.75 1.75 0 00-.102.346l-.339 1.822-3.869 3.42a1.75 1.75 0 00-.336.402l-1.571 2.584a1.75 1.75 0 00-.246.735l-.337 3.37-.009.2.054 3.697-.306 2.543-.573.573-.361-.845a1.75 1.75 0 00-.184-.328l-.842-1.18a1.75 1.75 0 00-1.081-.699l-.561-.112-.185-.027a1.75 1.75 0 00-.555.038l-.119.034-.053-.373a1.75 1.75 0 00-.494-.99l-.505-.505a1.75 1.75 0 00-1.39-.507l-1.29.112-.164.022a1.75 1.75 0 00-.468.157l-2.278 1.139-.601.137-.402-.112-2.847-1.497-1.745-2.046a1.75 1.75 0 00-2.272-.34l-1.234.786-.134.094a1.75 1.75 0 00-.567.774l-1.726 4.658-.793.828-3.993 1.713-.15.074a1.75 1.75 0 00-.277.187l-1.376 1.139-.21.07-.205.03-7.843-2.777-.128-.04a1.75 1.75 0 00-.264-.05l-11.461-1.263-2.294-1.009-.375-.344-1.238-1.479-.162-.352-.123-.526.09-.109a1.75 1.75 0 00.174-.289l.178-.376.03-.007.337-.113a1.75 1.75 0 001.157-1.293l.168-.787a1.75 1.75 0 00-.038-.88l-.225-.73a1.75 1.75 0 00-.701-.942l-.505-.337-.188-.109-.308-.154-.018-.018-.442-.797-1.397-2.219a1.75 1.75 0 00-.197-.256l-.73-.787-.134-.13a1.75 1.75 0 00-.305-.212l-5.459-3.006-1.662-1.404-1.57-1.223a1.75 1.75 0 00-.247-.161l-1.572-.843-.119-.058a1.75 1.75 0 00-.25-.088l-2.845-.773-1.103-1.143-3.864-7.788-.107-.186-1.964-2.976a1.75 1.75 0 00-.56-.537l-1.122-.674-.146-.078a1.75 1.75 0 00-.472-.149l-2.847-.466-1.091-.507-1.106-1.064-1.072-1.632-.694-1.9-.203-2.188-.02-.145A1.75 1.75 0 005.05 80.88l-.986.109-.761-.396-1.254-1.054a1.75 1.75 0 00-.251-.176l-1.459-.842-.144-.075a1.75 1.75 0 00-.15-.06L0 78.371l1.339-2.889 1.739-2.713 1.663-1.662a1.75 1.75 0 00.274-.356l.393-.674a1.75 1.75 0 00.16-.367l.225-.73a1.75 1.75 0 00.075-.427l.056-1.123.002-.126a1.75 1.75 0 00-.023-.249l-.208-1.247-.043-1.042.272-1.497.902-2.328.359-.43.463.077c.324.054.658.016.961-.11l.674-.282c.306-.127.57-.34.76-.612l.786-1.123.114-.188 2.065-3.922.401-.402.551-.344.478-.16c.22-.073.424-.19.599-.343l.449-.393a1.75 1.75 0 00.586-1.123l.056-.506a1.75 1.75 0 00-.136-.894l-.393-.898-.067-.137a1.75 1.75 0 00-.268-.369l-.94-.988.399-.598.074-.121.28-.506a1.75 1.75 0 00.168-.425l.112-.45a1.75 1.75 0 00.052-.423v-.73l-.008-.17a1.75 1.75 0 00-.122-.492l-.303-.743.151-.164 1.216-.777.106-.074.45-.337c.24-.18.43-.42.55-.695l.618-1.404.047-.118.038-.121.413-1.502.636-1.419 1.525-2.616.054-.1.393-.786a1.75 1.75 0 00.169-.55l.112-.843a1.75 1.75 0 00.006-.414l-.112-1.067-.025-.16-.449-2.247-.18-1.278.14-1.643.534-2.293.13-.7c.029-.161.035-.325.019-.488l-.112-1.123a1.75 1.75 0 00-.048-.266l-1.066-4.1-.042-.139-.054-.134-.538-1.205 2.958-1.721.415.295c.122.086.255.156.395.209l.449.168.136.045c.137.04.28.061.422.066l1.484.048.548.183.308.206.096.06 1.46.842c.187.109.394.181.608.214l.73.112c.164.026.332.028.497.005l.842-.112c.2-.027.395-.088.575-.181l1.515-.786.129-.074.869-.551 3.764-1.167a1.75 1.75 0 00.72-.434l.449-.45.114-.126a1.75 1.75 0 00.32-.596l.408-1.326.231-.464.097-.086.533-.282.011.002.467.25.892.694c.157.122.333.217.522.28l.505.168.14.04c.095.023.191.039.289.046l1.321.093.835.308c.18.067.37.103.56.108l2.19.056c.088.002.178-.002.266-.014l4.826-.617c.154-.02.304-.06.447-.12l1.628-.673.155-.074a1.75 1.75 0 00.413-.306l1.293-1.295.278-.129.64-.142h.857l.493.137.009.006.097.29c.049.147.117.287.204.417l.336.505.096.13c.203.251.472.442.778.55l.617.218.255.234.443.665c.088.134.195.254.317.358l.392.337c.126.108.265.197.415.265l.617.28c.18.082.37.133.567.15l.617.057c.13.012.26.009.39-.008l.842-.113.164-.03a1.75 1.75 0 00.466-.181l3.602-2.039.275-.045.689-.037.615.162 1.23.64c.172.09.358.15.55.179l1.516.225.165.016c.055.003.11.003.166.001l8.492-.364.098.292a1.75 1.75 0 001.412 1.18l1.964.28c.154.022.31.023.465.004l.898-.112.207-.039.898-.225a1.75 1.75 0 00.537-.235l1.964-1.292.097-.069c.063-.048.123-.1.18-.156l1.032-1.035.105-.052 2.47-.515a1.75 1.75 0 00.737-.347l1.122-.899c.126-.1.237-.218.331-.35l.561-.785.09-.14c.14-.24.22-.511.233-.79l.161-3.226.093-.435.357-.714.326-.491z" id="id=map-jihocesky" fill="#DDE1E6"/><path d="M59.072 57.68h-1.806v5.95c0 1.582-.672 2.45-1.89 2.45-1.246 0-1.862-.616-2.044-2.086l-1.736.238c.21 2.24 1.526 3.458 3.78 3.458 2.212 0 3.696-1.484 3.696-3.878V57.68zm17.276-.21c-2.926-.042-5.152 2.184-5.11 5.11-.042 2.926 2.184 5.152 5.11 5.11 2.422 0 4.256-1.386 4.676-3.584l-1.736-.406c-.294 1.512-1.414 2.38-2.94 2.38-1.918 0-3.29-1.428-3.29-3.5 0-2.086 1.372-3.514 3.29-3.514 1.47 0 2.548.798 2.926 2.184l1.722-.434c-.448-2.016-2.296-3.346-4.648-3.346zm-13.44.21h-1.806v9.8h1.806v-4.186h4.984v4.186h1.806v-9.8h-1.806v3.99h-4.984v-3.99z" fill="#FFF"/></g><g id="vys" transform="translate(232.073 153.08)"><path d="M49.556 0l.822.553 1.327 1.566 2.063 3.367c.053.088.115.171.184.248l.897 1.011c.148.167.326.304.526.403l.449.225.174.076c.238.088.493.124.748.103l6.036-.482.822.222 3.476 2.752.149.106c.155.098.324.172.502.217l1.927.494.78.484.08.079.042.091.135 1.034c.025.193.083.381.17.556l.224.45c.108.215.26.406.445.56l.337.282.106.082c.074.052.15.099.231.139l1.968.984 1.012.802.895 1.253 1.228 2.51a1.75 1.75 0 001.127.924l2.132.562.155.033c.365.062.74.006 1.074-.16l.28-.142.63.285.197.074.898.281c.169.053.345.08.522.08h.786c.345 0 .683-.103.971-.294l.842-.562.123-.09a1.75 1.75 0 00.22-.21l1.044-1.188.805-.283a1.75 1.75 0 00.557-.322l.393-.337a1.75 1.75 0 00.39-.48l.281-.505.054-.106.047-.11.053-.136.454.319c.07.049.144.093.221.131l1.122.562.185.08 1.234.449.122.039.124.03 1.663.343.462.245.147.161.389.951c.137.335.374.62.68.814l.617.393c.159.101.333.176.515.222l.898.225.145.03c.147.023.295.028.443.014l1.663-.157 1.801.095 1.334.401 2.233 1.117 2.92 1.966.886.747.564.644.412.778.09.152.561.842c.11.165.248.31.406.43l.898.674.142.096c.097.059.2.108.308.148l2.734.999 3.264 2.089.13.075c.09.047.182.086.277.116l.177.057-.296 1.1-.974 2.494c-.08.203-.12.419-.12.637v.674c0 .17.024.34.073.502l.168.562.06.167c.09.218.224.416.394.582l2.065 2.016.073.162.11.477.077.532-.034.472-.097.419-1.677.306a1.75 1.75 0 00-.705.298l-.393.28a1.75 1.75 0 00-.502.557l-.224.393a1.75 1.75 0 00-.23.867v.618l.006.152c.01.1.027.2.053.299l.397 1.494.218 5.648c.004.086.013.171.029.255l.168.899.049.196 1.468 4.738.073.576-.011.146-6.777 4.155a1.75 1.75 0 00-.324.255l-1.066 1.067a1.75 1.75 0 00-.263.337l-.841 1.404a1.75 1.75 0 00-.108.211l-.337.787a1.75 1.75 0 00-.111.366l-.168.899-.026.197-.056.787c-.012.162 0 .325.033.485l.224 1.067.04.156c.033.103.074.202.124.298l.324.615-.78.319a1.75 1.75 0 00-.58.384l-.393.393a1.75 1.75 0 00-.327.455l-.28.562a1.75 1.75 0 00-.133.358l-.393 1.572a1.75 1.75 0 00-.047.3l-.113 1.572c-.009.13-.004.262.016.39l.112.73.042.195.168.618c.058.213.156.413.288.59l.337.449.098.12c.138.153.303.282.487.378l.893.471.094.081.036.048.006.02v.142l-.056.225-.193.331-1.08 1.288a1.75 1.75 0 00-.226.343l-.337.674a1.75 1.75 0 00-.123.322l-.168.618a1.75 1.75 0 00-.053.634l.112 1.123.026.169c.022.111.055.22.099.326l.639 1.547.069.231v.104l-.066.221-.422.969-1.316 1.606-5.35 1.751a1.75 1.75 0 00-.577.32l-.337.28-.121.112a1.75 1.75 0 00-.21.255l-1.601 2.376-.228.191-.115.038-5.294-.883a1.75 1.75 0 00-.769.044l-.393.112-.156.053a1.75 1.75 0 00-.43.243l-1.296.996-.01.005-1.86.084-.357-.099-.023-.02-.152-.195-.247-.578a1.75 1.75 0 00-.242-.404l-.449-.562a1.75 1.75 0 00-1.193-.649l-.56-.056a1.75 1.75 0 00-1.013.206l-.618.337-.15.092c-.145.099-.274.22-.384.358l-1.492 1.886-.265-.019a1.75 1.75 0 00-.815.138l-.392.168a1.75 1.75 0 00-.463.292l-.45.393a1.75 1.75 0 00-.412.534l-.28.562-.053.116a1.75 1.75 0 00-.08.242l-.311 1.246-2.085-.205a1.75 1.75 0 00-.907.154l-2.3 1.067-.157.083a1.75 1.75 0 00-.283.209l-5.286 4.795-1.877-1.622a1.75 1.75 0 00-.494-.3l-.56-.225a1.75 1.75 0 00-.651-.125h-.617a1.75 1.75 0 00-.712.15l-.505.225a1.75 1.75 0 00-.382.233l-.842.674c-.088.07-.17.15-.242.236l-.618.73-.113.15a1.75 1.75 0 00-.175.33l-.04.099-.72-1.159a1.75 1.75 0 00-.378-.43l-.618-.505a1.75 1.75 0 00-.207-.147l-.561-.337a1.75 1.75 0 00-.727-.24l-.561-.057-.186-.009a1.75 1.75 0 00-.368.042l-.389.086-.457-.387a1.75 1.75 0 00-.751-.373l-1.01-.224-.114-.022-.115-.014-1.173-.102-.42-.909a1.75 1.75 0 00-.35-.504l-.28-.28-.118-.107a1.794 1.794 0 00-.131-.1l.072-.322.152-.194 2.65-3.148a1.75 1.75 0 00.247-.387l.393-.843a1.75 1.75 0 00.102-.28l.169-.617.03-.129.011-.065.094-.807 1.147-.071a1.75 1.75 0 00.394-.07l.561-.17a1.75 1.75 0 00.444-.204l.786-.505c.16-.103.301-.23.42-.38l.224-.28a1.75 1.75 0 00.344-1.459l-.168-.786a1.75 1.75 0 00-.31-.683l-.506-.674a1.75 1.75 0 00-.162-.188l-3.928-3.931a1.75 1.75 0 00-.267-.219l-.336-.224a1.75 1.75 0 00-1.13-.288l-.618.057-.169.023a1.75 1.75 0 00-.327.097l-2.964 1.196-.677.065-3.689-.685-.149-.021a1.75 1.75 0 00-.45.014l-1.256.202-3.532-3.333-.142-.203-.151-.454-.14-.98-.162-1.962a1.75 1.75 0 00-.075-.381l-.337-1.067a1.75 1.75 0 00-.269-.523l-.505-.674a1.75 1.75 0 00-.726-.566l-.674-.28-.148-.055a1.75 1.75 0 00-.308-.067l-3.948-.494-.555-.131-.074-.049-.156-.093-4.377-2.303a1.75 1.75 0 00-.621-.19l-.505-.056a1.75 1.75 0 00-.809.1l-.449.17a1.75 1.75 0 00-.402.214l-.393.28-.129.102a1.75 1.75 0 00-.321.37l-.828 1.272-1.992-1.284-2-2.669-.092-.113a1.75 1.75 0 00-.329-.288l-2.285-1.542-1.74-1.689a1.75 1.75 0 00-.308-.239l-1.29-.786a1.75 1.75 0 00-.777-.25l-.73-.056a1.75 1.75 0 00-.649.072l-.729.225-.154.055a1.75 1.75 0 00-.543.355l-1.09 1.046-1.119-.677-2.833-2.68-.196-.27-.099-.296-.052-.29.155-2.424.004-.11v-.619c0-.29-.072-.574-.21-.829l-.392-.73-.094-.155a1.75 1.75 0 00-.235-.278l-1.208-1.16-.115-.211L0 61.502v-.44l1.687-6.696a1.75 1.75 0 00.05-.344l.113-2.359a1.75 1.75 0 00-.008-.271l-.225-2.078-.02-.139a1.75 1.75 0 00-.032-.137l-.932-3.39 2.116-.651a1.75 1.75 0 00.49-.24l.56-.393a1.75 1.75 0 00.497-.533l.337-.562a1.75 1.75 0 00.249-.9v-.617a1.75 1.75 0 00-.105-.598l-.225-.618a1.75 1.75 0 00-.144-.302l-.336-.562-.046-.07.152-.133a1.75 1.75 0 00.378-.474l.337-.618.05-.1.044-.104.33-.848.164-.256 1.171-.627c.3-.16.547-.406.71-.705l.336-.618.074-.152a1.75 1.75 0 00.101-.32l.025-.152 2.06.888c.185.08.382.128.584.14l.897.056c.095.006.19.004.284-.005l1.122-.112.119-.016a1.75 1.75 0 00.232-.056l1.684-.531 1.78.041 1.085.478c.312.138.657.18.993.125l2.357-.393a1.75 1.75 0 00.479-.153l6.453-3.146a1.75 1.75 0 00.964-1.316l.225-1.517a1.75 1.75 0 00-.003-.532l-.225-1.404a1.75 1.75 0 00-.076-.302l-.393-1.123a1.75 1.75 0 00-.161-.339l-.449-.73a1.75 1.75 0 00-.182-.245l-.45-.506-.08-.086a1.75 1.75 0 00-.18-.154l-3.485-2.603.04-.168.18-.309 1.798-2.063a1.75 1.75 0 00.136-.179l.674-1.01a1.75 1.75 0 00.143-.26l.224-.506.046-.114a1.75 1.75 0 00.067-.236l.186-.887.256-.577.446.28c.157.1.33.173.51.219l.449.112c.233.058.476.068.713.028l.673-.112.16-.035a1.75 1.75 0 00.453-.19l3.235-1.944 2.777-1.069.148-.065a1.75 1.75 0 00.398-.27l2.637-2.386 1.47.233c.205.032.414.028.617-.013l1.122-.224c.153-.03.301-.082.44-.151l.674-.337a1.75 1.75 0 00.38-.258l.505-.449a1.75 1.75 0 00.32-.38l.281-.45a1.75 1.75 0 00.14-.277l.225-.562.044-.12a1.75 1.75 0 00.059-.25l.32-1.982.201-.723.443-.815.415-.389.477-.158a1.75 1.75 0 00.684-.423l.337-.337a1.75 1.75 0 00.488-.95L49.556 0z" id="id=map-vysocina" fill="#DDE1E6"/><path d="M71.626 49.133c-2.24 0-3.766 1.204-3.766 2.8 0 1.42.968 2.214 3.511 2.796l.269.06.468.11c1.846.452 2.374.83 2.374 1.57 0 .826-.812 1.316-2.17 1.316-1.722 0-2.632-.728-2.912-2.296l-1.778.336c.336 2.24 2.03 3.514 4.676 3.514 2.422 0 3.99-1.12 3.99-2.884 0-1.611-1.086-2.502-3.65-3.103l-.74-.168-.432-.106c-1.412-.364-1.8-.654-1.8-1.173 0-.714.812-1.218 1.946-1.218 1.344 0 2.24.644 2.534 1.82l1.75-.406c-.392-1.806-2.086-2.968-4.27-2.968zm-23.016.196h-2.058l4.508 9.8h1.834l4.45-9.704 4.076 5.784v3.92h1.806v-3.92l4.144-5.88h-2.1l-2.94 4.368h-.028l-2.926-4.368h-4.032l-3.36 7.518h-.028l-3.346-7.518z" fill="#FFF"/></g><g id="pra" transform="translate(177.307 113.816)" fill="#DDE1E6"><path d="M23.322 0l.339.064.483.285 1.123 1.172.092.089.097.082.876.682.053.06.17.508c.04.121.093.237.159.347l.336.561c.183.305.454.547.777.694l.617.28.142.058c.048.017.097.031.146.044l1.64.422.119.087.316.443.219.438c.06.12.134.234.22.338l.562.674c.125.15.275.28.444.38l.56.337.118.064c.079.04.161.074.246.101l1.427.46.013.025.002.011-.046.174-.391.556-2.236 2.132a1.75 1.75 0 00-.312.4l-.225.393a1.75 1.75 0 00-.178.443l-.112.45-.032.158a1.75 1.75 0 00.117.944l.39.93.071.306-.085.896a1.75 1.75 0 00.016.454l.056.337.026.127c.02.084.047.167.08.247l.344.84-.039.078-.91.22-2.663.151-1.205-.14-.832-.198-.174-.1a1.75 1.75 0 00-.994-.226l-.785.056c-.12.01-.24.03-.357.063l-.785.225a1.75 1.75 0 00-.57.283l-1.346 1.011-.127.105-1.085.986-.175.098-3.428 1.091-5.835 1.048-.125.027a1.75 1.75 0 00-.243.081L7.664 24.51l.131-1.653a1.75 1.75 0 00-.066-.63l-.28-.956-.049-.142a1.75 1.75 0 00-.31-.512l-2.11-2.43-.382-.727-.4-1.399a1.75 1.75 0 00-.132-.33l-.617-1.18-.08-.137a1.75 1.75 0 00-.092-.13l-1.91-2.441.333-.963a1.75 1.75 0 00.088-.746l-.056-.562a1.75 1.75 0 00-.554-1.111l-.73-.674-.122-.104-.065-.047L0 7.47l.026-.016L3.505 6.16h.275l1.744.755c.142.062.293.105.447.127l.393.056c.209.03.421.022.627-.024l.505-.112c.195-.044.38-.12.549-.225l.449-.28c.21-.133.39-.308.528-.514l.449-.674.084-.141a1.75 1.75 0 00.187-1.106l-.111-.69L19.636.404 23.322 0z" id="id=map-praha"/></g><g id="stc" transform="translate(109.752 57.35)"><path d="M126.032 0l.301.258c.11.094.229.173.357.237l.673.337.147.065c.25.098.518.137.786.114l1.545-.133 1.403 1.655.097.105.505.506c.21.21.47.363.757.445l1.178.337.184.042c.246.043.5.032.743-.032l.319-.085.378 1.978c.032.166.087.326.165.475l.841 1.63.08.139c.087.135.192.258.313.366l2.346 2.082-.143.231a1.75 1.75 0 00-.132.254l-.28.674a1.75 1.75 0 00-.132.58l-.056 1.068c-.01.193.011.386.064.572l.225.787.041.126c.031.084.068.165.112.242l.501.904.332.873.69 4.938.047 1.088-.074.707-.152.395-.634 1.124-.637.957a1.75 1.75 0 00-.22.468l-.505 1.685a1.75 1.75 0 00-.07.4l-.113 1.909a1.75 1.75 0 00.013.334l.112.842c.015.11.04.217.074.322l.169.505c.146.44.462.805.877 1.012l.224.113 4.036 1.773.232.154.255.256.498.767.226.717.204 1.324c.021.14.06.276.114.406l.28.674c.075.18.179.345.307.49l.45.505c.147.167.325.304.525.403l.448.225c.244.122.512.185.784.185h1.178l.123-.004a1.75 1.75 0 00.244-.035l1.322-.285.347.027 2.125.479.144.026c.146.02.293.022.44.005l3.318-.382h.054l.276.234.146.317.187.486.241 1.931v1.629c0 .12.013.241.038.36l.224 1.067.352 1.412.045.151 1.258 3.613.037.162-.064.193-.138.23-1.208 1.26a1.75 1.75 0 00-.42.731l-.112.393a1.75 1.75 0 00-.06.322l-.057.618a1.75 1.75 0 00.252 1.075l.45.73.084.125c.12.162.267.302.435.414l1.169.78.475.519.661.806.933 1.425.029.068-.897.898a1.75 1.75 0 00-.37.548l-.337.787a1.75 1.75 0 00-.141.689v.674l.004.12c.005.08.017.16.033.24l.411 1.952v.192l-.021.227-1.317.351a1.75 1.75 0 00-.308.115l-1.515.73a1.75 1.75 0 00-.717.637l-.393.618a1.75 1.75 0 00-.005 1.871l.954 1.516c.07.11.151.213.243.305l.618.618c.078.079.164.15.257.212l1.907 1.292.142.087c.098.053.2.097.306.13l2.59.83.276.176 2.906 2.8.106.094.617.506.124.092c.17.116.36.201.56.251l.935.234.216.108.331.271.288.351-.312.942a1.75 1.75 0 00-.08.36l-.055.505-.01.155-.054 2.435-.234 1.216-.36 1.136-.03.106-.337 1.348a1.75 1.75 0 00-.042.231l-.112 1.011-.113 1.077-.009.128v.064l.037.944-.076.027c-.24.08-.46.21-.644.384l-.897.842a1.75 1.75 0 00-.34.439l-.673 1.235a1.75 1.75 0 00-.15.37l-.28 1.01-.041.189-.307 1.889-.096.237-.064.103-.141.126-.259.129-.584.117-1.823-.287a1.75 1.75 0 00-1.124.2l-.505.28-.114.069a1.75 1.75 0 00-.21.163l-2.676 2.42-2.614 1.007-.139.06-.067.035-3.084 1.849-.701-.442a1.75 1.75 0 00-.718-.257l-.449-.057a1.75 1.75 0 00-.77.077l-.674.225a1.75 1.75 0 00-.733.473l-.673.73a1.75 1.75 0 00-.313.476l-.45 1.011-.045.114a1.75 1.75 0 00-.067.236l-.187.886-.088.199-.53.796-1.832 2.104a1.75 1.75 0 00-.193.268l-.392.674a1.75 1.75 0 00-.192.48l-.225.956a1.75 1.75 0 00-.012.743l.112.562c.053.266.168.516.334.73l.393.506.102.12c.071.076.149.146.233.208l3.617 2.702.227.256.271.44.279.797.156.983-.05.338-5.395 2.63-1.591.265-.924-.407a1.75 1.75 0 00-.665-.148l-2.412-.056-.144.003a1.75 1.75 0 00-.422.077l-1.793.564-.803.08-.448-.028-2.976-1.283a1.75 1.75 0 00-.548-.137l-.673-.056a1.75 1.75 0 00-.394.011l-.392.056a1.75 1.75 0 00-1.187.73l-.393.561a1.75 1.75 0 00-.292.716l-.056.337-.018.151a1.75 1.75 0 00.058.604l.012.043-.78.418a1.75 1.75 0 00-.645.597l-.505.786-.06.1a1.75 1.75 0 00-.1.212l-.351.904-.136.25-.505.446-.037.016-.469-.47-.142-.212-.661-1.632a1.75 1.75 0 00-.65-.798l-.506-.337a1.75 1.75 0 00-.336-.175l-1.01-.393-.16-.054a1.75 1.75 0 00-.83-.03l-.905.187a1.685 1.685 0 00-.105-.341l-.079-.16-.28-.506a1.75 1.75 0 00-.378-.467l-.448-.393-.117-.093a1.75 1.75 0 00-.53-.265l-2.106-.638-.302-.232-.481-.614-.068-.081-.45-.506a1.75 1.75 0 00-1.453-.582l-.674.056a1.75 1.75 0 00-.982.406l-1.066.899a1.75 1.75 0 00-.329.368l-.561.842-.109.188-.505 1.011a1.75 1.75 0 00-.146.416l-.168.786-.024.139a1.75 1.75 0 00-.013.14l-.142 2.857-.123.171-.605.485-2.284.478a1.75 1.75 0 00-.426.148l-.561.28-.124.069a1.75 1.75 0 00-.331.26l-1.106 1.106-1.57 1.032-.504.126-.561.071-.312-.045-.007-.05a1.75 1.75 0 00-1.27-1.348l-1.066-.28-.172-.037a1.75 1.75 0 00-.349-.02l-9.034.386-1.062-.158-1.141-.593a1.75 1.75 0 00-.363-.14l-1.066-.281a1.75 1.75 0 00-.538-.055l-1.066.056-.196.021-.673.112-.15.032a1.75 1.75 0 00-.424.171l-3.578 2.024-.311.041-.127-.011-.12-.055-.021-.018-.426-.641a1.75 1.75 0 00-.274-.32l-.673-.617-.136-.113a1.75 1.75 0 00-.464-.248l-.338-.119-.156-.469a1.75 1.75 0 00-.664-.885l-.73-.506a1.75 1.75 0 00-.527-.247l-1.01-.281a1.75 1.75 0 00-.469-.064h-1.29a1.75 1.75 0 00-.38.042l-1.01.224a1.75 1.75 0 00-.354.12l-.73.337-.137.07a1.75 1.75 0 00-.367.282l-1.269 1.269-1.089.452-4.466.57-1.759-.045-.796-.293-.157-.05a1.75 1.75 0 00-.324-.053l-1.352-.097-.01-.004-.773-.602a1.75 1.75 0 00-.251-.162l-.842-.45a1.75 1.75 0 00-.51-.178l-.618-.112a1.75 1.75 0 00-.657.006l-.561.112a1.75 1.75 0 00-.476.17l-.954.505a1.75 1.75 0 00-.344.24l-.505.448a1.75 1.75 0 00-.402.526l-.449.898-.059.132-.025.068-.306.987-3.444 1.069-.145.052a1.75 1.75 0 00-.272.14l-1.005.635-1.177.61-.289.039-.156-.024-1.13-.653-.453-.302a1.75 1.75 0 00-.418-.205l-1.01-.337-.162-.045a1.75 1.75 0 00-.335-.044l-1.435-.046-.754-.533a1.75 1.75 0 00-1.01-.32h-.841l-.185.01a1.75 1.75 0 00-.695.227l-1.483.863.1-.554a1.75 1.75 0 00.029-.313v-.73c0-.108-.01-.216-.03-.322l-.169-.899a1.75 1.75 0 00-.263-.647l-.561-.843-.075-.104-.68-.874-.131-.263-.132-.464-.091-1.03.055-3.116a1.75 1.75 0 00-.052-.455l-.168-.674a1.75 1.75 0 00-.082-.248l-.28-.674a1.75 1.75 0 00-.293-.473l-.73-.842a1.75 1.75 0 00-.319-.288l-.56-.393-.101-.066a1.75 1.75 0 00-.214-.11l-.573-.245.167-.167a1.75 1.75 0 00.328-.454l.168-.337a1.75 1.75 0 00.05-1.455l-.297-.709.073-.128c.05-.1.092-.204.123-.313l.112-.393a1.75 1.75 0 00.015-.904l-.112-.45-.05-.164a1.75 1.75 0 00-.47-.706l-.613-.558.599-.599.682-.443.73-.324 2.301-.523a1.75 1.75 0 00.45-.17l.618-.337c.147-.08.281-.181.4-.3l.617-.617 2.137-2.368a1.75 1.75 0 00.266-.39l.28-.561a1.75 1.75 0 00.168-1.03l-.056-.393a1.75 1.75 0 00-.094-.366l-.168-.45a1.75 1.75 0 00-.8-.922l-.618-.337-.127-.061.044-.263.811-2.757a1.75 1.75 0 00.064-.335l.056-.618.007-.177a1.75 1.75 0 00-.04-.353l-.253-1.166-.022-.329.873-2.281a1.75 1.75 0 00.082-.283l.168-.842.02-.114a1.75 1.75 0 00.014-.23v-1.262l-.154.025a1.75 1.75 0 00.518-.14l1.01-.45c.52-.23.894-.698 1.005-1.255l.112-.562a1.75 1.75 0 00.027-.501l-.056-.618-.015-.12a1.75 1.75 0 00-.054-.233l-.809-2.641-.069-.417v-.664l.057-.151a1.75 1.75 0 00-.162-1.553l-.392-.618a1.75 1.75 0 00-.24-.298l-.729-.73-.132-.12a1.75 1.75 0 00-.298-.196l-3.634-1.889-.082-.316a1.75 1.75 0 00-.236-.526l-.337-.505a1.75 1.75 0 00-.485-.486l-.505-.337-.146-.087a1.75 1.75 0 00-.313-.13l-2.574-.789-.214-.119-.33-.264-2.03-2.3a1.75 1.75 0 00-.395-.332l-.73-.45-.134-.075-.898-.449a1.75 1.75 0 00-.302-.117l-1.57-.45a1.75 1.75 0 00-.365-.063l-.842-.057a1.75 1.75 0 00-.262.003l-.673.056-.14.017-.07.013-1.071.266-.809.081-.891-.099-.246-.171-3.88-3.774a1.75 1.75 0 00-.487-.334l-1.459-.674-.152-.062a1.75 1.75 0 00-.157-.047l-1.233-.308-1.01-.405a1.75 1.75 0 00-.868-.112l-.898.112-.169.03a1.75 1.75 0 00-.477.185l-1.045.592.27-.644a1.75 1.75 0 00.134-.673v-1.235l-.008-.163a1.75 1.75 0 00-.112-.474L0 65.512l.107-.149.479-.266 1.077-.28a1.75 1.75 0 00.298-.108l.842-.393.135-.07a1.75 1.75 0 00.362-.279l2.024-2.026.834-.59c.14-.1.266-.219.372-.355l.786-1.011.09-.129a1.75 1.75 0 00.146-.28l.724-1.76.987-1.531.193-.243.568-.334 4.772-1.976c.1-.04.195-.091.285-.15l3.535-2.303.1-.07a1.75 1.75 0 00.183-.16l.671-.672.563-.387.168-.056h.441l.184.037.652.304c.232.108.485.165.74.165h.393c.154 0 .307-.02.456-.06l1.459-.394.122-.038c.081-.028.16-.062.236-.102l7.54-3.962.372.296c.149.12.316.214.495.279l.618.225c.301.11.627.134.942.071l.56-.112a1.75 1.75 0 00.72-.327l.955-.73a1.75 1.75 0 00.245-.227l.449-.506.07-.084.819-1.048 4.519-2.827.277-.1.774.04c.078.004.156.002.233-.004l.674-.056a1.75 1.75 0 00.528-.13l.673-.28a1.75 1.75 0 00.817-.698l.45-.73c.097-.16.17-.334.212-.517l.224-.954.03-.16a1.75 1.75 0 000-.488l-.085-.588.08-.913.022-.077.704-.196 2.995-.099 1.757.38 1.806.638c.114.04.232.069.352.085l1.683.224.176.015a1.75 1.75 0 00.353-.025l6.042-1.042 2.248.844a1.75 1.75 0 001.22.003l1.066-.393.14-.059a1.75 1.75 0 00.384-.246l1.718-1.452.357-.238.195-.053 2.058-.197 1.31.102c.15.011.3.003.448-.023l.617-.113c.2-.036.393-.107.57-.21l.673-.393a1.75 1.75 0 00.547-.503l.674-.955.082-.127a1.75 1.75 0 00.129-.274l.478-1.292.306-.42a1.75 1.75 0 00.33-.905l.056-.786.005-.151a1.75 1.75 0 00-.065-.447l-.43-1.527.044-.953.002-.585-.008-.17a1.75 1.75 0 00-.037-.223l-.042-.152.35.07a1.75 1.75 0 001.127-.15l1.234-.618.12-.066c.077-.047.151-.1.221-.158l2.297-1.926.548-.319a1.75 1.75 0 00.192-.13l.505-.393a1.75 1.75 0 00.49-.6l.281-.56c.05-.101.091-.206.121-.315l.28-1.01a1.75 1.75 0 00.055-.286l.112-1.067.01-.183-.001-.647.095-.607.199-.338.029-.02.398-.125 3.307-.05 1.438.206.161.016.081.002.905-.038.188.977c.052.27.167.525.336.743l.393.506a1.75 1.75 0 001.116.656l.73.112c.154.024.31.027.466.009l1.46-.169c.079-.009.158-.024.235-.044l7.407-1.91.14-.042a1.75 1.75 0 00.394-.196l3.265-2.179 2.92-1.407a1.75 1.75 0 00.309-.19l.729-.561.135-.115.923-.875.436-.318 1.246-.675a1.75 1.75 0 00.297-.203l.73-.618c.11-.093.209-.2.293-.318l.561-.787.07-.105.061-.11.822-1.593.626-.794 1.601-1.342a1.75 1.75 0 00.29-.312l.45-.618.08-.12.661-1.092.166.067c.207.083.428.126.65.126h.674c.258 0 .513-.057.746-.167l.731-.345zM90.925 52.949l-.172.01-4.096.45a1.75 1.75 0 00-.3.06l-10.943 3.2a1.75 1.75 0 00-.63.337l-.336.28a1.75 1.75 0 00-.552.83l-.224.73-.04.155a1.75 1.75 0 00-.015.636l.027.175-1.252-.541a1.75 1.75 0 00-.695-.144h-.954a1.75 1.75 0 00-.61.11l-3.927 1.46a1.75 1.75 0 00-.3.144l-1.57.955a1.75 1.75 0 00-.516.48l-.28.392a1.75 1.75 0 00-.309.77l-.056.393c-.067.47.06.946.35 1.32l.394.506.098.116c.104.112.221.21.35.291l1.336.841-.26.757a1.75 1.75 0 00-.09.73l.056.618c.029.31.138.606.319.858l.28.393 1.968 2.52.46.88.4 1.4c.033.115.078.227.134.334l.561 1.067.068.117c.047.076.101.148.16.216l1.994 2.295.082.278-.143 1.814a1.75 1.75 0 00.012.385l.113.786c.048.34.196.658.424.915l.448.506c.239.268.554.457.903.54l1.179.28.155.03c.313.045.634.005.928-.118l3.299-1.386 5.76-1.033a1.75 1.75 0 00.221-.055l3.704-1.179a1.75 1.75 0 00.319-.138l.505-.28.115-.07a1.75 1.75 0 00.212-.166l1.167-1.063 1.029-.772.299-.086.08-.006.072.037c.05.023.102.044.155.061l.16.047 1.178.28.205.037 1.46.168c.099.012.199.015.299.009l2.974-.169a1.75 1.75 0 00.314-.046l1.851-.45a1.75 1.75 0 001.153-.918l.617-1.236a1.75 1.75 0 00.185-.782v-.617l-.008-.17a1.75 1.75 0 00-.122-.492l-.414-1.013.087-.912a1.75 1.75 0 00-.037-.559l-.168-.73-.04-.144-.025-.071-.165-.398 1.977-1.883a1.75 1.75 0 00.222-.258l.674-.955c.119-.169.207-.358.26-.558l.225-.842a1.75 1.75 0 00.035-.738l-.112-.674a1.75 1.75 0 00-.19-.55l-.336-.618a1.75 1.75 0 00-.462-.543l-.505-.393-.125-.089a1.75 1.75 0 00-.412-.196l-1.549-.5-.135-.082-.242-.29-.189-.379a1.75 1.75 0 00-.14-.234l-.562-.786a1.75 1.75 0 00-.395-.399l-.617-.449-.138-.09a1.75 1.75 0 00-.455-.19l-1.778-.458-.197-.59a1.75 1.75 0 00-.343-.6l-.392-.449-.116-.12a1.75 1.75 0 00-.127-.109l-.907-.706-1.204-1.257a1.75 1.75 0 00-.377-.298l-.953-.562a1.75 1.75 0 00-.566-.212l-.897-.168a1.758 1.758 0 00-.342-.03z" id="id=map-stredocesky" fill="#DDE1E6"/><path d="M78.43 93.863c-2.24 0-3.766 1.204-3.766 2.8 0 1.42.968 2.214 3.511 2.796l.269.06.468.11c1.846.452 2.374.83 2.374 1.57 0 .826-.812 1.316-2.17 1.316-1.722 0-2.632-.728-2.912-2.296l-1.778.336c.336 2.24 2.03 3.514 4.676 3.514 2.422 0 3.99-1.12 3.99-2.884 0-1.61-1.086-2.502-3.65-3.103l-.74-.168-.432-.106c-1.412-.364-1.8-.654-1.8-1.173 0-.714.812-1.218 1.946-1.218 1.344 0 2.24.644 2.534 1.82l1.75-.406c-.392-1.806-2.086-2.968-4.27-2.968zm20.328-.014c-2.853-.041-5.04 2.074-5.11 4.892v.218c-.042 2.926 2.184 5.152 5.11 5.11 2.422 0 4.256-1.386 4.676-3.584l-1.736-.406c-.294 1.512-1.414 2.38-2.94 2.38-1.918 0-3.29-1.428-3.29-3.5 0-2.086 1.372-3.514 3.29-3.514 1.47 0 2.548.798 2.926 2.184l1.722-.434c-.448-2.016-2.296-3.346-4.648-3.346zm-5.992.21h-8.918v1.61h3.542v8.19h1.806v-8.19h3.57v-1.61z" fill="#FFF"/></g><g id="lbk" transform="translate(186.874 3.682)"><path d="M53.975 0l.022.016c.157.093.328.162.507.204l3.4.781.35.62c.078.138.174.265.286.377l.954.954c.141.141.305.257.485.343l1.178.562A1.75 1.75 0 0062.215 4l.954-.168.148-.033a1.75 1.75 0 001.26-1.334l.174-.833.697 1.744.062.137c.291.58.884.955 1.542.963l4.302.051 1.395.717.777 1.23-.032.374-.524 1.05a1.75 1.75 0 00-.13.348l-.617 2.415a1.75 1.75 0 00-.036.688l.28 1.91c.014.092.035.184.064.274l.73 2.302.078.204 1.01 2.19c.034.073.072.143.115.21l.898 1.405c.098.152.218.29.358.405l1.627 1.348.143.106c.098.066.203.122.313.166l1.25.51.699.605.721 1.764v.793l-.199 1.148-.024.22-.056 1.236c-.012.273.04.546.152.797l.505 1.123c.212.47.62.823 1.115.965l1.179.337a1.75 1.75 0 001.719-.446l.954-.955.108-.118a1.75 1.75 0 00.18-.264l.726-1.297.179-.235 2.336-.188 5.436 1.89.918 2.973.047.132.027.065 2.681 5.424.099.472-.055.236-.235.615a1.75 1.75 0 00-.07.227l-.225.955a1.75 1.75 0 00-.038.235l-.112 1.18a1.75 1.75 0 00-.007.24l.113 2.584c.003.085.013.169.029.251l.224 1.18c.022.116.056.23.101.339l.393.954.062.134c.044.088.097.171.156.25l.95 1.268.27.464.162.423.063.407v1.307l-.574 2.561a1.75 1.75 0 00-.019.67l.169 1.012.028.136c.022.09.052.178.088.263l2.739 6.414.108.504.034.484-.041.305-5.402-.957-.477-.309-1.594-1.698a1.75 1.75 0 00-.348-.286l-.449-.281a1.75 1.75 0 00-.928-.267h-.954a1.75 1.75 0 00-.567.095l-2.132.73a1.75 1.75 0 00-.405.2l-.505.337a1.75 1.75 0 00-.701.941l-.224.73-.035.13a1.75 1.75 0 00-.039.267l-.27 3.999-.141.563-.019.038-.871-.753-2.415-3.117a1.75 1.75 0 00-.272-.28l-1.571-1.291a1.75 1.75 0 00-.452-.27l-3.592-1.46a1.75 1.75 0 00-.659-.129h-.898a1.75 1.75 0 00-.65.126l-.842.337-.15.068a1.75 1.75 0 00-.517.405l-3.014 3.447-4.248-3.578a1.75 1.75 0 00-.49-.29l-1.29-.506-.168-.057a1.75 1.75 0 00-.702-.048l-.769.101-1.859-1.649-.576-1.116-.681-3.568-.033-.14a1.75 1.75 0 00-2.132-1.224l-1.668.439-.279-.08-.133-.133-1.526-1.8a1.75 1.75 0 00-.284-.268l-.449-.337a1.75 1.75 0 00-.626-.298l-.449-.112-.141-.03a1.75 1.75 0 00-.433-.016l-1.473.126-.038-.019-.623-.534a1.75 1.75 0 00-.98-.415l-.618-.056a1.75 1.75 0 00-.502.027l-.561.112-.138.034c-.09.026-.179.059-.264.1l-.576.269-.497-.199a1.75 1.75 0 00-.433-.112l-.45-.056a1.75 1.75 0 00-.906.128l-.393.169a1.75 1.75 0 00-.64.47l-.336.393-.088.112-.041.058-.958 1.575-.278.382-1.573 1.321a1.75 1.75 0 00-.25.257l-.84 1.067-.098.137a1.75 1.75 0 00-.084.145l-.842 1.63-.361.505-.424.359-1.187.645a1.75 1.75 0 00-.196.123l-.617.45-.131.105-.989.932-.514.396-2.866 1.381-.107.057-.104.064-3.12 2.081-7.002 1.806-.709.081-.114-.596a1.75 1.75 0 00-.103-.342l-.281-.674a1.75 1.75 0 00-.747-.847l-.393-.224a1.75 1.75 0 00-.694-.223l-.561-.056-.125-.008h-.063l-1.191.05-1.41-.201-.136-.014-.069-.003-3.279.048-.268-1.294-.043-.164a1.75 1.75 0 00-.554-.828l-5.496-4.558L.043 43.098 0 42.814l.055-.099.098-.112.956-.592.134-.092a1.75 1.75 0 00.577-.766l1.426-3.704.112-.149 1.751-1.699a1.75 1.75 0 00.347-.473l.224-.45a1.7 1.7 0 00.15-.439l.113-.561.019-.114a1.75 1.75 0 00.015-.23V32.2l.056-.222.367-.637.883-.835.11-.116c.211-.24.353-.533.409-.85l.638-3.613 2.999 3.118c.227.237.517.405.836.484l.674.169c.268.067.549.07.818.007l.73-.168a1.75 1.75 0 00.636-.29l.617-.45a1.75 1.75 0 00.37-.365l.505-.674a1.75 1.75 0 00.144-.227l.45-.842a1.75 1.75 0 00.158-.422l.225-.955.025-.127.015-.128.157-1.886.004-.015 1.677-.152a1.75 1.75 0 00.71-.224l.393-.225.128-.08a1.75 1.75 0 00.427-.422l.028-.041 1.969.541.887.508 3.11 2.348c.2.151.43.258.675.312l3.03.674c.107.024.216.037.325.04l1.796.057a1.75 1.75 0 00.48-.051l1.346-.337a1.75 1.75 0 00.888-.54l.842-.956a1.75 1.75 0 00.24-.352l.786-1.516.087-.197.853-2.301.48.016.177-.003a1.75 1.75 0 00.348-.06l2.74-.762 9.124.653a1.75 1.75 0 001.855-1.486l.169-1.123a1.75 1.75 0 00.019-.281l-.056-4.55-.009-.15-.021-.15-.126-.672.008-.116.629-.67a1.75 1.75 0 00.383-.644l.224-.674a1.75 1.75 0 00.09-.578l-.056-3.82a1.75 1.75 0 00-.314-.974l-1.29-1.853-.105-.135a1.75 1.75 0 00-.245-.236l-.731-.58.315-.117a1.75 1.75 0 00.372-.193L53.694.24a1.75 1.75 0 00.271-.229l.01-.012z" id="id=map-liberecky" fill="#DDE1E6"/><path d="M59.011 31.727h-1.806v9.8h1.806v-2.702l1.568-1.68h.028l3.192 4.382h2.226l-4.228-5.572 4.116-4.228h-2.492L59.04 36.36h-.028v-4.634zm-6.608 0c1.68 0 2.898 1.078 2.898 2.604 0 .84-.392 1.54-1.05 1.89v.028c.882.378 1.414 1.218 1.414 2.282 0 2.002-1.204 2.996-3.626 2.996h-4.886v-9.8zm-.224 5.446h-3.22v2.744h3.206c1.176 0 1.694-.434 1.694-1.386 0-.91-.546-1.358-1.68-1.358zm-.098-3.85H48.96v2.408h3.122c.938 0 1.414-.406 1.414-1.218 0-.77-.504-1.19-1.414-1.19zm-11.606-1.596H38.67v9.8h7.028v-1.61h-5.222v-8.19z" fill="#FFF"/></g><g id="hkk" transform="translate(251.27 34.895)"><path d="M34.5 0l6.449 2.297.463.299.86 1.36c.084.133.185.254.301.36l.617.56c.189.172.413.3.656.377l.898.28.181.047c.245.048.499.044.743-.014l6.63-1.565.464.039.227.636c.036.103.082.202.138.296l4.208 7.189c.214.366.554.641.956.776l.505.168c.193.064.394.095.597.09l2.3-.057.148-.01a1.75 1.75 0 00.43-.103l4.479-1.701.4.048.485.462.898 1.751.652 1.606.334 1.338-.078.528-.681.586a1.75 1.75 0 00-.552.877l-.224.843a1.75 1.75 0 00.008.93l.225.787a1.75 1.75 0 002.01 1.239l3.535-.674.165-.04c.271-.08.52-.224.724-.422l4.526-4.381 2.223.211 2.178 1.707c.117.091.244.168.38.227l1.291.561a1.75 1.75 0 001.042.112l1.403-.281a1.75 1.75 0 001.035-.638l1.01-1.292.087-.122a1.75 1.75 0 00.195-.403l.525-1.581.198-.414.028-.006 2.63.048 2.261.566 2.09 1.209 6.609 7.035.166.56-1.125.466-.138.064a1.75 1.75 0 00-.854 2.106l.176.53-.33.602a1.75 1.75 0 00-.2.611l-.225 1.685-.012.116-.003.115-.001.374-.131.262-1.524 1.477-.115.122a1.75 1.75 0 00-.102.132l-.383.548-.306.061-2.235-.619a1.75 1.75 0 00-1.021.027l-1.347.45-.148.056a1.75 1.75 0 00-.941 1.001l-.462 1.26-.766.661-1.315.76-.123.079-.117.088-1.064.879-.175.067-.133.056a1.75 1.75 0 00-.249.144l-.366.253-.205.029c-.733.14-1.27.724-1.391 1.417l-.018.125-.114.048a1.747 1.747 0 00-.93 1.049l-.674 2.078a1.75 1.75 0 00.008 1.104l.786 2.303.057.146a1.75 1.75 0 001.277 1.009l1.668.313.748 2.322c.027.084.06.166.1.246l.393.786c.115.23.279.432.48.591l1.067.843a1.75 1.75 0 001.398.348l.617-.112.173-.04a1.75 1.75 0 00.623-.328l.379-.312.383-.135h3.05l.082.163.032.686-.1 1.055a1.75 1.75 0 00.023.493l.225 1.18c.049.258.156.503.314.715l1.458 1.966.109.132c.19.21.43.372.698.47l3.49 1.269 1.407.982.95 1.358 2.09 3.742.093.15 1.127 1.612 1.024 1.833.081.131c.058.085.123.165.195.239l2.261 2.313.724 1.994.879 4.337-4.266-1.368a1.75 1.75 0 00-1.318.101l-.449.225a1.75 1.75 0 00-.617.515l-.336.45a1.75 1.75 0 00-.245.451l-.224.618a1.75 1.75 0 00-.067.231l-.168.787-.022.126-.008.063-.106 1.619-.088.306-8.19 3.918a1.75 1.75 0 00-.398.262l-.45.393a1.75 1.75 0 00-.28.314l-.393.562-.095.15a1.75 1.75 0 00-.185.498l-.296 1.43-.188.409-.215.307-.196.196-.578.29-7.085.699a1.75 1.75 0 00-.467.112l-1.29.505-.137.06a1.75 1.75 0 00-.255.155l-.114.082-2.147-1.847-.133-.104a1.75 1.75 0 00-.608-.273l-.563-.133-1.086-1.418a1.75 1.75 0 00-.268-.28l-.337-.28-.13-.1a1.75 1.75 0 00-.597-.262l-.484-.112-.513-.289-.71-.63-.644-.947-.56-1.171a1.75 1.75 0 00-.426-.562l-.449-.393-.144-.113a1.75 1.75 0 00-.665-.287l-4.431-.887-.022-.015-.068-.127-.077-.36v-2.455a1.75 1.75 0 00-.024-.287l-.112-.674a1.75 1.75 0 00-.127-.423l-.224-.505a1.75 1.75 0 00-.549-.69l-.449-.337a1.75 1.75 0 00-.521-.268l-2.3-.73a1.75 1.75 0 00-.587-.081l-3.479.112a1.75 1.75 0 00-.633.14l-.785.338-.148.071a1.75 1.75 0 00-.394.294l-4.262 4.219-.132-.318-.752-3.174a1.75 1.75 0 00-.302-.646l-.337-.449a1.75 1.75 0 00-.71-.559l-.393-.168a1.75 1.75 0 00-1.168-.076l-4.153 1.18a1.75 1.75 0 00-.922.634l-.505.674a1.75 1.75 0 00-.165.267l-.393.786-.06.137a1.75 1.75 0 00-.05.14l-.772 2.559-2.568-1.757a1.75 1.75 0 00-.564-.253l-.448-.112-.182-.036a1.75 1.75 0 00-.73.052l-2.286.661h-.574l-2.884-1.443a1.75 1.75 0 00-.942-.178l-1.234.112a1.75 1.75 0 00-.603.167l-1.627.786-.16.088a1.75 1.75 0 00-.288.223l-4.429 4.232-2.676-1.026-.015-.1a1.75 1.75 0 00-.045-.172l-.061-.167-.337-.787a1.75 1.75 0 00-.145-.27l-1.066-1.628-.113-.153-.785-.955-.678-.744-.1-.1a1.75 1.75 0 00-.22-.174l-.798-.533.81-.843c.09-.095.17-.2.238-.312l.336-.562c.066-.11.12-.225.16-.346l.28-.843a1.75 1.75 0 00.045-.946l-.168-.73-.053-.182-1.266-3.636-.316-1.268-.173-.826.001-1.558-.014-.217-.28-2.246a1.75 1.75 0 00-.103-.41l-.28-.731-.045-.105-.337-.73a1.75 1.75 0 00-.458-.603l-.73-.618a1.75 1.75 0 00-.28-.194l-.505-.28a1.75 1.75 0 00-.85-.22h-.618l-.2.01-3.127.359-1.955-.44a1.75 1.75 0 00-.25-.037l-.73-.056-.168-.005a1.75 1.75 0 00-.333.039l-1.39.297h-.42l-.055-.132-.191-1.248a1.75 1.75 0 00-.06-.26l-.337-1.067a1.75 1.75 0 00-.202-.427l-.73-1.123a1.75 1.75 0 00-.229-.284l-.505-.505a1.75 1.75 0 00-.266-.22l-.505-.336-.131-.08-.068-.035L.023 53.17 0 52.995l.091-1.538.371-1.239.53-.792.066-.11.73-1.291a1.75 1.75 0 00.11-.233l.28-.73a1.75 1.75 0 00.107-.445l.112-1.067a1.75 1.75 0 00.008-.259l-.056-1.292-.015-.166-.73-5.223a1.75 1.75 0 00-.097-.38l-.45-1.18-.048-.115-.057-.112-.463-.835-.09-.312.025-.474.112-.267.483-.772.077-.137a1.75 1.75 0 00.064-.142l.007-.02 4.31 3.63c.106.09.221.166.345.227l.56.281c.185.093.385.152.59.174l.505.057c.31.034.621-.014.905-.14l.505-.225.136-.068a1.75 1.75 0 00.47-.38l3.258-3.727.137-.055h.22l3.027 1.231 1.213.996 2.407 3.105c.07.091.15.176.238.251l1.235 1.067c.126.11.268.2.42.27l.617.28c.174.08.36.13.55.149l.561.056c.228.023.458 0 .678-.065l.561-.169c.244-.073.47-.2.66-.369l.505-.449a1.75 1.75 0 00.402-.525l.337-.674a1.75 1.75 0 00.132-.358l.225-.899.03-.152a1.75 1.75 0 00.018-.154l.258-3.833 1.43-.489h.088l1.486 1.583c.097.103.206.194.325.271l.954.618c.196.127.416.213.646.254l6.34 1.123c.205.037.415.036.62-.001l.617-.112a1.75 1.75 0 00.84-.406l.448-.393a1.75 1.75 0 00.436-.583l.337-.73a1.75 1.75 0 00.146-.502l.112-.843a1.75 1.75 0 00.01-.355l-.055-.787a1.75 1.75 0 00-.035-.241l-.168-.787-.043-.163a1.75 1.75 0 00-.059-.158l-2.724-6.378-.078-.466.543-2.42a1.75 1.75 0 00.043-.382V19.42a1.75 1.75 0 00-.02-.266l-.113-.73a1.75 1.75 0 00-.096-.362l-.28-.73a1.75 1.75 0 00-.122-.253l-.393-.674-.111-.168-.878-1.171-.24-.584-.168-.882-.101-2.34.09-.937.169-.719.239-.62a1.75 1.75 0 00.071-.235l.169-.73a1.75 1.75 0 00.007-.753l-.225-1.067-.036-.143a1.75 1.75 0 00-.107-.273L34.607.346 34.5 0z" id="id=map-kralovohradecky" fill="#DDE1E6"/><path d="M66.616 49.514H64.81v9.8h1.806v-2.702l1.568-1.68h.028l3.192 4.382h2.226l-4.228-5.572 4.116-4.228h-2.492l-4.382 4.634h-.028v-4.634zm-9.842 0h-1.806v9.8h1.806v-2.702l1.568-1.68h.028l3.192 4.382h2.226l-4.228-5.572 4.116-4.228h-2.492l-4.382 4.634h-.028v-4.634zm-10.696 0h-1.806v9.8h1.806v-4.186h4.984v4.186h1.806v-9.8h-1.806v3.99h-4.984v-3.99z" id="HKK" fill="#FFF"/></g><g id="msk" transform="translate(418.317 95.363)"><path d="M45.089 0l1.1 1.491-.04.096-.897 2.415a1.75 1.75 0 00-.092.363l-.168 1.18a1.75 1.75 0 00.006.534l.224 1.348.033.152c.078.3.235.576.455.797l.658.658.785 1.469-.331.829-1.189 1.068-3.275 1.925-1.843.738-3.685.156a1.75 1.75 0 00-.709.184l-.898.449a1.75 1.75 0 00-.795.81l-.618 1.292c-.157.33-.207.7-.144 1.058l.168.955c.05.286.171.554.35.782l4.04 5.11c.18.226.411.405.675.52l1.291.561c.292.128.614.172.93.13l.841-.112.158-.028a1.75 1.75 0 00.582-.25l.375-.252.161-.03.518.136 1.47.719-.078.207a1.75 1.75 0 00-.04 1.142l.225.73c.084.273.233.52.435.723l.785.786.672.755.421 1.094.426 1.494.074.209.674 1.572c.046.11.104.213.171.31l.898 1.292c.061.087.13.17.206.244l5.386 5.336c.24.238.545.401.876.47l2.974.618c.283.058.576.046.853-.036l3.03-.899.145-.05a1.75 1.75 0 00.52-.318l2.153-1.912.921-.239 3.118-.105a1.75 1.75 0 00.43-.07l2.694-.785a1.75 1.75 0 00.944-.677l.393-.562.093-.148a1.75 1.75 0 00.216-1.006l-.08-.915.864.573-.255 1.194a1.75 1.75 0 00.362 1.48l1.066 1.292.117.128c.246.244.56.41.903.477l5.006.959.837.456 2.498 2.13c.118.1.25.184.39.25l.953.45.13.055c.089.033.18.059.273.077l1.59.318.329.238.086.187.523 1.885c.035.123.082.242.142.355l.45.842c.111.21.264.395.45.543l1.683 1.348c.4.32.92.449 1.422.353l1.178-.225a1.75 1.75 0 00.828-.404l2.3-2.022.109-.104.098-.111.006-.01 1.239-.147 2.676.939 6.044 3.355c.26.144.552.22.85.22h1.907l.168-.008a1.75 1.75 0 00.78-.271l2.074-1.338.205.938-.145 1.7a1.75 1.75 0 00.033.516l.336 1.572.043.161c.133.42.42.778.808.997l.342.192-.87 1.026a1.75 1.75 0 00-.418 1.133v3.426c0 .208.037.414.11.609l1.459 3.931.07.165 1.872 3.8.796 3.559c.034.152.088.298.161.436l.505.955c.13.245.316.456.543.615l1.122.786.155.097c.214.119.45.191.694.213l2.356.209.661.189.669.564 1.534 1.8c.114.134.248.25.397.344l1.066.674c.328.207.715.3 1.101.263l1.178-.113.174-.025a1.75 1.75 0 00.334-.102l1.165-.486.368-.064.181.132.105.315.54 4.268c.015.113.04.225.077.333l.392 1.18.05.13.928 2.189.337 1.009 1.137 5.254.196 2.314-.078.496-1.977.065a1.75 1.75 0 00-.55.108l-1.516.562-.156.067a1.75 1.75 0 00-.42.285l-2.957 2.717-1.365.066-1.981-.599-2.559-1.28a1.75 1.75 0 00-.44-.152l-.56-.112a1.75 1.75 0 00-.657-.006l-.618.113-.172.04a1.75 1.75 0 00-.327.131l-1.861.975-3.09-.428a1.75 1.75 0 00-1.177.255l-1.684 1.067a1.75 1.75 0 00-.676.8l-.449 1.067-.06.166a1.75 1.75 0 00-.069.347L112 108.08l-.19.543-.208.208-2.515 1.336-.152.09a1.75 1.75 0 00-.39.357l-3.355 4.157-1.009.643-1.714-.36-.139-.023a1.738 1.738 0 00-1.14.247l-.084.057-.53-2.873-.03-.133-.224-.842a1.75 1.75 0 00-.18-.43l-.392-.675a1.75 1.75 0 00-.157-.226l-.505-.618-.124-.136a1.75 1.75 0 00-.287-.23l-1.208-.774-.227-.25-1.628-3.469a1.75 1.75 0 00-.203-.33l-.392-.506a1.75 1.75 0 00-.81-.58l-1.458-.505-.144-.043a1.75 1.75 0 00-.445-.053l-6.021.053-.02-.006-2.228-1.622a1.75 1.75 0 00-.34-.193l-.785-.337-.167-.062a1.75 1.75 0 00-.698-.071l-12.686 1.269-.168-.026-.082-.049-.118-.118-.093-.17-.283-1.372a1.75 1.75 0 00-.115-.356l-.224-.506a1.75 1.75 0 00-.422-.584l-.617-.562-.122-.101a1.75 1.75 0 00-1.029-.354l-2.875-.045-.778-.88a1.75 1.75 0 00-.237-.222l-1.01-.787-.145-.101a1.75 1.75 0 00-.486-.21l-1.184-.312-.044-.422a1.75 1.75 0 00-.055-.292l-.393-1.404-.07-.2-.28-.675a1.75 1.75 0 00-.223-.387l-.898-1.18a1.75 1.75 0 00-.259-.273l-2.244-1.91-.12-.092a1.75 1.75 0 00-.259-.153l-2.312-1.107-.134-.135-2.395-5.06a1.75 1.75 0 00-.273-.414l-.449-.505a1.75 1.75 0 00-.929-.546l-.505-.113a1.75 1.75 0 00-.994.07l-.45.169-.123.051a1.75 1.75 0 00-.233.131l-.693.463-.003-.038.434-4.121a1.75 1.75 0 00-.024-.526l-.112-.562a1.75 1.75 0 00-.282-.66l-.393-.562a1.75 1.75 0 00-.298-.328l-1.908-1.628a1.75 1.75 0 00-.353-.234l-2.357-1.18-.158-.07a1.75 1.75 0 00-1.179-.025l-2.692.898-1.312-.103-2.644-1.814a1.75 1.75 0 00-.99-.306h-.45c-.271 0-.54.063-.782.185l-.45.224-.144.081a1.75 1.75 0 00-.136.095l-1.396 1.067-3.199-.171-.62-.31-6.123-6.67a1.75 1.75 0 00-.69-.461l-.618-.225a1.75 1.75 0 00-.942-.071l-.561.112-.172.043a1.75 1.75 0 00-.326.138l-1.764.966-6.282-3.194-.16-.961a1.75 1.75 0 00-.16-.495l-.17-.337a1.75 1.75 0 00-.696-.737l-.393-.225-.147-.075a1.75 1.75 0 00-.474-.138l-3.33-.476-.431-.172L0 57.835l.368-4.424.118-.511.098-.269 2.202-2.939a1.75 1.75 0 00.208-.36l.168-.393a1.75 1.75 0 00.074-1.17l-.224-.786-.06-.172a1.75 1.75 0 00-.4-.6L.462 44.17l-.12-.239-.085-.342-.035-.45.031-.402.115-.376.203-.371 4.88-6.88a1.75 1.75 0 00.137-.231l.28-.562a1.75 1.75 0 00.176-.608l.057-.561.008-.174v-.618l-.006-.143a1.75 1.75 0 00-.046-.281l-.878-3.515.057-.126.776-1.242a1.75 1.75 0 00.213-.503l.169-.674.028-.136.018-.139.151-1.775.182-.583.231-.462.778-.896 6.414-3.614.137-.085a1.75 1.75 0 00.452-.456l1.621-2.388.498.31c.277.17.596.261.922.261h.561c.223 0 .444-.042.65-.125l.562-.225a1.75 1.75 0 00.52-.324l.562-.505a1.75 1.75 0 00.244-.272l.45-.618a1.75 1.75 0 00.12-.191l.337-.618a1.75 1.75 0 00.123-.284l.225-.674a1.75 1.75 0 00.061-.24l.113-.618.02-.15a1.75 1.75 0 00-.016-.452l-.245-1.455.434.055c.144.018.29.018.434 0l.45-.057a1.75 1.75 0 00.8-.312l.392-.281.119-.093a1.75 1.75 0 00.21-.214l2.011-2.425 2.966-.296 7.167 1.304c.253.046.513.036.762-.03l1.907-.505c.25-.066.481-.187.678-.353l1.403-1.179c.11-.093.21-.2.294-.316l2.469-3.426a1.75 1.75 0 00.193-.345L45.089 0z" id="id=map-moravskoslezsky" fill="#DDE1E6"/><path d="M72.031 60.85c-2.24 0-3.766 1.204-3.766 2.8 0 1.421.968 2.214 3.512 2.797l.268.06c2.226.503 2.842.881 2.842 1.68 0 .825-.812 1.315-2.17 1.315-1.722 0-2.632-.728-2.912-2.296l-1.778.336c.336 2.24 2.03 3.514 4.676 3.514 2.422 0 3.99-1.12 3.99-2.884 0-1.61-1.086-2.501-3.65-3.102l-.74-.168-.431-.107c-1.413-.363-1.8-.653-1.8-1.173 0-.714.811-1.218 1.945-1.218 1.344 0 2.24.644 2.534 1.82l1.75-.406c-.392-1.806-2.086-2.968-4.27-2.968zm7.868.196h-1.806v9.8H79.9v-2.702l1.568-1.68h.028l3.192 4.382h2.226l-4.228-5.572 4.116-4.228H84.31l-4.382 4.634H79.9v-4.634zm-22.82 0h-2.184v9.8h1.806v-7.042h.028l3.668 7.042h.728l3.668-7.042h.028v7.042h1.806v-9.8h-2.184l-3.668 7.21h-.028l-3.668-7.21z" id="MSK" fill="#FFF"/></g><g id="plk" transform="translate(25.025 122.7)"><path d="M73.199 0l.201.289c.06.085.126.165.2.238l.56.562c.121.12.258.222.408.303l.73.393c.133.072.276.127.423.162l3.76.899c.105.025.211.04.319.045l1.122.056h.173a1.75 1.75 0 00.814-.246l.042-.029.058.149v.555l-.426 1.026-.36.957a1.75 1.75 0 00-.112.614v.562c0 .365.114.72.326 1.017l.28.393c.203.283.484.5.81.622l.449.168c.16.06.328.096.498.108l.842.056a1.75 1.75 0 00.541-.049l.898-.224.152-.045c.099-.035.195-.079.287-.13l1.381-.785.105-.013.703.282.112.04.114.033 1.187.297 1.038.479 3.77 3.667c.068.067.143.129.223.184l.73.505c.238.166.514.27.802.301l1.515.169c.123.013.246.014.368.002l1.122-.113.126-.017.125-.026.98-.246.406-.034.526.035 1.235.354.68.34.443.272 1.961 2.221c.067.076.14.145.218.208l.561.45c.077.06.158.115.244.163l.505.28.109.057c.074.034.15.064.229.087l2.491.763.2.761.05.156c.149.409.446.75.836.952l4.08 2.121.256.256-.005.114v1.123c0 .096.008.193.024.288l.112.673.023.114.03.11.671 2.195-.425.048a1.75 1.75 0 00-1.284.8l-.392.618-.083.144a1.75 1.75 0 00-.19.795l-.001 2.073-.105.525-.957 2.505a1.75 1.75 0 00-.112.742l.056.842.013.128.023.127.223 1.028-.017.181-.792 2.7-.047.206-.112.674-.02.153-.055.73c-.03.39.071.78.288 1.105l.337.505.1.136c.178.218.406.39.666.502l.075.032-1.414 1.569-.376.373-.183.1-2.233.509a1.75 1.75 0 00-.323.107l-1.01.45a1.75 1.75 0 00-.24.13l-.954.617a1.75 1.75 0 00-.286.232l-.954.955-.13.144-.448.562a1.75 1.75 0 00-.278.495l-.225.618a1.75 1.75 0 00.144 1.497l.337.562.095.142c.067.09.144.176.228.252l.12.109-.083.073c-.351.329-.553.79-.553 1.276v.168l.008.163c.045.483.289.927.674 1.223l.067.048-.084.14a1.75 1.75 0 00-.203.624l-.056.45c-.025.199-.015.4.028.596l.225 1.01c.043.195.119.38.224.548l.28.45c.141.225.331.415.557.556l.449.281.116.067.122.058.62.265.233.163.405.469.122.292.081.326-.052 2.968.006.182.112 1.291c.01.112.03.222.061.33l.225.786c.03.104.069.205.117.301l.28.562.055.101c.039.066.082.13.13.19l.744.959.328.493.073.388v.415l-.176.965-.58 1.796a1.75 1.75 0 00-.085.538v1.18l.01.183c.02.183.067.361.142.53l1.118 2.505.996 3.828.075.746-.068.375-.544 2.332a1.75 1.75 0 00-.039.246l-.168 1.966a1.75 1.75 0 00.01.397l.225 1.572.45 2.265.081.777-.046.347-.234.468-1.545 2.653-.085.166-.73 1.628-.05.124-.04.127-.415 1.506-.381.866-.033.025-1.346.862a1.75 1.75 0 00-.339.284l-.729.786a1.75 1.75 0 00-.454.973l-.112.899-.013.18a1.75 1.75 0 00.13.699l.374.917v.17l-.004.018-.139.249-.741 1.114a1.75 1.75 0 00-.283.777l-.056.505a1.75 1.75 0 00.041.617l.113.45c.056.226.157.438.297.625l.337.45.132.156.557.585-.778.488a1.75 1.75 0 00-.31.247l-.73.73-.117.13a1.75 1.75 0 00-.193.291l-2.139 4.06-.335.479-.347-.058a1.75 1.75 0 00-.978.118l-.785.337a1.75 1.75 0 00-.655.488l-.842 1.011a1.75 1.75 0 00-.287.488l-1.066 2.752c-.04.103-.07.21-.09.32l-.337 1.853a1.75 1.75 0 00-.026.385l.056 1.348.022.215.193 1.159-.036.719-.101.329-.176.303-1.636 1.638a1.75 1.75 0 00-.236.292l-1.907 2.977a1.75 1.75 0 00-.115.209l-1.795 3.875-.07.172a1.75 1.75 0 00-.05.178l-.023.137-.624.312a1.75 1.75 0 00-.729.684l-.785 1.348-.061.114-.052.118-.192.478-.081-.04-2.434-1.764-2.094-1.945-.81-1.351-.049-3.069a1.75 1.75 0 00-.145-.67l-.954-2.191-.069-.14a1.75 1.75 0 00-.278-.378l-3.399-3.512-2.454-3.33a1.75 1.75 0 00-.287-.305l-1.01-.843a1.75 1.75 0 00-.47-.28l-1.684-.675-.139-.048a1.75 1.75 0 00-.433-.075l-4.571-.206-1.596-.913-1-1.653-1.076-2.424a1.75 1.75 0 00-.188-.325l-7.744-10.558-.094-.118a1.75 1.75 0 00-.466-.377l-.729-.405-2.246-2.669-.188-.661-.097-1.071a1.75 1.75 0 00-.177-.624l-.505-1.011-.086-.152a1.75 1.75 0 00-.775-.668l-1.084-.477-2.114-2.218-.127-.12-1.178-1.011a1.75 1.75 0 00-.332-.224l-1.403-.73a1.75 1.75 0 00-.334-.133l-3.199-.898a1.75 1.75 0 00-1.052.033l-1.122.393-.146.058a1.751 1.751 0 00-1.025 1.543l.001.049-3.864-.578-1.085-.412-.808-.844-2.625-5.846a1.75 1.75 0 00-.359-.52l-1.683-1.684-.108-.1a1.75 1.75 0 00-.366-.238l-3.613-1.754-1.148-.985-.685-1.291-.368-1.705-.329-6.206a1.75 1.75 0 00-.639-1.261l-.617-.506-.129-.096a1.75 1.75 0 00-1.211-.284l-.473.062-.143-.041-.484-.516-.509-.721-.401-.891-.445-1.337-.304-1.369-.382-2.789a1.75 1.75 0 00-.143-.49l-.617-1.348a1.75 1.75 0 00-.278-.429l-.842-.955-.1-.104a1.75 1.75 0 00-.344-.258l-1.69-.966-.017-.021.142-.423.043-.15a1.75 1.75 0 00-.282-1.423l-.08-.103.067-.14a1.75 1.75 0 00.17-.87l-.113-1.742a1.75 1.75 0 00-.18-.67l-.674-1.347a1.75 1.75 0 00-.721-.751l-1.123-.618-.1-.05-2.618-1.231-1.077-.751-.95-.86-1.556-2.212-.711-1.375L0 44.433l.375-.771 2.82-1.202a1.75 1.75 0 00.552-.373l1.346-1.348a1.75 1.75 0 00.502-1.049l.225-2.078.01-.151.047-2.335.09.024a1.75 1.75 0 002.031-1.202l.567-1.858 1.825-3.383a1.75 1.75 0 00.115-.263l.673-1.966.04-.134a1.75 1.75 0 00.048-.275l.05-.558 2.04.38c.227.042.46.038.686-.01l.786-.168a1.75 1.75 0 00.471-.176l.617-.337.143-.086a1.75 1.75 0 00.257-.213l1.859-1.862 1.916.697c.126.046.256.077.39.093l1.402.169c.179.021.36.015.537-.019l1.178-.224a1.75 1.75 0 00.541-.2l.393-.225.129-.081a1.75 1.75 0 00.337-.306l2.231-2.631 5.163.09 1.35 1.392c.152.157.332.284.531.374l.617.281c.435.198.932.21 1.375.032l.281-.112.133-.06a1.75 1.75 0 00.249-.152l1.715-1.254 1.688.844c.114.058.234.102.358.133l1.347.337c.323.08.663.068.978-.038l.506-.168a1.75 1.75 0 00.763-.508l.393-.45.114-.144c.14-.2.239-.43.286-.671l1.02-5.216.076-.152.043-.038 7.515-4.062.126-.075a1.75 1.75 0 00.334-.284l1.652-1.81.218-.145 4.669.916 2.526 2.869c.182.206.409.366.663.468l1.123.45c.235.093.489.135.742.122l1.066-.056a1.75 1.75 0 00.523-.11l.45-.168a1.75 1.75 0 00.622-.401l.337-.337a1.75 1.75 0 00.47-.858l.112-.505.028-.16a1.75 1.75 0 00-.038-.644l-.919-3.676-.035-.45 3.955-.873a1.75 1.75 0 00.86-.472l.336-.337a1.75 1.75 0 00.502-1.43l-.056-.506-.026-.163a1.75 1.75 0 00-.098-.316L73.348.562l-.145-.51L73.199 0z" id="Path" fill="#DDE1E6"/><path d="M51.67 54.71c2.086 0 3.542 1.231 3.542 3.135 0 1.918-1.428 3.122-3.542 3.122h-3.29v3.542h-1.806v-9.8zm-.084 1.595H48.38v3.052h3.206c1.162 0 1.82-.532 1.82-1.526 0-1.05-.602-1.526-1.82-1.526zm6.734-1.596h-1.806v9.8h7.028V62.9H58.32v-8.19zm8.484 0h-1.806v9.8h1.806v-2.702l1.568-1.68h.028l3.192 4.382h2.226l-4.228-5.572 4.116-4.228h-2.492l-4.382 4.634h-.028V54.71z" fill="#FFF"/></g></g></g></svg>