<svg width="22" height="22" viewBox="0 0 22 22" fill="none" xmlns="http://www.w3.org/2000/svg">
<g clip-path="url(#clip0_201_2)">
<path d="M11 22C4.925 22 0 17.075 0 11C0 4.925 4.925 0 11 0C17.075 0 22 4.925 22 11C22 17.075 17.075 22 11 22ZM11 20C13.3869 20 15.6761 19.0518 17.364 17.364C19.0518 15.6761 20 13.3869 20 11C20 8.61305 19.0518 6.32387 17.364 4.63604C15.6761 2.94821 13.3869 2 11 2C8.61305 2 6.32387 2.94821 4.63604 4.63604C2.94821 6.32387 2 8.61305 2 11C2 13.3869 2.94821 15.6761 4.63604 17.364C6.32387 19.0518 8.61305 20 11 20Z" fill="white"/>
<path d="M11 15.5C10.7348 15.5 10.4804 15.3946 10.2929 15.2071C10.1054 15.0196 10 14.7652 10 14.5V8.5C10 8.23478 10.1054 7.98043 10.2929 7.79289C10.4804 7.60536 10.7348 7.5 11 7.5C11.2652 7.5 11.5196 7.60536 11.7071 7.79289C11.8946 7.98043 12 8.23478 12 8.5V14.5C12 14.7652 11.8946 15.0196 11.7071 15.2071C11.5196 15.3946 11.2652 15.5 11 15.5Z" fill="white"/>
<path d="M14.707 11.207C14.5194 11.3945 14.2651 11.4998 14 11.4998C13.7348 11.4998 13.4805 11.3945 13.293 11.207L11 8.91502L8.70697 11.207C8.53478 11.3792 8.30568 11.4826 8.06265 11.4979C7.81962 11.5132 7.57937 11.4393 7.38697 11.29L7.29297 11.207C7.1055 11.0195 7.00018 10.7652 7.00018 10.5C7.00018 10.2349 7.1055 9.98055 7.29297 9.79302L10.293 6.79302C10.4805 6.60555 10.7348 6.50023 11 6.50023C11.2651 6.50023 11.5194 6.60555 11.707 6.79302L14.707 9.79302C14.8944 9.98055 14.9998 10.2349 14.9998 10.5C14.9998 10.7652 14.8944 11.0195 14.707 11.207Z" fill="white"/>
</g>
<defs>
<clipPath id="clip0_201_2">
<rect width="22" height="22" fill="white" transform="matrix(-1 0 0 -1 22 22)"/>
</clipPath>
</defs>
</svg>
