<svg width="6" height="10" viewBox="0 0 6 10" fill="none" xmlns="http://www.w3.org/2000/svg">
<path d="M0.470097 9.52971C0.329646 9.38909 0.250757 9.19846 0.250757 8.99971C0.250757 8.80096 0.329646 8.61034 0.470097 8.46971L3.9391 4.99971L0.469097 1.52971C0.342229 1.4026 0.265185 1.23418 0.251972 1.05508C0.23876 0.87597 0.290255 0.698069 0.397097 0.553714L0.470097 0.469714C0.610722 0.329264 0.801346 0.250374 1.0001 0.250374C1.19885 0.250374 1.38947 0.329264 1.5301 0.469714L5.5301 4.46971C5.67055 4.61034 5.74944 4.80096 5.74944 4.99971C5.74944 5.19846 5.67055 5.38909 5.5301 5.52971L1.5301 9.52971C1.38947 9.67016 1.19885 9.74905 1.0001 9.74905C0.801346 9.74905 0.610722 9.67016 0.470097 9.52971Z" fill="#121619"/>
</svg>
