<svg width="6" height="10" viewBox="0 0 6 10" fill="none" xmlns="http://www.w3.org/2000/svg">
<path d="M5.52929 0.469706C5.66974 0.610332 5.74863 0.800956 5.74863 0.999706C5.74863 1.19846 5.66974 1.38908 5.52929 1.52971L2.06029 4.99971L5.53029 8.46971C5.65716 8.59682 5.7342 8.76524 5.74742 8.94434C5.76063 9.12345 5.70913 9.30135 5.60229 9.44571L5.52929 9.52971C5.38867 9.67016 5.19804 9.74905 4.99929 9.74905C4.80054 9.74905 4.60992 9.67016 4.46929 9.52971L0.469293 5.52971C0.328843 5.38908 0.249953 5.19846 0.249953 4.99971C0.249953 4.80096 0.328843 4.61033 0.469293 4.46971L4.46929 0.469706C4.60992 0.329256 4.80054 0.250366 4.99929 0.250366C5.19804 0.250366 5.38867 0.329256 5.52929 0.469706Z" fill="#121619"/>
</svg>
