<svg width="19.5" height="19.5" viewBox="0 0 19.5 19.5" xmlns="http://www.w3.org/2000/svg"><path d="m9.75 6.15 3.424 2.488M9.75 6.15 6.326 8.638M9.75 6.15v-2.7m3.424 5.188-1.308 4.024m1.308-4.024L15.6 7.5m-3.734 5.162H7.634m4.232 0L13.35 14.7m-5.716-2.038L6.326 8.638m1.308 4.024L6.15 14.7m.176-6.062L3.9 7.5m0 0L.794 10.65M3.9 7.5 3 3.797M15.6 7.5l3.106 3.15M15.6 7.5l.9-3.703M9.75 3.45 6.712 1.276M9.75 3.45l3.038-2.174M6.15 14.7l-4.196-.45m4.196.45 2.25 3.95m4.95-3.95 4.196-.45m-4.196.45-2.25 3.95m7.65-8.9a9 9 0 1 1-18 0 9 9 0 0 1 18 0Z" stroke="#121619" stroke-width="1.5" fill="none" fill-rule="evenodd" stroke-linecap="round" stroke-linejoin="round"/></svg>