<svg width="19.5" height="20.037" viewBox="0 0 19.5 20.037" xmlns="http://www.w3.org/2000/svg"><g stroke="#121619" stroke-width="1.5" fill="none" fill-rule="evenodd"><path stroke-linecap="round" stroke-linejoin="round" d="M9.886 14.189v1.946"/><path d="M5.368 19.287h9.036v-.927c0-1.02-.814-1.854-1.808-1.854H7.175c-.994 0-1.807.834-1.807 1.854v.927Z"/><path stroke-linecap="round" stroke-linejoin="round" d="M4.464 19.287h10.843M9.75 13.726c-3.497 0-6.325-2.901-6.325-6.488v-2.78C3.425 2.408 5.042.75 7.039.75h5.422c1.997 0 3.614 1.659 3.614 3.707v2.78c0 3.588-2.828 6.489-6.325 6.489Z"/><path d="M3.85 9.694a4.376 4.376 0 0 1-1.745-1.112C1.292 7.655.75 6.542.75 5.245c0-1.297.994-2.317 2.259-2.317h.587c-.18.426-.27.9-.27 1.39v2.78c0 .928.19 1.799.523 2.596ZM15.65 9.694a4.376 4.376 0 0 0 1.745-1.112c.813-.927 1.355-2.04 1.355-3.337 0-1.297-.994-2.317-2.259-2.317h-.587c.18.426.27.9.27 1.39v2.78c0 .928-.19 1.799-.523 2.596Z" stroke-linecap="round" stroke-linejoin="round"/></g></svg>