<svg width="24" height="24" viewBox="0 0 24 24" xmlns="http://www.w3.org/2000/svg"><g id="Symbols" stroke="none" stroke-width="1" fill="none" fill-rule="evenodd" stroke-linecap="round" stroke-linejoin="round"><g id="icoDelegat" stroke="#121619" stroke-width="1.5"><g id="eye" transform="translate(3 4)"><path d="M12.293 8.005c0 1.914-1.472 3.46-3.293 3.46-1.821 0-3.293-1.546-3.293-3.46S7.18 4.544 9 4.544c1.821 0 3.293 1.547 3.293 3.46Z" id="Path"/><path d="M9 16c3.247 0 6.273-2.01 8.38-5.491.827-1.363.827-3.655 0-5.018C15.272 2.011 12.246 0 9 0 5.753 0 2.727 2.01.62 5.491c-.827 1.363-.827 3.655 0 5.018C2.728 13.989 5.754 16 9 16Z" id="Path"/></g></g></g></svg>