<svg width="24" height="24" viewBox="0 0 24 24" xmlns="http://www.w3.org/2000/svg"><g stroke="#121619" stroke-width="1.5" fill="none" fill-rule="evenodd" stroke-linecap="round" stroke-linejoin="round"><path d="M12 21a9 9 0 1 0 0-18 9 9 0 0 0 0 18Z"/><path d="M8.409 14.26c.162.27.36.521.585.746a4.259 4.259 0 0 0 6.012 0 4.238 4.238 0 0 0 1.188-2.403M7.806 11.397a4.21 4.21 0 0 1 1.188-2.403 4.259 4.259 0 0 1 6.012 0c.234.234.423.486.585.747"/><path d="M8.238 16.662v-2.403h2.403M15.762 7.338v2.403h-2.403"/></g></svg>