<svg width="24" height="24" viewBox="0 0 24 24" xmlns="http://www.w3.org/2000/svg"><g id="Symbols" stroke="none" stroke-width="1" fill="none" fill-rule="evenodd" stroke-linecap="round" stroke-linejoin="round"><g id="icoPrijemce" stroke="#121619" stroke-width="1.5"><g id="direct-inbox" transform="translate(2 2)"><path id="Path" d="M10.02 0v7l2-2M10.02 7l-2-2M0 11h4.41c.38 0 .72.21.89.55l1.17 2.34A2 2 0 0 0 8.26 15h3.53a2 2 0 0 0 1.79-1.11l1.17-2.34a1 1 0 0 1 .89-.55H20"/><path d="M5.02 2.13c-3.54.52-5 2.6-5 6.87v4c0 5 2 7 7 7h6c5 0 7-2 7-7V9c0-4.27-1.46-6.35-5-6.87" id="Path"/></g></g></g></svg>