<?xml version="1.0" encoding="UTF-8"?>
<svg width="22px" height="22px" viewBox="0 0 22 22" version="1.1" xmlns="http://www.w3.org/2000/svg" xmlns:xlink="http://www.w3.org/1999/xlink">
    <title>ico_home</title>
    <g id="Soutěže" stroke="none" stroke-width="1" fill="none" fill-rule="evenodd">
        <g id="Soutěže---Klub" transform="translate(-620, -160)">
            <g id="ico_home" transform="translate(620, 160)">
                <rect id="Rectangle" x="0" y="0" width="22" height="22"></rect>
                <g id="home" transform="translate(5, 5)" fill="#121619" fill-rule="nonzero">
                    <path d="M11.3162082,3.78244617 L7.15883813,0.395138316 C6.51693539,-0.130689257 5.47909265,-0.130689257 4.843189,0.389024042 L0.685812938,3.78244617 C0.217883839,4.16153117 -0.0820707107,4.9624705 0.0199138363,5.56166937 L0.81779294,10.4286316 C0.961771124,11.2968585 1.7776475,12 2.64151661,12 L9.36050453,12 C10.2183745,12 11.04025,11.2907442 11.1842282,10.4286316 L11.9821073,5.56166937 C12.0780928,4.9624705 11.7781382,4.16153117 11.3162082,3.78244617 Z M6.00101357,8.14189304 C5.17313901,8.14189304 4.50123482,7.45709434 4.50123482,6.61332451 C4.50123482,5.76955468 5.17313901,5.08475598 6.00101357,5.08475598 C6.82888813,5.08475598 7.50078632,5.76955468 7.50078632,6.61332451 C7.50078632,7.45709434 6.82888813,8.14189304 6.00101357,8.14189304 Z" id="Shape"></path>
                </g>
            </g>
        </g>
    </g>
</svg>