<svg width="37" height="37" viewBox="0 0 37 37" xmlns="http://www.w3.org/2000/svg"><path d="M18.504 9.014A9.47 9.47 0 0 0 9.02 18.5a9.47 9.47 0 0 0 9.484 9.486 9.47 9.47 0 0 0 9.484-9.486 9.47 9.47 0 0 0-9.484-9.486Zm0 15.653c-3.392 0-6.166-2.765-6.166-6.167a6.173 6.173 0 0 1 6.166-6.167c3.4 0 6.166 2.765 6.166 6.167 0 3.402-2.773 6.167-6.166 6.167ZM30.588 8.626c0 1.23-.99 2.212-2.212 2.212a2.213 2.213 0 1 1 2.212-2.213Zm6.282 2.245c-.14-2.964-.817-5.59-2.988-7.752C31.719.956 29.094.279 26.132.13c-3.055-.173-12.209-.173-15.263 0-2.955.14-5.58.817-7.75 2.98C.946 5.275.278 7.9.13 10.864c-.173 3.055-.173 12.21 0 15.266.14 2.964.817 5.59 2.988 7.752 2.171 2.163 4.788 2.84 7.75 2.989 3.055.173 12.209.173 15.263 0 2.963-.14 5.588-.817 7.75-2.989 2.164-2.163 2.84-4.788 2.989-7.752.173-3.055.173-12.203 0-15.258Zm-3.946 18.535a6.243 6.243 0 0 1-3.516 3.518c-2.435.965-8.213.743-10.904.743-2.69 0-8.477.214-10.904-.743a6.243 6.243 0 0 1-3.516-3.518c-.966-2.435-.743-8.214-.743-10.906s-.215-8.48.743-10.906A6.243 6.243 0 0 1 7.6 4.076c2.435-.965 8.213-.743 10.904-.743 2.691 0 8.477-.214 10.904.743a6.243 6.243 0 0 1 3.516 3.518c.966 2.435.743 8.214.743 10.906s.223 8.48-.743 10.906Z" fill="#FFF" fill-rule="nonzero"/></svg>