<svg width="24" height="24" viewBox="0 0 24 24" xmlns="http://www.w3.org/2000/svg"><g stroke-width="1.5" fill="none" fill-rule="evenodd" stroke-linecap="round" stroke-linejoin="round"><path d="M22 11.649v.868c0 3.473-.89 4.332-4.44 4.332H6.44c-3.55 0-4.44-.869-4.44-4.332V6.332C2 2.868 2.89 2 6.44 2H8M12 16.849v4.663M2 12.732h20M7.5 21.512h9"/><path d="M17.86 9.19H13.1c-1.38 0-1.84-.897-1.84-1.795V3.961c0-1.073.9-1.951 2-1.951h4.6c1.02 0 1.84.8 1.84 1.795v3.59c0 .995-.82 1.795-1.84 1.795ZM20.91 7.776l-1.21-.83V4.254l1.21-.83c.6-.4 1.09-.156 1.09.556v3.25c0 .711-.49.955-1.09.546Z"/></g></svg>