<?xml version="1.0" encoding="UTF-8"?>
<svg width="24px" height="24px" viewBox="0 0 24 24" version="1.1" xmlns="http://www.w3.org/2000/svg" xmlns:xlink="http://www.w3.org/1999/xlink">
    <title>icoRozhodci</title>
    <g id="Symbols" stroke="none" stroke-width="1" fill="none" fill-rule="evenodd">
        <g id="icoRozhodci" fill="#171718" fill-rule="nonzero">
            <g id="Referee" transform="translate(2.000000, 2.000000)">
                <path d="M5.76858108,0 C3.73099676,0 2.20016865,0.814659281 1.27322649,2.06619625 C0.348395135,3.31773268 0,4.92594689 0,6.53627093 C0,8.30488442 0.732685946,9.71048846 1.25,11.5086489 C1.76731405,13.3089198 2.13682432,15.5545098 1.53927351,19.1022893 C1.47170595,19.5243927 1.76309135,19.9253906 2.1875,19.9908168 C2.61190865,20.0562429 3.01097946,19.7649913 3.07643568,19.3428879 C3.71199351,15.5840573 3.30025351,13.0261108 2.74070919,11.0759931 C2.18116541,9.12798577 1.53927351,7.84268107 1.53927351,6.53627093 C1.53927351,5.14755103 1.84755081,3.86224633 2.5,2.98004997 C3.15244919,2.09574322 4.11739892,1.53856674 5.76858108,1.53856674 C8.62964541,1.53856674 10.1140205,2.05775418 11.1782097,3.00326579 C12.1431589,3.86224633 12.8420605,5.25096623 13.6782097,7.04068462 C13.475507,7.17786809 13.2221286,7.33193569 12.9560811,7.47334047 C12.4282097,7.75403909 11.9235643,7.97775416 11.9235643,7.97775416 C11.6469595,8.09383273 11.46326,8.35764721 11.4548141,8.65945128 C11.4442568,8.95703403 11.6068411,9.23562227 11.875,9.37069536 C11.875,9.37069536 12.5190032,9.74636711 12.8610643,10.1642497 C13.0320946,10.3710801 13.0827703,10.5399215 13.0764357,10.6201214 C13.0701016,10.7003213 13.0595438,10.8417256 12.6435811,11.1245351 C12.4619935,11.2532765 12.3437503,11.4516648 12.3226351,11.6753799 C12.2994086,11.896984 12.3733108,12.1164778 12.5232265,12.2789875 C12.9835303,12.7686274 13.1461146,13.2603783 13.1482265,13.7436865 C13.1524492,14.2269948 12.9750843,14.7292981 12.6435811,15.2083856 C11.9826859,16.1707813 10.7010135,16.9157937 9.54391892,16.9157937 C7.63724649,16.9157937 5.98606432,14.9698968 5.98606432,14.9698968 C5.72212865,14.6364353 5.23437514,14.5836726 4.90287135,14.8495974 C4.56925676,15.1134119 4.51858108,15.5988311 4.78462811,15.9301821 C4.78462811,15.9301821 6.68074324,18.45225 9.54391892,18.45225 C11.3070103,18.45225 12.9413005,17.4581964 13.8935811,16.0736973 C14.3728886,15.3835581 14.6938346,14.5794513 14.6875,13.7204707 C14.6875,13.6086134 14.6790541,13.4946453 14.6642735,13.382788 C15.0147805,13.5748452 15.4391892,14.0053906 15.4560811,14.8495974 C15.4138514,15.0226601 15.3842908,15.1915014 15.3842908,15.3772269 C15.3842908,16.6519786 16.4189189,17.6840219 17.6921454,17.6840219 C18.9653719,17.6840219 20,16.6519786 20,15.3772269 C20,14.5245775 19.5333616,13.7816756 18.8471286,13.382788 C17.4493243,12.5449129 14.8374157,11.6774903 14.3264357,11.5086489 C14.4932432,11.263829 14.5967059,10.9957932 14.6157092,10.7172055 C14.6537162,10.0819394 14.3728886,9.58174706 14.0625,9.201854 C13.8872465,8.99291269 13.8365708,9.0224602 13.6528714,8.86628167 C13.6697632,8.8578396 13.6634292,8.85150792 13.6782097,8.84306639 C13.9717059,8.68688786 14.2673141,8.49905199 14.5439189,8.31332649 C14.8205238,8.127601 15.0717903,7.99252791 15.2892735,7.61685562 C15.4138514,7.39525147 15.4244086,7.1251053 15.3125,6.89505909 C14.3517735,4.82253115 13.6085303,3.11723343 12.2107265,1.87413907 C10.8150335,0.63104471 8.83023676,0 5.76858108,0 Z M5.12035459,5.38181855 C4.91342919,5.39448138 4.62204378,5.43247096 4.32643568,5.55065991 C3.73733081,5.78703781 3.07643568,6.52149718 3.07643568,7.54509831 C3.07643568,9.71259884 4.85641892,10.7404207 4.85641892,10.7404207 C5.22804054,10.9472517 5.69679027,10.8121786 5.90160486,10.4407276 C6.10853027,10.0671657 5.97339514,9.59863119 5.60177351,9.39391118 C5.60177351,9.39391118 4.61570919,8.91060293 4.61570919,7.54509831 C4.61570919,7.03013217 4.72339514,7.06390044 4.90287135,6.9921426 C5.08445946,6.92038529 5.3125,6.92038529 5.3125,6.92038529 C5.73690865,6.95837433 6.11486486,6.64601781 6.15287135,6.22391442 C6.19298973,5.79970064 5.88048973,5.42191797 5.45608108,5.38181855 C5.45608108,5.38181855 5.32728054,5.36915518 5.12035459,5.38181855 Z M9.61570919,5.38181855 C8.97804054,5.38181855 8.46072649,5.89889508 8.46072649,6.53627093 C8.46072649,7.17153694 8.97804054,7.68861347 9.61570919,7.68861347 C10.2533784,7.68861347 10.7685811,7.17153694 10.7685811,6.53627093 C10.7685811,5.89889508 10.2533784,5.38181855 9.61570919,5.38181855 Z M17.5,7.08711627 L15.7221286,10.2592229 L16.7314189,10.8121786 L18.5092908,7.66539765 L17.5,7.08711627 Z M19.1110643,9.05833885 L17.0439189,11.2933765 L17.8842908,12.0848205 L19.9514357,9.85189323 L19.1110643,9.05833885 Z" id="Shape"></path>
            </g>
        </g>
    </g>
</svg>