<svg width="24" height="24" viewBox="0 0 24 24" xmlns="http://www.w3.org/2000/svg"><g stroke="#121619" stroke-width="1.5" fill="none" fill-rule="evenodd" stroke-linecap="round" stroke-linejoin="round"><path d="M12 20a8 8 0 1 0 0-16 8 8 0 0 0 0 16Z"/><path d="M8.808 14.008c.144.24.32.464.52.664a3.786 3.786 0 0 0 5.344 0c.6-.6.944-1.36 1.056-2.136M8.272 11.464a3.743 3.743 0 0 1 1.056-2.136 3.786 3.786 0 0 1 5.344 0c.208.208.376.432.52.664"/><path d="M8.656 16.144v-2.136h2.136M15.344 7.856v2.136h-2.136"/></g></svg>