<svg width="24" height="24" viewBox="0 0 24 24" xmlns="http://www.w3.org/2000/svg"><g id="Symbols" stroke="none" stroke-width="1" fill="none" fill-rule="evenodd" stroke-linecap="round" stroke-linejoin="round"><g id="icoDivaci" stroke="#121619" stroke-width="1.503"><g id="people" transform="translate(2 2)"><path d="M16.026 5.16a.608.608 0 0 0-.19 0 2.575 2.575 0 0 1-2.485-2.58c0-1.43 1.152-2.58 2.584-2.58a2.582 2.582 0 0 1 2.585 2.58 2.59 2.59 0 0 1-2.494 2.58ZM14.994 12.438c1.372.23 2.885-.01 3.947-.72 1.412-.94 1.412-2.48 0-3.419-1.072-.71-2.605-.95-3.977-.71M3.975 5.16c.06-.01.13-.01.19 0a2.575 2.575 0 0 0 2.484-2.58C6.65 1.15 5.497 0 4.065 0A2.582 2.582 0 0 0 1.48 2.58a2.59 2.59 0 0 0 2.495 2.58ZM5.006 12.438c-1.372.23-2.885-.01-3.947-.72-1.412-.94-1.412-2.48 0-3.419 1.072-.71 2.605-.95 3.977-.71M10.015 12.628a.608.608 0 0 0-.19 0 2.575 2.575 0 0 1-2.485-2.58c0-1.43 1.152-2.579 2.585-2.579a2.582 2.582 0 0 1 2.584 2.58c-.01 1.4-1.111 2.54-2.494 2.58ZM7.1 15.778c-1.413.94-1.413 2.48 0 3.42 1.603 1.07 4.227 1.07 5.83 0 1.413-.94 1.413-2.48 0-3.42-1.593-1.06-4.227-1.06-5.83 0Z" id="Path"/></g></g></g></svg>