<svg width="24" height="24" viewBox="0 0 24 24" xmlns="http://www.w3.org/2000/svg"><g id="Symbols" stroke="none" stroke-width="1" fill="none" fill-rule="evenodd" stroke-linecap="round" stroke-linejoin="round"><g id="icoVAR" stroke="#121619" stroke-width="1.5"><g id="video" transform="translate(2 3)"><path d="M9.938 18H4.473C1.116 18 0 15.755 0 13.5v-9C0 1.122 1.116 0 4.473 0h5.465c3.358 0 4.473 1.122 4.473 4.5v9c0 3.378-1.126 4.5-4.473 4.5ZM17.365 14.451l-2.954-2.084V5.622l2.954-2.084C18.81 2.522 20 3.142 20 4.928v8.144c0 1.785-1.19 2.405-2.635 1.38Z" id="Path"/><path d="M8.844 7.931c.88 0 1.594-.718 1.594-1.603 0-.886-.714-1.604-1.594-1.604-.88 0-1.594.718-1.594 1.604 0 .885.714 1.603 1.594 1.603Z" id="Path"/></g></g></g></svg>