<?xml version="1.0" encoding="UTF-8"?>
<svg width="36px" height="16px" viewBox="0 0 36 16" version="1.1" xmlns="http://www.w3.org/2000/svg" xmlns:xlink="http://www.w3.org/1999/xlink">
    <title>logoUEFA</title>
    <g id="Symbols" stroke="none" stroke-width="1" fill="none" fill-rule="evenodd">
        <g id="topNavbar" transform="translate(-158.000000, -20.000000)" fill="#121619" fill-rule="nonzero">
            <g id="logoUEFA" transform="translate(158.000000, 20.000000)">
                <path d="M7.58147818,11.248 C7.24487979,11.52 6.84416741,11.664 6.45948353,11.632 C6.01068566,11.584 5.72217275,11.392 5.30543188,10.864 L3.12555654,8.176 L2.14781834,8.976 L4.53606411,11.904 C5.03294746,12.512 5.60997329,12.848 6.26714159,12.896 C7.02048085,12.96 7.67764915,12.736 8.35084595,12.208 C9.00801425,11.68 9.36064114,11.072 9.45681211,10.32 C9.52092609,9.664 9.32858415,9.04 8.8317008,8.432 L6.44345503,5.488 L5.48174533,6.272 L7.66162066,8.96 C8.09439003,9.488 8.20658949,9.792 8.1745325,10.256 C8.14247551,10.608 7.91807658,10.976 7.58147818,11.248 M30.2297418,14.08 L32.0409617,7.792 C32.1050757,7.568 32.1371327,7.344 31.8325913,7.12 L31.5921638,6.928 C31.3036509,6.704 31.079252,6.784 30.8869101,6.912 L25.4051647,10.464 L26.5592164,11.12 L30.5182547,8.56 L29.8931434,10.72 L29.3802315,10.32 L28.3383793,11.008 L29.556545,11.936 L29.2039181,13.152 L30.2297418,14.08 L30.2297418,14.08 Z M18,0.976 C24.7800534,0.976 30.9189671,3.76 35.2947462,8.256 L36,7.568 C31.4318789,2.896 25.0525378,0 18,0 C10.9474622,0 4.5681211,2.896 0,7.568 L0.689225289,8.256 C5.08103295,3.76 11.2199466,0.976 18,0.976 M18,11.28 C22.1513802,11.28 25.8860196,13.104 28.4345503,16 L29.1718611,15.36 C26.4470169,12.272 22.4559216,10.304 18.0160285,10.304 C13.5761354,10.304 9.58504007,12.256 6.8601959,15.36 L7.59750668,16 C10.1139804,13.104 13.8486198,11.28 18,11.28 M23.3214604,4.352 L25.5654497,4.944 L25.8539626,3.808 L23.5618878,3.216 C22.4879786,2.944 21.4942119,3.2 21.141585,4.512 L20.1157614,8.416 C20.0516474,8.704 20.1959038,8.912 20.4523598,8.992 L21.205699,9.184 L21.8788958,6.656 L24.667854,7.392 L24.9563669,6.272 L22.1674087,5.536 L22.3276937,4.944 C22.4719501,4.32 22.7444346,4.208 23.3214604,4.352 M15.6438112,2.528 L11.7809439,3.312 C11.5084595,3.36 11.364203,3.584 11.4122885,3.872 L12.2297418,7.824 C12.5022262,9.168 13.4799644,9.488 14.569902,9.264 L16.9260908,8.784 L16.6856634,7.632 L14.4096171,8.096 C13.8165628,8.224 13.5601069,8.096 13.4158504,7.44 L13.3036509,6.864 L16.1406946,6.288 L15.9002671,5.152 L13.0632235,5.728 L12.7907391,4.32 L15.8842386,3.68 L15.6438112,2.528 L15.6438112,2.528 Z" id="Shape"></path>
            </g>
        </g>
    </g>
</svg>