<?xml version="1.0" encoding="UTF-8"?>
<svg width="176px" height="240px" viewBox="0 0 176 240" version="1.1" xmlns="http://www.w3.org/2000/svg" xmlns:xlink="http://www.w3.org/1999/xlink">
    <title>logo_facr_color</title>
    <g id="Symbols" stroke="none" stroke-width="1" fill="none" fill-rule="evenodd">
        <g id="logo_facr_color">
            <path d="M175.311847,68.5363489 C175.2817,68.1529348 175.241862,67.7705977 175.209561,67.3871836 C174.522627,59.1513193 173.426549,50.9445342 172.027917,42.8109855 C168.47589,42.1453958 164.798965,41.5390415 161.035904,40.9757674 C160.731199,38.9886914 160.400652,37.0123856 160.037805,35.0511578 C157.734747,34.6483576 155.408002,34.2832526 153.075874,33.9246096 L152.720563,33.4636511 C151.713851,25.638126 150.280765,15.0586968 148.97796,7.56488961 C148.243652,3.33871836 144.524736,0 140.281468,0 L132.236378,0 L43.763002,0 L35.7179122,0 C31.4746442,0 27.7557283,3.33871836 27.0214201,7.56488961 C25.7186151,15.0586968 24.2855297,25.637049 23.2788168,33.4636511 L22.9235063,33.9246096 C20.5913778,34.2832526 18.2646328,34.6483576 15.9615751,35.0511578 C15.5998045,37.0123856 15.2681814,38.9886914 14.9634758,40.9757674 C11.2014919,41.5390415 7.52349048,42.1453958 3.97146278,42.8109855 C2.57283169,50.9445342 1.47675281,59.1513193 0.789819296,67.3871836 C0.758595045,67.7705977 0.71768051,68.1529348 0.687532957,68.5363489 C0.601397093,69.643511 0.534641798,70.7517501 0.462503012,71.8589122 C0.422665175,72.4814216 0.372060354,73.1039311 0.337606009,73.7264405 C0.281617697,74.724825 0.246086653,75.7232095 0.203018721,76.721594 C0.17179447,77.452881 0.129803236,78.184168 0.106115874,78.915455 C0.0770450195,79.8309101 0.0673547347,80.7452881 0.0501275619,81.6607431 C0.0339770873,82.4771136 0.00705962976,83.2945611 0,84.1120086 C-0.00478405157,84.9348411 0.00921302637,85.7565967 0.0135198196,86.5794292 C0.0178266128,87.4894992 0.0124431213,88.3995692 0.0296702941,89.3096392 C0.0425906738,90.0603123 0.0781217178,90.8099085 0.100732382,91.5605816 C0.130879935,92.541734 0.152413901,93.5228864 0.197635229,94.5029618 C0.22885948,95.1879375 0.280540999,95.8718363 0.320378836,96.5557351 C0.380673941,97.6025848 0.433432158,98.6494346 0.512031134,99.6962843 C0.560482558,100.326333 0.627237852,100.956381 0.682149466,101.58643 C0.776898916,102.682822 0.865188177,103.780291 0.981471594,104.875606 C1.04607349,105.485191 1.13113266,106.092623 1.20219475,106.702208 C1.33247524,107.816909 1.45737224,108.932687 1.6113401,110.046311 C1.69209247,110.631125 1.79330211,111.214863 1.88051468,111.799677 C2.04955631,112.935918 2.21429115,114.072159 2.40917354,115.20517 C2.50607639,115.770598 2.62343651,116.333872 2.72679954,116.898223 C2.93783241,118.049542 3.14455848,119.200862 3.38143211,120.350027 C3.49556213,120.900377 3.63014942,121.448573 3.75073963,121.997846 C4.00376373,123.158858 4.25355774,124.319871 4.53565269,125.477652 C4.66593319,126.011847 4.81774765,126.544965 4.95448833,127.07916 C5.25381046,128.249865 5.54990249,129.420571 5.87937217,130.586968 C6.02580314,131.107162 6.19484478,131.625202 6.34773594,132.144319 C6.69443279,133.321486 7.03897625,134.499731 7.41797405,135.67259 C7.58378559,136.187399 7.77220779,136.700054 7.94447952,137.213786 C8.3385511,138.388799 8.73046928,139.56489 9.15899521,140.736672 C9.34418731,141.243942 9.55199009,141.749058 9.74364238,142.256327 C10.1883188,143.429187 10.6297651,144.603123 11.1088958,145.771675 C11.3166986,146.278945 11.5481887,146.78406 11.7624517,147.29133 C12.2555795,148.454496 12.746554,149.61874 13.2752128,150.777598 C13.506703,151.284868 13.7618805,151.788907 13.9998308,152.2951 C14.5435634,153.450727 15.0851427,154.605277 15.6654831,155.754443 C15.9185072,156.256327 16.1962953,156.753904 16.4557796,157.253635 C17.0533472,158.4028 17.649838,159.551966 18.28509,160.695746 C18.567185,161.203016 18.8729673,161.705977 19.1625991,162.211093 C19.8096948,163.343026 20.4557138,164.47496 21.1404939,165.600431 C21.4516597,166.110932 21.7886663,166.616047 22.107369,167.125471 C22.8061462,168.241249 23.5038467,169.358104 24.2424617,170.468498 C24.5816217,170.978998 24.9466224,171.484114 25.294396,171.992461 C26.0480848,173.095315 26.7996202,174.199246 27.5931469,175.295638 C27.9646078,175.808293 28.3640628,176.31664 28.7441373,176.828218 C29.5505844,177.91384 30.354878,179.000539 31.2033163,180.079698 C31.6081548,180.595584 32.0420642,181.107162 32.4576698,181.621971 C33.3179517,182.689284 34.1750036,183.756597 35.0751234,184.81637 C35.5197998,185.339795 35.993547,185.856758 36.4489904,186.378029 C37.3598772,187.422725 38.2675338,188.468498 39.2193351,189.505654 C39.7038494,190.03231 40.2174345,190.554658 40.711639,191.07916 C41.6774374,192.10447 42.6378522,193.129779 43.6434885,194.146473 C44.1656871,194.674206 44.7191101,195.196554 45.2520757,195.722132 C46.2738624,196.729133 47.2902656,197.736134 48.3529668,198.734518 C48.9182334,199.265482 49.5147243,199.789984 50.0918346,200.318794 C51.0447126,201.192246 51.97821,202.070005 52.9644657,202.936995 C52.9170909,203.684437 52.88479,204.43511 52.88479,205.193323 C52.88479,224.417878 68.4635377,240 87.6815257,240 C87.7881189,240 87.8936353,239.993538 88.0002284,239.992461 C88.1068216,239.993538 88.212338,240 88.3189311,240 C107.536919,240 123.115667,224.417878 123.115667,205.193323 C123.115667,204.43511 123.083366,203.684437 123.034915,202.936995 C124.022247,202.068928 124.957898,201.190092 125.911852,200.315563 C126.487886,199.78783 127.0833,199.264405 127.646413,198.734518 C128.711268,197.73398 129.729825,196.724825 130.753765,195.716747 C131.284577,195.193323 131.83477,194.673129 132.354815,194.14755 C133.364758,193.126548 134.32948,192.098008 135.297432,191.069467 C135.788406,190.548196 136.298761,190.030156 136.778968,189.506731 C137.735076,188.465267 138.645963,187.416263 139.561157,186.367259 C140.012293,185.850296 140.481734,185.336564 140.92318,184.817447 C141.827607,183.753366 142.688965,182.680668 143.552477,181.609047 C143.963776,181.099623 144.394455,180.592353 144.796064,180.080775 C145.647732,178.99623 146.455256,177.905223 147.26601,176.814216 C147.642854,176.308024 148.038003,175.805062 148.405157,175.296715 C149.200837,174.198169 149.953449,173.092084 150.709291,171.987076 C151.054911,171.479806 151.419912,170.976844 151.756918,170.469575 C152.497687,169.354873 153.197541,168.234787 153.899548,167.114701 C154.215021,166.610662 154.549874,166.107701 154.85781,165.601508 C155.544743,164.473883 156.191839,163.339795 156.840011,162.206785 C157.128566,161.702746 157.434349,161.200862 157.715367,160.695746 C158.348465,159.556274 158.941726,158.411416 159.53714,157.266559 C159.799855,156.761443 160.079796,156.259558 160.334974,155.753366 C160.914238,154.606354 161.45474,153.453958 161.997396,152.301562 C162.236423,151.793215 162.492677,151.287022 162.725244,150.777598 C163.252826,149.61874 163.743801,148.455574 164.236928,147.292407 C164.451191,146.785137 164.682682,146.280022 164.891561,145.771675 C165.367462,144.608508 165.807831,143.439957 166.249278,142.272482 C166.44416,141.759828 166.654116,141.24825 166.841462,140.734518 C167.267834,139.567044 167.658676,138.395261 168.052747,137.223479 C168.226096,136.706516 168.415595,136.19063 168.582483,135.67259 C168.959327,134.506193 169.301717,133.335487 169.646261,132.164782 C169.801305,131.638126 169.9725,131.112547 170.121085,130.585891 C170.451631,129.415186 170.7488,128.241249 171.048122,127.067313 C171.183786,126.537426 171.334524,126.009693 171.463728,125.479806 C171.749053,124.308024 172.002077,123.134087 172.258331,121.960151 C172.375691,121.423802 172.507048,120.88853 172.617948,120.352181 C172.858052,119.187938 173.068008,118.02154 173.281194,116.855143 C173.381327,116.30587 173.495457,115.757674 173.590207,115.208401 C173.787242,114.057081 173.955207,112.904685 174.126402,111.752289 C174.211462,111.18363 174.309441,110.617124 174.38804,110.048465 C174.544161,108.916532 174.672288,107.782445 174.804722,106.648358 C174.873631,106.058158 174.95546,105.467959 175.017909,104.87776 C175.133115,103.786753 175.221405,102.694669 175.316154,101.602585 C175.371066,100.966074 175.439974,100.330641 175.487349,99.6930533 C175.567025,98.6429725 175.619783,97.5918148 175.680078,96.541734 C175.718839,95.8632202 175.771597,95.1847065 175.802822,94.5061928 C175.84912,93.4970382 175.87173,92.4878837 175.901878,91.4798061 C175.923412,90.7571352 175.95679,90.0355412 175.970787,89.3128702 C175.988014,88.37049 175.98263,87.4270328 175.986937,86.4846527 C175.990167,85.6952073 176.004164,84.904685 176,84.1152396 C175.992321,83.2590199 175.965403,82.4028002 175.947099,81.5465805 C175.929872,80.6709747 175.922335,79.7953689 175.893264,78.9197631 C175.8685,78.1604739 175.825432,77.4022617 175.793131,76.6440495 C175.75114,75.6715132 175.716686,74.6989768 175.662851,73.7264405 C175.62732,73.1039311 175.576715,72.4814216 175.536877,71.8589122 C175.465815,70.7517501 175.39906,69.643511 175.311847,68.5363489" id="Fill-411" fill="#FFFFFF"></path>
            <path d="M112.004894,179.692623 C156.482224,140.339903 162.302855,87.3630587 154.550628,41.6829295 C111.62482,34.1029618 63.854946,33.6420032 21.4491833,41.6829295 C13.6764983,87.4815293 19.5498875,140.612386 64.3405369,179.996338 C70.5832337,174.04588 79.0277785,170.386214 88.3315285,170.386214 C97.4770039,170.386214 105.794498,173.920948 112.004894,179.692623" id="Fill-413" fill="#E92B1E"></path>
            <path d="M72.4056532,189.149058 C69.5868571,193.336457 67.3473246,198.10867 65.5761559,203.34615 C68.09886,207.606785 71.853307,211.626171 76.4055874,215.482929 C82.4157174,212.276683 88.1362154,209.217986 91.6064141,206.421002 L88.6691811,189.57986 C83.9500124,188.613786 78.1358416,188.437157 72.4056532,189.149058" id="Fill-415" fill="#00257A"></path>
            <path d="M113.561369,183.845234 C108.633321,177.970167 101.696154,173.854927 93.8233359,172.53021 C96.2232964,174.903931 98.854747,179.02671 99.543834,181.21734 C104.596779,182.87916 109.016626,185.178568 112.479287,188.437588 C113.676576,186.686376 113.561369,183.845234 113.561369,183.845234" id="Fill-417" fill="#00257A"></path>
            <path d="M116.371336,204.261066 C113.844325,207.978891 110.523788,211.003123 106.487246,213.378998 C106.944843,218.016586 106.756421,222.589553 105.923056,227.093592 C108.79461,226.586322 112.460768,225.662251 114.635699,224.780183 C117.443728,221.050512 119.473304,216.710178 120.495091,211.996123 C119.799544,209.222833 118.108051,206.032741 116.371336,204.261066" id="Fill-419" fill="#00257A"></path>
            <path d="M66.827064,229.915132 C72.7015299,234.991061 80.3783888,238.026064 88.7507948,237.91944 C88.8057064,237.918363 88.8606181,237.914055 88.9155297,237.912978 C89.7575077,237.037372 90.5553412,235.476791 90.9203419,234.272698 C85.4087233,233.054604 81.0987,231.180614 77.1106095,228.377167 C74.4673151,229.147227 70.0743861,229.791276 66.827064,229.915132" id="Fill-421" fill="#00257A"></path>
            <path d="M55.8991146,199.374044 C55.562108,201.335272 55.3887596,203.351427 55.415677,205.412816 C55.4802789,210.500592 56.6958713,215.302962 58.8105068,219.577598 C58.8105068,219.577598 58.0169801,213.495746 60.2199049,205.673452 C58.567173,204.865697 56.2501182,202.097792 55.8991146,199.374044" id="Fill-423" fill="#00257A"></path>
            <path d="M70.6467589,183.197307 C73.18023,177.284545 79.5919684,173.240388 79.5919684,173.240388 C73.3385046,174.957135 67.837653,178.469251 63.6686772,183.183306 C66.1117056,182.078298 68.847596,182.462789 70.6467589,183.197307" id="Fill-425" fill="#00257A"></path>
            <path d="M95.3555852,6.41313947 L92.4851076,4.22574044 L94.8915283,1.56768982 L98.9636012,4.16004308 L102.774037,1.56768982 L105.266593,4.22574044 L102.340127,6.33236403 C101.255892,6.12234787 100.135049,6.00172321 98.9797517,6.00172321 C97.7307817,6.00172321 96.5205728,6.15250404 95.3555852,6.41313947 Z M98.9915954,6.66989768 C105.526077,6.66989768 110.553182,10.2046311 111.939969,16.6365105 L105.38826,16.6365105 C104.347093,13.6801292 102.064492,11.9633818 98.9915954,11.9633818 C95.0498029,11.9633818 91.9941331,14.9509962 91.9941331,19.6693592 C91.9941331,24.2412493 95.0498029,27.3731826 98.9915954,27.3731826 C102.217384,27.3731826 104.831607,25.4205708 105.527154,22.4114163 L112.176843,22.4114163 C110.993551,28.8282176 105.674662,32.6688207 98.9915954,32.6688207 C91.6011383,32.6688207 85.4305803,27.6015078 85.4305803,19.6693592 C85.4305803,11.8686053 91.6011383,6.66989768 98.9915954,6.66989768 Z M61.5374606,7.5644588 L61.5374606,12.9161012 L43.0667012,12.9161012 L43.0667012,18.1115778 L57.7431757,18.1115778 L57.7431757,23.3404416 L43.0667012,23.3404416 L43.0667012,31.7357027 L36.593591,31.7357027 L36.593591,7.5644588 L61.5374606,7.5644588 Z M76.4762188,7.56542811 L86.975104,31.734518 L79.7030837,31.734518 L78.0944964,27.6817447 L65.4982029,27.6817447 L63.8896157,31.734518 L56.8447787,31.734518 L67.4717909,7.56542811 L76.4762188,7.56542811 Z M71.9034811,11.7948304 L71.6892182,11.7948304 L67.6074549,22.453958 L75.9852444,22.453958 L71.9034811,11.7948304 Z M141.589872,16.3462574 C141.589872,10.819063 136.970836,7.56542811 131.611032,7.56542811 L115.282902,7.56542811 L115.282902,31.735595 L121.756012,31.735595 L121.756012,25.1238557 L128.368017,25.1238557 L133.083955,31.735595 L140.983691,31.735595 L135.380553,24.4927302 C139.003642,23.3909532 141.589872,20.4216478 141.589872,16.3462574 Z M131.061916,19.7732903 L121.756012,19.7732903 L121.756012,12.9159935 L130.865957,12.9159935 C133.212082,12.9159935 135.032779,14.1373183 135.032779,16.3462574 C135.032779,18.4248788 133.495254,19.7732903 131.061916,19.7732903 Z" id="Shape" fill="#00257A"></path>
            <path d="M14.788943,47.3976306 C12.9251782,47.6970382 11.0667969,48.0061389 9.21918264,48.3313947 C0.328884753,96.9722132 6.52205339,153.139149 54.791515,195.925363 C55.926355,191.810124 57.7922732,188.000754 60.248222,184.648034 C16.5676486,144.990522 9.01568666,94.3270867 14.788943,47.3976306" id="Fill-436" fill="#00257A"></path>
            <path d="M166.779875,48.3313947 C164.934414,48.0287561 163.078186,47.7401185 161.217651,47.4579429 C166.959683,94.2269251 159.460479,144.698654 116.15029,184.285083 C118.642847,187.596877 120.54968,191.371782 121.737278,195.453635 C169.524379,152.726656 175.638948,96.7934303 166.779875,48.3313947" id="Fill-438" fill="#00257A"></path>
            <path d="M132.00478,71.7835218 C130.745043,68.8131395 130.324054,63.5562736 135.247796,63.6478191 C134.004209,60.9326871 129.185984,61.2600969 127.983312,63.9407647 C125.826686,59.6230479 122.333876,57.2116317 119.341732,57.2385568 C119.252366,58.6688207 119.865007,61.3451804 121.729849,63.9041465 C118.469606,63.9267636 115.871533,66.0883145 116.630605,69.2191707 C123.811106,64.9326871 129.683419,72.366182 129.683419,79.4884222 C129.683419,82.9585353 128.532428,86.2390953 126.849549,89.3882606 C126.951835,84.5923533 120.42489,84.5772752 120.232161,89.0651589 C122.816237,87.9030695 125.819149,89.9213786 124.556182,93.1954766 C123.407344,94.9337641 122.166988,96.6375875 120.951396,98.3155627 C118.692483,95.2256327 116.33559,92.0743134 114.581648,88.8411416 C111.815611,83.3236403 116.141784,81.4227248 118.792616,83.6564351 C119.797175,79.7307485 116.350664,78.005385 113.763358,79.0145396 C116.479868,75.7953689 121.526353,75.4011847 123.880015,77.7016694 C124.143806,72.6386645 118.089532,70.5643511 114.043299,73.2945611 C115.851076,70.003231 113.841957,68.2164782 113.841957,68.2164782 C111.492601,69.7501346 108.712566,74.2261712 108.712566,79.4884222 C108.712566,84.6149704 110.877806,89.3796446 113.594316,93.8018309 C110.800284,91.7792138 107.053374,91.8319871 104.655567,93.5228864 C104.655567,93.5228864 105.597678,96.5568121 111.69179,96.8519117 C110.148882,98.2078621 110.049825,101.084545 112.881542,102.852989 C113.178711,100.133549 116.22469,98.5621971 118.396391,100.916532 C118.513751,101.083468 118.625727,101.247173 118.742011,101.413032 C115.955516,105.436726 113.732134,109.348411 113.732134,113.297792 C113.732134,116.686053 114.940189,119.759828 116.901933,122.035541 C116.834101,122.037695 116.766269,122.040926 116.697361,122.040926 C112.339963,122.040926 108.86115,117.976306 108.018096,112.945611 C101.525605,108.342488 97.1531331,102.059235 99.5186392,92.6526656 C101.916446,91.6736672 103.153573,89.0263866 102.395577,86.5708131 C104.560817,85.0177706 105.206836,82.0743134 103.886804,79.7544426 C105.656896,77.7630587 105.657973,74.7409801 103.856657,72.7463651 C105.074402,70.4738826 104.41008,67.6025848 102.234072,66.1152396 C102.199618,66.0926225 102.164087,66.0743134 102.130709,66.0527733 C102.526934,64.4071082 102.023039,62.6989768 100.869896,61.5282714 C101.342566,60.0441572 101.48469,58.6095854 101.48469,58.6095854 C101.48469,58.6095854 100.204496,57.9827679 98.591602,57.6650512 L101.211209,51.6952073 C101.211209,51.6952073 98.5270001,50.9725363 98.2481352,53.2084006 C98.1157013,53.1750135 97.977884,53.1513193 97.8346831,53.1405493 C96.8032061,53.0694669 95.9224669,53.6822833 95.8654019,54.5083468 C95.8384844,54.8971459 95.9999892,55.2622509 96.2831608,55.5487345 C96.6600052,55.5002693 97.1089884,55.6047388 97.2834135,55.8653743 C96.9474837,56.2961766 95.5090147,56.6246634 94.2298972,56.35972 C93.4482142,56.2057081 92.7935816,55.7975229 92.4275042,55.3914917 C92.7020623,55.1480883 93.2619454,55.2051696 93.6043354,55.3968767 C94.2837321,55.1987076 94.7865502,54.6698977 94.8317715,54.0161551 C94.8920666,53.1394723 94.1060769,52.37049 93.0756766,52.2994076 C92.8818709,52.2864836 92.6945254,52.2983306 92.5157935,52.3317178 C93.4223734,49.9795369 91.1225459,49.2202477 91.1225459,49.2202477 C91.1225459,49.2202477 88.7408892,49.6564351 89.3147694,52.1109316 C89.1424977,52.0527733 88.9583823,52.0150781 88.7656533,52.001077 C87.735253,51.9299946 86.850207,52.5837372 86.7899119,53.46042 C86.7446906,54.1141626 87.1699864,54.7065159 87.8160054,54.9962305 C88.1810061,54.8540657 88.7430426,54.8745288 88.9820696,55.1534733 C88.563234,55.5056543 87.8590733,55.819063 87.0633933,55.8642973 C85.7605883,55.9504577 84.3802611,55.4270328 84.1067797,54.9542272 C84.3156592,54.71944 84.7743327,54.6785137 85.1404101,54.7786753 C85.4612662,54.5331179 85.6712223,54.1938611 85.6981398,53.8050619 C85.7552048,52.9789984 84.9670617,52.2509424 83.9355847,52.17986 C83.7923838,52.1701669 83.652413,52.174475 83.516749,52.189553 C83.5479733,49.9364567 80.7894722,50.2821756 80.7894722,50.2821756 L82.8502728,57.5691976 C82.1095044,57.993538 81.0844876,58.6375875 80.2931143,59.3613355 L73.7780129,62.7129779 C73.7780129,62.7140549 73.7780129,62.7140549 73.7780129,62.7140549 C73.781243,62.9843834 73.9868924,64.0893915 74.7190472,64.2283253 C74.5456988,65.5788907 74.7987229,67.1847065 76.0035483,67.7662897 C76.3890063,68.8616047 77.0091845,69.8050619 77.3343474,70.1077006 C76.0196988,70.2541734 74.6372181,70.4361874 73.2321269,70.6580506 C70.6577412,71.0640819 68.4623534,70.2584814 67.5697705,68.1626279 C66.4392373,70.5288099 67.6602131,77.631664 77.264362,72.8131395 C78.0481984,74.3995692 77.8414723,76.4028002 77.8414723,76.4028002 C77.8414723,76.4028002 78.0094372,76.4738826 78.1235672,76.5018848 C83.8279149,72.6483576 86.8706643,75.5218094 86.1417395,77.1168551 C81.8769375,78.3403339 78.5488631,80.1303177 76.2791831,81.9407647 C67.6946675,77.9289176 62.7870766,74.5772752 59.8013922,71.5347334 C57.8730256,68.5708131 60.6875149,65.265482 62.3294798,61.3979537 C62.2045828,61.2417878 62.0592286,61.1168551 61.9052607,61.0059235 C62.2358071,58.0333872 59.4353148,57.0156166 57.5489394,57.8406031 L57.5489394,57.8858374 C58.1002089,57.9784599 59.2318188,58.4684976 59.1402995,59.9418417 C57.1408707,59.8362951 55.223271,61.096392 55.266339,64.2110932 C54.6892287,62.5945073 54.2574727,60.9800754 53.6200673,59.2999461 C53.3508927,59.2407108 53.0763346,59.2234787 52.8028533,59.2396338 C50.87664,56.9703823 47.689613,58.1637049 47.293388,59.8556812 L47.3235356,59.8912224 C47.8285071,59.5928918 49.3864895,59.4873452 50.1617123,60.6246634 C48.8147627,62.2067851 48.7393939,65.4324179 51.797217,67.5756597 C50.3630549,67.1330102 48.2301156,66.6397415 47.2029454,66.5051158 C46.8454815,66.8314486 46.5590798,67.1954766 46.3383566,67.5799677 C43.7262866,67.7964459 42.3136584,70.0732364 43.4915663,72.2272482 L43.5367877,72.2283253 C43.7004458,71.5659666 44.8385159,70.4781906 45.9830462,70.4814216 C46.5504662,72.2477114 48.1192156,73.5821217 52.396938,73.3451804 C51.411759,74.187399 50.5331732,75.2127087 50.2080103,75.9321486 C49.7418,76.9660743 49.6330534,78.186322 50.19509,79.1254712 C49.3724925,79.2547119 48.4842164,79.0328487 48.1235224,78.7097469 L48.0869147,78.7366721 C48.0341565,81.3893376 51.4203726,82.4620355 53.9118525,80.5568121 C53.9118525,80.5568121 53.9118525,80.5568121 53.9129292,80.5568121 C54.6052462,80.4652666 55.0359255,80.2390953 55.0359255,80.2390953 C55.2932564,79.6758212 55.8391425,78.2035541 56.3193499,76.8626817 C57.2625376,78.4006462 60.2094609,82.5912763 60.7951848,83.3710285 C59.6485011,83.5961228 58.8625113,84.1023156 58.5061242,84.3241788 C58.5448853,85.7910609 59.5031468,87.2353258 61.9461752,87.5035003 C60.3311278,88.7571352 60.3860394,91.2331718 61.0794331,92.2283253 C62.3617808,91.9407647 64.4764163,91.0393107 66.2960364,90.176629 C67.1197106,91.1125471 67.9089304,91.9655358 68.6410853,92.7075929 C65.6317135,94.9649973 62.3876215,97.2353258 59.9995047,98.4771136 C56.9696757,99.7016694 56.9298378,92.0775444 56.6358992,90.7366721 C56.4033324,90.6677437 56.1589219,90.6311255 55.9080512,90.6192784 C54.4415881,88.6612816 51.536656,88.8465267 50.6483799,91.0619278 L50.6742207,91.096392 C51.1985728,90.8443726 52.3775574,90.725902 53.1194026,91.5121163 C51.4623639,92.735595 50.5622441,95.1330102 52.9417473,97.7749058 L52.8168503,97.9364567 C50.594545,96.4641896 47.7057635,93.4841142 47.7057635,93.4841142 C47.4581229,93.5831987 47.2277094,93.7135164 47.0134465,93.8664513 C43.9890009,93.4442649 42.4191748,96.1152396 43.1362559,97.7135164 L43.1814772,97.7232095 C43.3860499,97.2180937 44.2312581,96.2681745 45.4113194,96.4609585 C45.0150944,98.6612816 46.4363362,101.292407 50.7140585,101.315024 L50.8335721,101.501346 C49.256209,101.68336 47.0242135,102.042003 45.9733559,102.385568 C45.7903172,102.753904 45.6621901,103.128702 45.5846678,103.500269 C45.5286795,103.527194 45.4716145,103.556274 45.4123961,103.590738 C42.664662,105.180398 42.6032902,108.873452 45.0506255,110.057081 L45.0893866,110.031233 C44.8212887,109.358104 45.1981331,107.242865 46.2672946,106.575121 C47.621781,108.21217 50.6666838,108.494346 54.6127831,104.897146 L54.6655413,104.914378 C53.463946,107.795369 52.8803755,109.812601 52.8803755,109.812601 C53.0052725,110.771136 53.5005538,111.688745 54.3209979,112.27356 C53.7115866,113.038234 52.568133,113.413032 51.9920994,113.293484 L51.9737956,113.335487 C53.3864237,115.158858 56.6014449,114.627894 57.7147509,112.662359 C59.024016,112.098008 59.545138,110.831449 59.545138,110.831449 C59.545138,110.831449 59.7260233,108.393107 59.5763623,105.879375 C59.5763623,105.879375 60.5916888,105.628433 66.2981898,104.735595 C66.1269948,105.313947 65.9708735,106.411416 65.9945609,106.790522 C67.0303446,107.410878 68.720761,107.393646 70.2184483,105.829833 C70.3616492,106.504039 70.5737587,107.16532 70.8429333,107.78783 C73.7887799,107.352719 75.6202437,105.763059 76.2307316,103.196554 C79.1733481,106.259558 83.1614386,108.498654 86.3430821,110.555735 C79.4134518,110.081852 67.6182219,113.964459 67.6182219,113.964459 C67.6182219,113.964459 68.4612767,116.450188 71.6816813,115.647819 C71.0184351,118.918686 74.0644146,125.821217 75.1884877,127.933226 C67.0357281,129.780291 67.1972329,120.012924 67.1972329,120.012924 C66.5964352,119.912763 66.0171715,119.950458 65.4831292,120.0937 C63.5483023,118.694669 61.097737,119.7986 60.5033995,121.539041 L60.5367772,121.570275 C60.9556128,121.242865 62.1776654,120.829295 63.2252928,121.714593 C62.2261168,123.204093 62.2088896,125.407647 64.0844981,127.386107 C61.4218232,126.148627 59.8240029,124.803446 59.2005946,124.465267 C58.9271132,124.59343 58.6794726,124.744211 58.4512125,124.911147 C55.5204398,124.484653 53.6480614,126.958535 54.3662192,128.827141 L54.4103638,128.836834 C54.5934025,128.353258 55.7605435,127.639203 56.8609292,127.699515 C56.7446457,129.702746 58.4878203,131.711362 62.6438757,131.649973 L62.6934039,131.708131 C60.8500964,132.443726 59.2759634,133.297792 58.2304894,134.226171 C58.1368166,134.768982 58.13897,135.277329 58.2207991,135.742596 C56.3538043,137.75552 57.2873017,140.938072 59.8326165,141.631664 L59.8670708,141.601508 C59.5074536,140.95315 59.2199751,138.954227 60.2288414,138.253096 C63.2985083,139.472267 65.8265959,136.780829 67.0938698,134.93161 C66.7956244,136.62574 66.8408457,138.193861 67.0508019,139.031772 C67.4373366,140.581583 68.5021912,141.746904 69.7339341,141.88476 C69.7974593,142.873452 68.7724425,143.735057 68.1662613,143.963382 L68.1727215,144.006462 C70.2615162,145.150242 72.7756068,143.306408 72.7680699,140.921917 C73.417319,140.410339 73.7973935,139.885837 73.7973935,139.885837 C72.4881283,137.64028 72.1371247,135.947227 72.0563723,135.000539 C72.5936448,133.5972 74.1796214,132.768982 77.592755,132.159397 C80.2640435,134.844373 83.2432677,133.886914 83.8785197,133.642434 C84.0389477,132.670975 83.6373393,131.605816 82.2354781,131.031772 C83.8655993,130.102316 84.5202319,127.853527 84.1541544,127.038234 C83.6114985,127.05762 82.1762597,127.193323 80.9477469,127.973075 C80.0734679,121.725363 81.1135584,121.233172 88.9820696,123.071621 C86.9460331,127.771675 85.9134795,130.915455 86.3053976,133.257943 C86.2246453,137.452881 86.4442917,140.107701 86.4442917,140.107701 C88.7904173,140.94238 89.9661719,138.779752 89.3373801,137.243942 C91.682429,138.694669 95.1429373,140.080775 100.187269,141.456112 C99.6532265,142.128164 95.7426583,147.115778 91.2689768,146.639742 C89.1791054,146.162628 87.1312252,142.577275 87.1312252,142.577275 C86.8491303,142.548196 86.5713421,142.555735 86.3010909,142.589122 C83.8569857,141.372106 81.4893261,142.977921 81.4204174,144.868067 L81.4591786,144.890684 C81.7251231,144.570813 82.5757147,144.216478 83.5425898,144.440495 C82.9579426,145.590738 83.1603619,147.067313 84.8098637,148.278945 C83.3067929,148.129241 81.8489434,147.9063 80.4115511,147.7986 C80.0691611,147.995692 79.7762991,148.24448 79.5329653,148.527733 C75.9443299,148.425417 74.5360085,151.94615 75.7365271,153.991384 L75.7892853,153.993538 C75.9314095,153.283791 77.1125475,151.517501 78.8589522,151.992461 C79.6072575,154.213247 82.6930748,155.703823 88.5449301,152.245557 L88.9013173,152.450188 C87.4380843,153.791061 86.0060755,155.423802 85.2739207,156.992999 C85.3363692,157.555197 85.4741866,158.063543 85.6712223,158.510501 C84.4157921,161.243942 86.6736285,163.921379 89.2921587,163.547658 L89.3115393,163.507808 C88.791494,163.107162 88.0022742,161.893376 88.3015963,160.622509 C88.3015963,160.622509 88.3015963,160.621432 88.3015963,160.621432 C90.5691229,160.905762 92.3079907,158.815293 94.5496766,153.561659 C94.7887036,154.891761 95.11925,156.029079 95.11925,156.029079 C95.5768467,157.031772 96.8527342,157.836295 98.1803032,157.859989 C98.0467926,158.752827 97.3092543,159.497038 96.810743,159.742596 L96.82151,159.78783 C99.1557919,160.785137 101.210132,158.270328 101.016327,156.168013 C101.611741,155.462574 101.779706,154.023694 101.779706,154.023694 C99.7145983,151.908454 99.7878138,150.258481 99.7878138,150.258481 C99.7878138,150.258481 101.645118,146.468498 105.508312,142.726979 C109.619146,143.549812 114.216648,141.87399 114.875587,139.954766 C113.937783,138.743134 111.850065,138.152935 109.844176,138.438341 C112.519771,135.993538 111.598117,131.801831 110.213483,131.047927 C107.856591,131.308562 105.150848,134.059235 104.700788,137.032849 L97.8712908,131.009155 C101.415782,128.871298 105.344654,125.613355 107.296708,121.559505 C109.609456,124.171244 112.91815,125.982768 116.697361,125.982768 C123.045574,125.982768 128.191115,120.303716 128.191115,113.297792 C128.191115,109.444265 126.017261,105.537964 123.25553,101.536887 C127.878873,95.0770059 133.667203,87.7512116 133.667203,79.4884222 C133.667203,75.9612278 132.745549,73.5293484 132.00478,71.7835218 L132.00478,71.7835218 Z M86.1492764,69.6855143 C84.6602026,69.5573506 81.4021136,69.6650512 77.5335366,70.0861605 C77.628286,69.7781368 78.0202042,68.5546581 78.5876242,67.4108778 C80.893912,66.8583737 83.8645226,65.9278406 83.8645226,65.9278406 C85.1888615,66.6742057 86.3269316,68.8077544 86.1492764,69.6855143 L86.1492764,69.6855143 Z M84.0540215,61.1696284 C83.1958929,60.3489499 82.3485314,60.174475 82.3485314,60.174475 C82.6166293,59.6499731 83.0634591,59.2924071 83.0634591,59.2924071 C83.0634591,59.2924071 84.5676066,58.9682283 87.9075247,59.9332256 L84.0540215,61.1696284 Z M124.303157,113.297792 C124.303157,116.360797 123.011119,119.035003 120.965393,120.594507 C118.917513,119.03608 117.621168,116.362951 117.621168,113.297792 C117.621168,110.664513 119.028412,107.831987 121.009537,104.792676 C122.933597,107.831987 124.303157,110.664513 124.303157,113.297792 L124.303157,113.297792 Z" id="Fill-440" fill="#FFFFFF"></path>
            <path d="M94.2386184,150.784383 C94.2386184,150.784383 94.2881465,152.238341 94.5497842,153.561982 C92.3080984,158.816694 90.5692306,160.907162 88.301704,160.621756 C88.3533855,160.398815 88.4352146,160.174798 88.5611883,159.952935 C88.7022357,159.707377 88.7280765,159.147334 88.5224271,158.858697 C90.5509267,157.854927 93.1877609,153.327194 94.2386184,150.784383 Z M97.8713985,131.008401 L106.615265,138.72084 C106.587271,136.940549 106.99211,133.435972 110.213591,131.04825 C111.598225,131.802154 112.519879,135.993861 109.844284,138.438665 C111.850173,138.153258 113.937891,138.74238 114.875695,139.955089 C114.216755,141.874313 109.62033,143.551212 105.507343,142.727302 C101.645226,146.467744 99.7879215,150.257728 99.7879215,150.257728 L99.7877678,150.297771 C99.7922817,150.561755 99.902443,152.101072 101.779813,154.024017 C101.779813,154.024017 101.611848,155.462897 101.016434,156.168336 C101.016434,156.168336 100.98521,155.984168 100.910918,155.751535 C100.758027,155.275498 99.7750011,154.744534 99.0417695,155.221648 C99.0417695,155.221648 99.0438337,155.208195 99.0467546,155.181655 L99.0533807,155.111237 C99.058225,155.051033 99.0631668,154.966595 99.0650754,154.858872 L99.0652722,154.679945 C99.0523993,153.797256 98.8300139,151.875345 97.4353357,149.20657 C100.178763,148.35035 103.405628,143.264728 104.28529,140.843619 C100.169073,139.291653 92.0992189,135.682606 93.4440151,133.218417 C95.2927061,132.482822 97.8713985,131.008401 97.8713985,131.008401 Z M89.9608961,150.992138 L90.1913095,151.345396 C89.7703205,151.681422 89.336411,152.055143 88.9035783,152.451481 L88.5450378,152.245773 C82.6931825,155.702962 79.6095186,154.212386 78.8612133,151.993753 C79.5255361,152.215617 79.8991504,151.836511 80.1833988,151.294777 C81.5658794,152.221002 85.7047077,152.529025 89.9608961,150.992138 Z M83.5428051,144.441034 C84.185594,146.198708 86.8482689,147.792676 90.0589833,148.231018 C88.2296729,148.517501 86.4940352,148.446419 84.8154625,148.279483 C83.164884,147.067851 82.958158,145.591276 83.5428051,144.441034 Z M88.859649,112.312978 C91.0679573,114.042649 92.2760127,115.774475 91.2962173,117.919871 C90.4283985,119.818632 89.6510223,121.525687 88.9791625,123.07119 C81.1128047,121.233818 80.0737909,121.72601 80.9480699,127.972644 C81.0611232,128.710393 81.2430852,129.46322 81.2430852,129.46322 C82.3736185,127.888638 83.6473525,127.056112 84.1534008,127.03888 C84.5205549,127.853096 83.8659223,130.101885 82.2358011,131.032418 C83.6376623,131.606462 84.038194,132.671621 83.8788427,133.64308 C83.242514,133.887561 80.2643665,134.845019 77.5920013,132.158966 C74.1799444,132.769628 72.5928911,133.596769 72.0556186,135.000108 C72.136371,135.947873 72.4884513,137.640926 73.7977165,139.885407 L73.7529947,139.944056 C73.6349197,140.094733 73.2877922,140.512439 72.7683929,140.922563 C72.7748531,143.305977 70.2607625,145.150889 68.1730445,144.007108 L68.1655076,143.962951 C68.7727655,143.735703 69.7967056,142.874098 69.7331804,141.88433 C68.5014375,141.746473 67.4376596,140.582229 67.0500482,139.032418 C66.8411687,138.19343 66.7948707,136.62531 67.0941928,134.932256 C65.8258422,136.780398 63.2988313,139.471836 60.2291645,138.252666 C60.2291645,138.252666 60.2883829,138.200969 60.4208168,138.140657 C61.2132667,137.775552 60.3755954,135.91664 59.5120834,135.342596 C59.5788387,135.174583 59.6638978,135.007647 59.7737211,134.851481 C60.6436933,133.870328 62.5193017,132.628541 64.0428298,131.908024 C64.0428298,131.908024 63.4258817,131.72601 62.6926502,131.706624 L62.6431221,131.650619 C61.3596977,131.668928 60.3066867,131.489068 59.4668621,131.174583 C57.5891002,130.062036 57.6009439,127.448142 58.8057693,125.885407 C61.0054639,127.411524 63.7736553,128.273129 66.0562557,128.633926 C63.0802616,126.181583 63.7262805,120.800862 67.1964792,120.01357 L67.1964175,120.116205 C67.2029362,120.801873 67.3495617,124.760629 69.823623,127.052881 C71.3805288,128.846096 73.3907245,130.032956 77.3615879,129.751858 C71.6336404,117.579089 75.2514162,115.906725 79.8977826,115.766646 L80.1834685,115.759908 L80.4771942,115.756505 L80.7984699,115.756221 C80.8521593,115.756437 80.9059125,115.756776 80.9597173,115.757224 L81.2830696,115.761131 L81.7691564,115.770571 L82.5909344,115.790994 L83.1333457,115.803415 C83.3397945,115.807504 83.5445624,115.810603 83.7469372,115.811943 L84.1482845,115.812052 C86.9324246,115.793216 89.1544151,115.32939 88.859649,112.312978 Z M86.3051823,133.257728 C86.577587,134.890468 87.5423087,136.133333 89.3371647,137.243726 C89.9659565,138.779537 88.7912787,140.942165 86.4440764,140.107485 C86.4440764,140.107485 86.2255066,137.452666 86.3051823,133.257728 Z M108.533296,116.717286 C109.801646,120.882068 113.78543,124.645127 118.699481,124.645127 C121.333085,124.645127 123.714742,123.457189 125.429922,121.541195 C123.321747,124.258481 120.192862,125.982768 116.696822,125.982768 C112.917611,125.982768 109.608917,124.171244 107.296169,121.559505 C108.024017,120.049542 108.476231,118.430802 108.533296,116.717286 Z M119.72762,102.89413 C119.83852,103.040603 120.572829,104.119763 121.008891,104.793969 C119.027766,107.832202 117.620522,110.664728 117.620522,113.298008 C117.620522,116.362089 118.916867,119.034141 120.96367,120.592569 C119.814833,121.468174 118.429122,121.989445 116.899134,122.032526 C115.814899,120.773506 114.96,119.272159 114.414114,117.606031 C114.224615,116.793969 114.123406,115.881745 114.123406,114.802585 C114.123406,110.294238 116.924975,106.428864 119.72762,102.89413 Z M67.6184372,113.965213 C68.779118,114.933441 71.3728842,114.483253 72.4355854,114.235541 C72.2611603,114.434787 72.1071925,114.641572 71.976912,114.853743 C71.8326344,115.089607 71.7357316,115.370705 71.6765131,115.686268 C71.6786665,115.673344 71.6797432,115.66042 71.6818966,115.648573 C68.461492,116.449865 67.6184372,113.965213 67.6184372,113.965213 Z M101.483937,58.6092623 L101.480612,58.6408946 C101.456899,58.8591358 101.301787,60.1729812 100.870219,61.5290253 C102.023362,62.6986537 102.527257,64.4067851 102.129956,66.0524502 C102.16441,66.0750673 102.199941,66.0922994 102.233319,66.1159935 C104.410403,67.6022617 105.074725,70.4746365 103.85698,72.746042 C105.658296,74.740657 105.657219,77.7627356 103.886051,79.7541195 C105.207159,82.0750673 104.560064,85.0174475 102.394823,86.57049 C103.153896,89.0271405 101.916769,91.6744211 99.5178855,92.6523425 C97.1534561,102.058912 101.525928,108.343242 108.018419,112.945288 C104.274739,110.774044 89.4798273,102.06322 90.1861413,97.1531502 C92.0316022,97.3577814 95.5814765,96.378783 95.6568454,93.8542811 C92.0036081,94.2495423 87.1100143,93.464405 81.3862861,90.925902 C90.3390325,93.4460959 98.7125152,92.37986 98.806188,88.1655358 C96.5741924,88.6620355 93.781237,88.6749596 90.5629857,88.0438341 C96.5365079,88.2775444 101.675589,85.8639742 101.310588,81.8510501 C99.773063,82.6749596 97.9308322,83.1973075 96.0067724,83.2586968 C100.00886,82.4617124 103.596419,79.0045234 102.378673,75.3211632 C101.60668,76.2172321 100.617195,77.101454 99.3811449,77.9382876 C102.577862,74.378783 103.08068,70.3120086 101.545308,68.7341949 C100.878832,70.5941842 100.019627,72.00937 100.019627,72.00937 C100.019627,72.00937 101.636828,66.9506731 99.8225912,64.0438341 C98.6672939,64.6588045 96.8885883,64.7277329 95.7031434,64.1536887 C99.5196474,63.9519704 101.242953,59.3120387 101.460207,58.6802584 L101.481317,58.6173958 Z M68.006264,101.746365 C67.203047,102.484114 66.62486,103.524502 66.2986205,104.735057 C60.6082699,105.62574 59.576793,105.879914 59.576793,105.879914 C59.7221472,109.313409 59.5455687,110.83091 59.5455687,110.83091 C59.5455687,110.83091 59.02337,112.098546 57.7151816,112.66182 L57.8169464,112.465788 C57.9120828,112.265213 57.9867787,112.051158 58.0360377,111.824987 C58.1544745,111.270328 57.9262145,110.108239 56.3983796,110.035003 C56.3983796,110.035003 57.2414343,108.408724 58.1652415,103.247711 C58.1652415,103.247711 59.5789464,103.345719 60.7826951,104.407647 C63.516432,102.765213 68.006264,101.746365 68.006264,101.746365 Z M82.4346672,104.298331 C82.4346672,104.298331 79.3865344,104.934841 77.0511757,104.004308 C76.7701575,103.741519 76.4955994,103.472267 76.2307316,103.196554 C75.6202437,105.763059 73.7887799,107.352719 70.8429333,107.78783 C70.8429333,107.78783 74.0622612,106.194938 75.0280596,100.130318 C79.9679514,99.7361335 81.6917454,102.261712 82.4346672,104.298331 Z M55.3046694,103.487237 C55.0699492,103.92881 54.6651106,104.91427 54.6651106,104.91427 L54.6134291,104.897038 C50.6673298,108.494238 47.6235037,108.212062 46.2679406,106.57609 C46.3583832,106.517932 46.4531327,106.46839 46.5543423,106.433926 C46.9010392,106.317609 47.5567484,106.000969 47.5567484,105.088745 C49.3580647,105.926656 52.9714642,104.845342 55.3046694,103.487237 Z M70.0760011,102.831772 C69.9457206,103.809693 70.0081691,104.83608 70.2181253,105.829079 C68.7193613,107.3972 67.0310983,107.411201 65.9942378,106.790845 C65.9942378,106.790845 68.0722656,105.899085 70.0760011,102.831772 Z M117.316031,99.375552 C117.679956,99.8946688 118.041726,100.408401 118.397037,100.916747 C116.224259,98.5624125 113.17828,100.133764 112.881111,102.853204 C110.817081,99.388476 115.00113,96.3556274 117.316031,99.375552 Z M130.007182,91.524825 C128.009907,95.0714055 125.495816,98.4068928 123.25413,101.538826 C123.00003,101.17049 122.743775,100.801077 122.479984,100.430587 C124.969311,97.5689822 127.789184,94.5802908 130.007182,91.524825 Z M46.396606,94.4260635 C46.4235235,95.1875067 46.8703533,98.503608 52.4347301,101.32644 C51.9965139,101.368444 51.1523824,101.464297 50.8336797,101.500915 L50.7141662,101.314593 C46.4364439,101.293053 45.0152021,98.6608508 45.4114271,96.4605277 C45.5427843,95.7098546 45.8830209,94.9968767 46.396606,94.4260635 Z M53.1198332,91.5124394 C52.6665432,93.7859989 54.5884497,97.8958535 56.1195147,99.3605816 C54.7133467,98.9190092 53.6312649,98.4408185 52.817281,97.9357027 L52.942178,97.7752289 C50.5626748,95.1322563 51.4627945,92.7359181 53.1198332,91.5124394 Z M114.578849,96.2031233 L114.346956,96.1565533 C113.275168,95.9738694 112.351447,96.2714773 111.692221,96.8514809 C105.597032,96.5563813 104.654921,93.5224556 104.654921,93.5224556 C108.35984,93.239203 111.886027,94.4648358 114.578849,96.2031233 Z M124.998166,92.5186861 C124.852812,92.7448573 124.705304,92.9699515 124.55672,93.1950458 C125.81861,89.9220248 122.816775,87.9026387 120.231623,89.0647281 C122.193367,85.6947765 127.447655,88.2602046 124.998166,92.5186861 Z M53.5604182,59.288853 L53.6207133,59.299623 C54.7189456,62.197846 55.2120734,64.8978998 56.8820324,67.7573506 L56.9046431,67.7465805 C55.7514992,61.4504039 60.5901814,59.2285407 62.3290492,61.3976306 C60.6881609,65.2640819 57.8769017,68.568336 59.8009615,71.5311793 C61.0176306,73.3922456 61.6604195,75.0497577 61.3567906,77.2382337 C63.7039929,76.4401723 75.1632929,82.8752827 75.1632929,82.8752827 C74.6540146,83.3028541 74.0542937,83.844588 73.464263,84.4714055 L73.621461,85.0368336 C79.3807202,81.7691976 86.5343037,84.0966074 90.505167,83.9275175 C84.7609816,84.9915994 75.312954,82.5414109 70.6422368,89.2328487 L70.7940512,89.7045773 C73.3016816,88.7697361 76.265832,89.1499192 78.1995821,89.9350565 C73.7958861,89.2403877 70.9544793,91.0325256 68.6406546,92.7083468 C67.8115969,91.8661282 66.9157839,90.8914378 66.0070506,89.8456651 C63.9882412,87.7605816 63.5812493,90.743888 61.0790024,92.2280022 C60.3856087,91.2328487 60.3306971,88.7578891 61.9457446,87.5031772 C59.5027161,87.2360797 58.5455313,85.7907377 58.5056935,84.3238557 C58.8620806,84.1019925 59.6469937,83.5968767 60.7947541,83.3717824 C60.5018921,82.9819063 59.6189995,81.7390415 58.6914239,80.4012655 L58.3193033,79.8628901 C57.5134801,78.6932292 56.7287106,77.5281996 56.3199959,76.8612816 C56.289983,76.9450862 56.2597134,77.0294082 56.2292738,77.1139931 L56.0452872,77.6226218 C55.6452257,78.7226634 55.2456529,79.781112 55.0365715,80.2387722 C55.0365715,80.2387722 54.6058922,80.4649435 53.9124985,80.556489 C52.5214043,81.6205708 50.8503685,81.7551966 49.6563101,81.2059235 C51.2110625,81.651804 52.8928652,80.0879914 53.439828,78.7105008 C53.2449456,78.2904685 52.2748404,77.9921379 51.8140135,78.1827679 C51.1367703,77.0271405 52.8939419,74.5058697 53.9157286,73.2005385 C53.4527483,73.2608508 52.9467001,73.3147011 52.397584,73.3448573 C48.118785,73.5828756 46.5511122,72.2484653 45.9826155,70.4821756 C46.1559639,70.4821756 46.3293124,70.5058697 46.4994307,70.561874 C47.2864972,70.8203554 48.0057316,69.1725363 47.9357462,68.0524502 C47.9357462,68.0524502 51.1809149,69.1951535 54.5154496,69.3470113 L54.4928389,69.2543888 C54.4928389,69.2543888 53.9534131,68.5403339 52.8379536,67.9361335 C49.0996571,63.8015078 51.216446,59.8672052 53.5604182,59.288853 Z M127.288986,88.5969157 L126.981928,89.1367092 L127.20449,88.7061227 C128.692173,85.7660536 129.683419,82.7084801 129.683419,79.4887453 C129.683419,72.3665051 123.811106,64.9330102 116.630605,69.2194938 C121.684186,61.1107701 137.302094,70.5551781 127.288986,88.5969157 Z M118.792293,83.6569736 C116.146845,81.4275714 111.834668,83.3155627 114.565175,88.8072159 C114.435971,88.5691976 113.94715,87.7549812 113.433565,86.276252 C111.44921,80.3010232 117.80819,79.8012924 118.792293,83.6569736 Z M123.880123,77.7024233 C121.52646,75.4008616 116.479975,75.7961228 113.763465,79.0142165 C113.137904,79.2586968 112.564024,79.6647281 112.113964,80.2376952 L112.167676,79.9574795 C113.658699,72.7638232 122.458799,72.7332815 123.880123,77.7024233 Z M113.841418,68.2161551 L113.868675,68.2417779 C114.0978,68.4665217 115.728531,70.2268968 114.042761,73.294238 C112.632286,74.2473883 111.466222,75.7810447 110.896649,77.9770598 C110.81805,73.3287022 112.795944,69.5139472 113.841418,68.2161551 Z M89.5547655,67.3402262 C94.5955645,72.0938278 92.5746584,74.3870591 89.4140516,75.8657996 L89.128123,75.9960906 C88.7432428,76.1670256 88.3446341,76.3270489 87.9423782,76.4789621 L87.6401599,76.5914203 C87.4888664,76.6469328 87.3374143,76.7014034 87.1863355,76.7549797 L86.8848328,76.860984 C86.6342577,76.9484002 86.3857036,77.0336062 86.1416318,77.1172859 C86.8177984,75.6374798 84.2477195,73.0623586 79.3185947,75.7710285 L79.245928,75.8077092 L79.5712482,75.6213651 C85.9368956,72.0279157 88.5201302,73.7840244 89.1596172,74.6143242 C89.1596172,74.6143242 90.4215076,72.9105008 88.6223447,71.6062466 C90.4204309,70.7177167 90.1814039,68.8071082 89.5547655,67.3402262 Z M78.5881626,67.4107701 C78.0185892,68.5567044 77.6277477,69.7801831 77.5340749,70.0860528 C81.4015752,69.6649435 84.6596643,69.5572429 86.148738,69.6854066 L86.1272292,69.7704963 C86.0727979,69.9315574 85.9623154,70.0366644 85.7869674,70.0634356 C84.864237,70.2034464 82.5278017,70.5448573 79.7434598,71.6574044 C78.6096965,71.2095854 77.7646068,70.4363705 77.6069265,70.2862057 L77.5803729,70.2605277 C77.5093109,70.2637588 77.4360954,70.2896069 77.4360954,70.2896069 C77.208912,71.5249327 77.2649003,72.8130318 77.2649003,72.8130318 C68.7740575,77.0725902 66.8360006,72.0171244 67.2817537,69.1512116 C67.2053081,71.0575121 68.879574,71.3095315 73.2326652,70.6579429 C74.6377565,70.4360797 76.0202371,70.2540657 77.3348857,70.1075929 C77.0097228,69.8049542 76.3895446,68.861497 76.0040866,67.766182 C76.2797214,67.8997307 77.3359624,67.7112547 78.5881626,67.4107701 Z M90.2624793,63.7390415 C91.2045903,64.5446419 93.5453324,67.9199785 94.395924,69.827356 C90.7491469,66.4143242 88.3168854,64.4455574 88.3168854,64.4455574 C89.335442,64.0653743 90.2624793,63.7390415 90.2624793,63.7390415 Z M127.98342,63.940657 C129.151638,61.3364567 133.730835,60.9541195 135.13162,63.4226171 C133.808358,61.8900377 129.876256,62.3563813 128.78556,65.8124933 C128.543303,65.1490576 128.273052,64.5200862 127.975883,63.9266559 Z M119.341732,57.2385568 C121.500512,60.6397415 123.142477,62.8648358 125.146212,64.6515886 C124.000605,64.1281637 122.828081,63.8966074 121.729849,63.9041465 C119.865007,61.3441034 119.252366,58.6688207 119.341732,57.2385568 Z M73.7786589,62.7138395 C74.3568459,63.5872913 77.1562615,62.9550889 77.6138583,62.8118471 L77.6601563,62.9109316 C77.4340497,63.1004847 75.5132199,64.3788907 74.7186165,64.2281099 C73.9875384,64.0891761 73.781889,62.984168 73.7786589,62.7138395 Z M100.194483,59.2084006 C97.820363,60.5255789 95.3385734,61.6715132 95.3385734,61.6715132 C94.6096487,58.9574583 98.6924886,58.8572967 100.194483,59.2084006 Z M91.1225459,49.2197092 L91.1466626,49.228273 C91.3895354,49.3177217 93.3674292,50.1226318 92.5157935,52.3322563 C92.6945254,52.2977921 92.8818709,52.2859451 93.0756766,52.2988691 C94.1060769,52.3710285 94.8920666,53.1389338 94.8317715,54.0166936 C94.7865502,54.6693592 94.2837321,55.1981691 93.6043354,55.3963382 C93.2619454,55.2057081 92.7020623,55.1486268 92.4275042,55.3909532 C92.7935816,55.7980614 93.4482142,56.2051696 94.2298972,56.3591815 C95.5090147,56.6252019 96.9474837,56.2967151 97.2834135,55.8648358 C97.1089884,55.6042003 96.6600052,55.5008078 96.2831608,55.549273 C95.9999892,55.2617124 95.8384844,54.8966074 95.8643252,54.5088853 C95.9224669,53.6817447 96.8032061,53.0700054 97.8346831,53.1410878 C97.977884,53.1507808 98.1157013,53.174475 98.2481352,53.2089391 C98.5270001,50.9719978 101.211209,51.6946688 101.211209,51.6946688 L98.591602,57.6645127 C97.0443865,57.35972 95.1913887,57.3435649 93.8681265,58.4378029 C93.8681265,58.4378029 90.6272646,57.5665051 86.4625956,57.5061928 L86.4625956,57.4146473 C88.4921719,57.004308 92.4135071,54.6542811 91.1225459,49.2197092 Z" id="Combined-Shape" fill="#FFFFFF"></path>
            <path d="M45.9827232,70.4819602 L45.9827232,70.4819602 C45.9827232,70.4819602 45.9827232,70.4819602 45.9827232,70.4819602 Z" id="Fill-506" fill="#D2D4D6"></path>
        </g>
    </g>
</svg>