<svg width="64" height="64" viewBox="0 0 64 64" xmlns="http://www.w3.org/2000/svg"><g fill="none" fill-rule="evenodd"><circle fill="#F2F4F8" cx="32" cy="32" r="32"/><path d="m32.001 12 .91.346 16.43 6.293 1.52.582.095 1.618c.23 3.905-.388 9.869-2.953 15.698-2.59 5.877-7.213 11.715-15.004 15.039L32 52l-.997-.424C23.213 48.252 18.589 42.414 16 36.537c-2.573-5.837-3.19-11.8-2.953-15.706l.095-1.618 1.52-.574 16.429-6.285L32 12Zm7.752 14.638-2.684-2.664-1.346 1.336L32 29.003l-3.72-3.693-1.347-1.336-2.684 2.664 1.346 1.335 3.721 3.693-3.72 3.693-1.347 1.336 2.684 2.663 1.346-1.336 3.721-3.692 3.722 3.692 1.346 1.336 2.684-2.663-1.346-1.336-3.722-3.693 3.722-3.693 1.346-1.335Z" fill="#C1C7CD" fill-rule="nonzero"/></g></svg>