<?xml version="1.0" encoding="UTF-8"?>
<svg width="37px" height="12px" viewBox="0 0 37 12" version="1.1" xmlns="http://www.w3.org/2000/svg" xmlns:xlink="http://www.w3.org/1999/xlink">
    <title>logoFIFA</title>
    <g id="Symbols" stroke="none" stroke-width="1" fill="none" fill-rule="evenodd">
        <g id="topNavbar" transform="translate(-210.000000, -22.000000)" fill="#121619" fill-rule="nonzero">
            <g id="Group-12" transform="translate(158.000000, 20.000000)">
                <g id="logoFIFA" transform="translate(52.000000, 2.000000)">
                    <path d="M0,0.0102857143 L0,12 L3.74904651,12 L3.74904651,7.67314286 L6.3480814,7.67314286 L7.35783721,5.04471429 L3.74904651,5.04471429 L3.74904651,2.61857143 L8.14774419,2.61857143 L9.10716279,0.0102857143 L0,0.0102857143 Z M10.2472791,0.0102857143 L10.2373837,12 L13.9459884,12 L13.9459884,0.0102857143 L10.2472791,0.0102857143 L10.2472791,0.0102857143 Z M28.4723605,8.08714286 L29.9020233,3.09342857 L31.381593,8.08757143 L28.4723605,8.08757143 L28.4723605,8.08714286 Z M31.8815233,0.0107142857 L28.0425581,0.0107142857 L23.7832558,12 L27.3627907,12 L27.8222791,10.3928571 L31.9912326,10.3928571 L32.4713721,12 L36.160186,12 L31.8815233,0.0102857143 L31.8815233,0.0107142857 Z M16.4955465,0.0102857143 L16.4955465,12 L20.244593,12 L20.244593,7.67314286 L22.8436279,7.67314286 L23.8632791,5.04471429 L20.244593,5.04471429 L20.244593,2.61814286 L24.6432907,2.61814286 L25.6130349,0.0102857143 L16.4955465,0.0102857143 Z M35.3702791,1.284 L35.6305698,1.284 C35.6705814,1.284 35.7101628,1.284 35.7501744,1.27371429 C35.790186,1.27371429 35.8203023,1.25357143 35.8504186,1.24371429 C35.8784894,1.2252358 35.9022562,1.20097618 35.9201163,1.17257143 C35.9418115,1.13593257 35.9522797,1.09377455 35.9502326,1.05128571 C35.9524894,1.01188265 35.9419278,0.972805304 35.9201163,0.939857143 C35.9003256,0.909857143 35.8801047,0.889714286 35.8504186,0.879857143 C35.8205502,0.860452628 35.7858255,0.849763678 35.7501744,0.849 C35.7101628,0.849 35.6804767,0.839142857 35.6404651,0.839142857 L35.3806047,0.839142857 L35.3806047,1.284 L35.3702791,1.284 L35.3702791,1.284 Z M35.070407,0.606857143 L35.6602558,0.606857143 C35.8504186,0.606857143 36.0001395,0.636857143 36.0904884,0.707571429 C36.1903023,0.778285714 36.2402093,0.899571429 36.2402093,1.07185714 C36.2402093,1.203 36.210093,1.30414286 36.1300698,1.37485714 C36.0603721,1.44557143 35.9601279,1.48628571 35.8301977,1.49614286 L36.2501047,2.19385714 L35.9502326,2.19385714 L35.5402209,1.50642857 L35.3702791,1.50642857 L35.3702791,2.19385714 L35.070407,2.19385714 L35.070407,0.606428571 L35.070407,0.606857143 Z M35.6103488,2.53714286 C35.7605,2.53714286 35.89,2.50671429 36.0203605,2.45614286 C36.1502907,2.39571429 36.2604302,2.32457143 36.3503488,2.22385714 C36.4402674,2.12271429 36.5202907,2.001 36.580093,1.86985714 C36.63,1.72842857 36.6601163,1.57671429 36.6601163,1.41471429 C36.6601163,1.25314286 36.63,1.10185714 36.580093,0.96 C36.5198605,0.818571429 36.4501628,0.707142857 36.3503488,0.606 C36.2501047,0.504857143 36.1502907,0.424285714 36.0203605,0.373714286 C35.8901827,0.320726936 35.750974,0.29322551 35.6103488,0.292714286 C35.4601977,0.292714286 35.3306977,0.322714286 35.2003372,0.373714286 C35.070407,0.434142857 34.9606977,0.504857143 34.8707791,0.606 C34.7804302,0.707142857 34.7008372,0.828857143 34.6505,0.96 C34.5980613,1.10593548 34.5709987,1.25971261 34.5704767,1.41471429 C34.5704767,1.57671429 34.600593,1.72842857 34.6505,1.86985714 C34.7107326,2.01128571 34.7804302,2.12271429 34.8703488,2.22385714 C34.970593,2.32457143 35.0807326,2.40557143 35.2003372,2.45614286 C35.3208023,2.50671429 35.4606279,2.53714286 35.6103488,2.53714286 L35.6103488,2.53714286 Z M35.6103488,2.81014286 C35.4247032,2.80929984 35.2411089,2.77141123 35.070407,2.69871429 C34.904673,2.62856551 34.7550542,2.52546174 34.6307093,2.39571429 C34.5057886,2.26773536 34.4072713,2.11659858 34.3407326,1.95085714 C34.2687446,1.77771755 34.2313336,1.59225803 34.230593,1.40485714 C34.2317072,1.03572604 34.3749154,0.68108191 34.6307093,0.414 C34.7577888,0.287590577 34.9067462,0.185087695 35.070407,0.111428571 C35.2403488,0.0304285714 35.4210465,0 35.6103488,0 C35.8005116,0 35.9803488,0.03 36.1502907,0.111428571 C36.3202326,0.182142857 36.4600581,0.282857143 36.5899884,0.414428571 C36.7104535,0.546 36.8201628,0.687428571 36.8898605,0.859285714 C36.9599884,1.03114286 37,1.21328571 37,1.40528571 C37,1.59728571 36.9599884,1.77942857 36.8898605,1.95128571 C36.820986,2.11816871 36.7189902,2.26947851 36.5899884,2.39614286 C36.4674976,2.52803565 36.317386,2.63147901 36.1502907,2.69914286 C35.9795888,2.7718398 35.7959945,2.80972841 35.6103488,2.81057143 L35.6103488,2.81014286 Z" id="Shape"></path>
                </g>
            </g>
        </g>
    </g>
</svg>