<svg width="22" height="22" viewBox="0 0 22 22" fill="none" xmlns="http://www.w3.org/2000/svg"><g clip-path="url(#clip0_201_2)" fill="#fff"><path d="M11 22C4.925 22 0 17.075 0 11S4.925 0 11 0s11 4.925 11 11-4.925 11-11 11zm0-2a9 9 0 100-18 9 9 0 000 18z"/><path d="M11 15.5a1 1 0 01-1-1v-6a1 1 0 012 0v6a1 1 0 01-1 1z"/><path d="M14.707 11.207a1 1 0 01-1.414 0L11 8.915l-2.293 2.292a1 1 0 01-1.32.083l-.094-.083a1 1 0 010-1.414l3-3a1 1 0 011.414 0l3 3a1 1 0 010 1.414z"/></g><defs><clipPath id="clip0_201_2"><path fill="#fff" transform="rotate(180 11 11)" d="M0 0h22v22H0z"/></clipPath></defs></svg>