<svg width="24" height="24" viewBox="0 0 24 24" xmlns="http://www.w3.org/2000/svg"><path d="M12 0C5.375 0 0 5.375 0 12s5.375 12 12 12 12-5.375 12-12S18.625 0 12 0zM8.897 2.37l-.496.908L12 4.83l3.599-1.552-.496-.908a10.136 10.136 0 015.092 3.717l-1.025-.203-.35 3.892 2.573 2.957.733-.792V12c0 2.25-.743 4.316-1.99 6l-.118-1.054-3.805.848-1.99 3.365.939.44c-.997.326-2.062.527-3.162.527s-2.165-.2-3.162-.527l.938-.44-1.99-3.365-3.804-.848L3.864 18a10.036 10.036 0 01-1.99-6v-.06l.733.793L5.18 9.776l-.35-3.892-1.025.203A10.136 10.136 0 018.897 2.37zM12 7.99l-4.213 3.074 1.609 4.946h5.208l1.61-4.946L12 7.99z" fill="#121619"/></svg>