<svg width="19.5" height="19.5" viewBox="0 0 19.5 19.5" xmlns="http://www.w3.org/2000/svg"><path d="M9.75 6.15l3.424 2.488M9.75 6.15L6.326 8.638M9.75 6.15v-2.7m3.424 5.188l-1.308 4.024m1.308-4.024L15.6 7.5m-3.734 5.162H7.634m4.232 0L13.35 14.7m-5.716-2.038L6.326 8.638m1.308 4.024L6.15 14.7m.176-6.062L3.9 7.5m0 0L.794 10.65M3.9 7.5L3 3.797M15.6 7.5l3.106 3.15M15.6 7.5l.9-3.703M9.75 3.45L6.712 1.276M9.75 3.45l3.038-2.174M6.15 14.7l-4.196-.45m4.196.45l2.25 3.95m4.95-3.95l4.196-.45m-4.196.45l-2.25 3.95m7.65-8.9a9 9 0 11-18 0 9 9 0 0118 0z" stroke="#121619" stroke-width="1.5" fill="none" stroke-linecap="round" stroke-linejoin="round"/></svg>