<svg width="24" height="24" viewBox="0 0 24 24" xmlns="http://www.w3.org/2000/svg"><g stroke="#121619" stroke-width="1.5" fill="none" fill-rule="evenodd" stroke-linecap="round" stroke-linejoin="round"><path d="M21 8.58v6.84a3.18 3.18 0 01-1.555 2.73l-5.885 3.43c-.96.56-2.15.56-3.12 0l-5.885-3.43A3.155 3.155 0 013 15.42V8.58c0-1.12.594-2.16 1.555-2.73l5.885-3.43c.96-.56 2.15-.56 3.12 0l5.885 3.43c.96.57 1.555 1.6 1.555 2.73z"/><path d="M12.005 11a2.32 2.32 0 002.308-2.33 2.32 2.32 0 00-2.308-2.33 2.32 2.32 0 00-2.308 2.33A2.32 2.32 0 0012.005 11zm3.963 5.66c0-1.8-1.774-3.26-3.963-3.26-2.19 0-3.963 1.46-3.963 3.26"/></g></svg>