<svg width="20" height="22" xmlns="http://www.w3.org/2000/svg"><g stroke="#121619" stroke-width="1.5" fill="none" fill-rule="evenodd" stroke-linecap="round" stroke-linejoin="round"><path d="M8.41 1.233l-5.223 1.88C1.984 3.543 1 4.903 1 6.123v7.431c0 1.18.816 2.73 1.81 3.44l4.5 3.21c1.476 1.061 3.904 1.061 5.38 0l4.5-3.21c.994-.71 1.81-2.26 1.81-3.44v-7.43c0-1.231-.984-2.591-2.187-3.021l-5.222-1.87c-.89-.31-2.313-.31-3.182 0z"/><path d="M9.99 10.979c1.028 0 1.861-.851 1.861-1.9 0-1.05-.833-1.9-1.86-1.9-1.028 0-1.86.85-1.86 1.9 0 1.049.832 1.9 1.86 1.9zm.001 0v2.85"/></g></svg>