<svg width="24" height="24" viewBox="0 0 24 24" xmlns="http://www.w3.org/2000/svg"><g fill="none" fill-rule="evenodd"><path d="M21 9.3v5.4c0 2.25-.45 3.825-1.458 4.842L13.8 13.8l6.957-6.957c.162.711.243 1.521.243 2.457z"/><path d="M20.757 6.843L6.843 20.757C4.134 20.136 3 18.264 3 14.7V9.3C3 4.8 4.8 3 9.3 3h5.4c3.564 0 5.436 1.134 6.057 3.843z"/><path d="M19.542 19.542C18.525 20.55 16.95 21 14.7 21H9.3c-.936 0-1.746-.081-2.457-.243L13.8 13.8l5.742 5.742zM6.816 8.382c.612-2.637 4.572-2.637 5.184 0 .351 1.548-.621 2.862-1.476 3.672a1.62 1.62 0 01-2.232 0c-.855-.81-1.836-2.124-1.476-3.672zm2.569.648h.008"/></g></svg>