<svg xmlns="http://www.w3.org/2000/svg" width="18.005" height="11.552" viewBox="0 0 18.005 11.552"><defs><clipPath id="clip-path"><path id="Rectangle_80" data-name="Rectangle 80" fill="#878d96" d="M0 0h17.829v11.552H0z"/></clipPath><clipPath id="clip-path-2"><path id="Rectangle_81" data-name="Rectangle 81" transform="translate(-.176 .058)" fill="#878d96" d="M0 0h18v11H0z"/></clipPath></defs><g id="Group_52" data-name="Group 52" transform="translate(.176 -.001)"><g id="Group_48" data-name="Group 48" transform="translate(0 .001)"><g id="Group_47" data-name="Group 47" clip-path="url(#clip-path)"><path id="Path_14" data-name="Path 14" d="M9.722 0l1.259.081c2.9.405 5.825 2.8 7.583 5.124a.867.867 0 01.215.676V5.9a1.334 1.334 0 01-.34.6l-1.176 1.328-.971.932a10.141 10.141 0 01-6.217 2.791c-3.486.009-6.311-2.132-8.471-4.7l-.367-.463a.855.855 0 01-.149-1.035l.012-.011c.091-.138.2-.267.309-.4l.888-1.015a16.364 16.364 0 012.457-2.151l.7-.439A8.765 8.765 0 019.722 0M9.7 2.084a3.734 3.734 0 00-3.5 3.274 3.742 3.742 0 003.4 4.073 4.535 4.535 0 00.484 0 3.714 3.714 0 003.47-4.029l-.007-.063A3.724 3.724 0 009.7 2.084" transform="translate(-.962 -.001)" fill="#878d96"/></g></g><g id="Group_50" data-name="Group 50" transform="translate(0 .144)"><g id="Group_49" data-name="Group 49" clip-path="url(#clip-path-2)"><path id="Path_15" data-name="Path 15" d="M1636.812 901.5a1.851 1.851 0 011.312.352 1.88 1.88 0 01-.92 3.368h-.011a1.837 1.837 0 01-1.287-.352 1.871 1.871 0 01.906-3.369" transform="translate(-1628.095 -897.743)" fill="#878d96"/></g></g></g></svg>