<svg width="18" height="24" viewBox="0 0 18 24" xmlns="http://www.w3.org/2000/svg"><path d="M3 0C1.345 0 0 1.345 0 3v18c0 1.655 1.345 3 3 3h12c1.655 0 3-1.345 3-3V7.5h-6c-.83 0-1.5-.67-1.5-1.5V0H3zm9 0v6h6l-6-6zM3 10.5h1.125a2.627 2.627 0 012.625 2.625 2.627 2.627 0 01-2.625 2.625H3.75v1.5c0 .413-.337.75-.75.75a.752.752 0 01-.75-.75v-6c0-.412.337-.75.75-.75zm1.125 3.75c.623 0 1.125-.502 1.125-1.125S4.748 12 4.125 12H3.75v2.25h.375zm3.375-3c0-.412.338-.75.75-.75h1.125a2.25 2.25 0 012.25 2.25v3A2.25 2.25 0 019.375 18H8.25a.752.752 0 01-.75-.75v-6zM9 16.5h.375c.412 0 .75-.337.75-.75v-3a.752.752 0 00-.75-.75H9v4.5zm4.5-6h2.25c.413 0 .75.338.75.75s-.337.75-.75.75h-1.5v1.5h1.5c.413 0 .75.338.75.75s-.337.75-.75.75h-1.5v2.25c0 .413-.338.75-.75.75a.752.752 0 01-.75-.75v-6c0-.412.338-.75.75-.75z" fill="#C80A0A"/></svg>