<svg width="18" height="24" viewBox="0 0 18 24" xmlns="http://www.w3.org/2000/svg"><path d="M3 0C1.345 0 0 1.345 0 3v18c0 1.655 1.345 3 3 3h12c1.655 0 3-1.345 3-3V7.5h-6c-.83 0-1.5-.67-1.5-1.5V0H3zm9 0v6h6l-6-6zM7.298 11.728L9 14.161l1.702-2.433a1.122 1.122 0 011.565-.276c.506.356.633 1.059.277 1.565l-2.17 3.108 2.174 3.103c.357.511.235 1.21-.276 1.566a1.122 1.122 0 01-1.566-.277L9 18.084l-1.702 2.433a1.122 1.122 0 01-1.565.277 1.127 1.127 0 01-.277-1.566l2.17-3.103-2.174-3.103a1.122 1.122 0 01.276-1.566 1.122 1.122 0 011.566.277l.004-.005z" fill="#217346"/></svg>