<svg width="22" height="22" viewBox="0 0 22 22" xmlns="http://www.w3.org/2000/svg"><g id="Soutěže" stroke="none" stroke-width="1" fill="none" fill-rule="evenodd"><g id="Soutěže---Klub" transform="translate(-620 -160)"><g id="ico_home" transform="translate(620 160)"><path id="Rectangle" d="M0 0h22v22H0z"/><g id="home" transform="translate(5 5)" fill="#121619" fill-rule="nonzero"><path d="M11.316 3.782L7.16.395C6.517-.13 5.479-.13 4.843.39L.686 3.782c-.468.38-.768 1.18-.666 1.78l.798 4.867c.144.868.96 1.571 1.824 1.571H9.36c.857 0 1.68-.71 1.823-1.571l.798-4.867c.096-.6-.204-1.4-.666-1.78zm-5.315 4.36c-.828 0-1.5-.685-1.5-1.529 0-.843.672-1.528 1.5-1.528s1.5.685 1.5 1.528c0 .844-.672 1.529-1.5 1.529z" id="Shape"/></g></g></g></g></svg>