<svg width="24" height="24" viewBox="0 0 24 24" xmlns="http://www.w3.org/2000/svg"><g id="Symbols" stroke="none" stroke-width="1" fill="none" fill-rule="evenodd"><g id="icoHriste" stroke="#121619" stroke-width="1.5"><g id="Group-2" transform="translate(3 4)"><path d="M13.5 16h-9C1.8 16 0 14.588 0 11.294V4.706C0 1.412 1.8 0 4.5 0h9C16.2 0 18 1.412 18 4.706v6.588C18 14.588 16.2 16 13.5 16z" id="Path" stroke-linecap="round" stroke-linejoin="round"/><path d="M9 10.286c1.243 0 2.25-1.024 2.25-2.286S10.243 5.714 9 5.714 6.75 6.738 6.75 8 7.757 10.286 9 10.286z" id="Path" stroke-linecap="round" stroke-linejoin="round"/><path id="Line" stroke-linecap="square" d="M9 10.286v5.143M9 0v5.143"/></g></g></g></svg>