<svg width="24" height="24" viewBox="0 0 24 24" xmlns="http://www.w3.org/2000/svg"><g id="Symbols" stroke="none" stroke-width="1" fill="none" fill-rule="evenodd" stroke-linecap="round" stroke-linejoin="round"><g id="icoDivaci" stroke="#121619" stroke-width="1.503"><g id="people" transform="translate(2 2)"><path d="M16.026 5.16a.608.608 0 00-.19 0 2.575 2.575 0 01-2.485-2.58c0-1.43 1.152-2.58 2.584-2.58a2.582 2.582 0 012.585 2.58 2.59 2.59 0 01-2.494 2.58zm-1.032 7.278c1.372.23 2.885-.01 3.947-.72 1.412-.94 1.412-2.48 0-3.419-1.072-.71-2.605-.95-3.977-.71M3.975 5.16c.06-.01.13-.01.19 0a2.575 2.575 0 002.484-2.58A2.575 2.575 0 004.065 0 2.582 2.582 0 001.48 2.58a2.59 2.59 0 002.495 2.58zm1.031 7.278c-1.372.23-2.885-.01-3.947-.72-1.412-.94-1.412-2.48 0-3.419 1.072-.71 2.605-.95 3.977-.71m4.979 5.039a.608.608 0 00-.19 0 2.575 2.575 0 01-2.485-2.58 2.575 2.575 0 012.585-2.579 2.582 2.582 0 012.584 2.58c-.01 1.4-1.111 2.54-2.494 2.58zM7.1 15.778c-1.413.94-1.413 2.48 0 3.42 1.603 1.07 4.227 1.07 5.83 0 1.413-.94 1.413-2.48 0-3.42-1.593-1.06-4.227-1.06-5.83 0z" id="Path"/></g></g></g></svg>