<svg width="22" height="22" xmlns="http://www.w3.org/2000/svg"><g stroke="#121619" fill="none" fill-rule="evenodd" stroke-linecap="round" stroke-linejoin="round"><path d="M8.4 15.835H5.42c-3.538 0-4.42-.864-4.42-4.33V5.33C1 1.864 1.882 1 5.42 1h10.057c3.538 0 4.42.864 4.42 4.331M8.4 20.485v-4.65M1 11.72h8.4m-3.423 8.766H8.4" stroke-width="1.5"/><path d="M21 11.566v5.874c0 2.439-.62 3.046-3.108 3.046h-3.727c-2.489 0-3.108-.607-3.108-3.046v-5.874c0-2.438.619-3.045 3.107-3.045h3.728c2.489 0 3.108.607 3.108 3.045z" stroke-width="1.5"/><path stroke-width="2.058" d="M16.007 17.173h.009"/></g></svg>