<?xml version="1.0" encoding="utf-8"?>
<!-- Generator: Adobe Illustrator 14.0.0, SVG Export Plug-In . SVG Version: 6.00 Build 43363)  -->
<!DOCTYPE svg PUBLIC "-//W3C//DTD SVG 1.1//EN" "http://www.w3.org/Graphics/SVG/1.1/DTD/svg11.dtd">
<svg version="1.1" id="Layer_1" xmlns="http://www.w3.org/2000/svg" xmlns:xlink="http://www.w3.org/1999/xlink" x="0px" y="0px"
	 width="30px" height="30px" viewBox="0 0 30 30" enable-background="new 0 0 30 30" xml:space="preserve">
<circle opacity="0.9" fill="#FFFFFF" cx="15" cy="15" r="15"/>
<circle opacity="0.9" fill="#FFFFFF" cx="65" cy="15" r="15"/>
<path id="path284" fill="#E31E26" d="M21.945,14.13L11.1,7.14C10.457,6.794,9.72,6.83,9.72,8.074v13.763
	c0,1.137,0.79,1.315,1.379,0.933l10.845-6.989C22.391,15.325,22.391,14.586,21.945,14.13"/>
<path id="path330" fill="#E31E26" d="M65.001,12.714c-1.894,0-3.43,1.534-3.43,3.429c0,1.892,1.536,3.428,3.43,3.428
	c1.895,0,3.429-1.536,3.429-3.428C68.43,14.248,66.896,12.714,65.001,12.714z M65.001,20.712c-2.524,0-4.571-2.045-4.571-4.569
	c0-2.525,2.047-4.571,4.571-4.571c2.523,0,4.57,2.046,4.57,4.571C69.571,18.667,67.524,20.712,65.001,20.712z M71.858,9.284h-1.716
	l-0.571-1.142C69.236,7.479,69.061,7,68.43,7h-6.858c-0.63,0-0.839,0.545-1.142,1.143l-0.57,1.142h-1.716
	c-1.263,0-2.285,1.025-2.285,2.287v9.141c0,1.262,1.022,2.288,2.285,2.288h13.715c1.262,0,2.284-1.026,2.284-2.288v-9.141
	C74.143,10.31,73.12,9.284,71.858,9.284z"/>
</svg>
